ISO-10303-21;
HEADER;
/* Generated by software containing ST-Developer
 * from STEP Tools, Inc. (www.steptools.com) 
 */

FILE_DESCRIPTION(
/* description */ (''),
/* implementation_level */ '2;1');

FILE_NAME(
/* name */ '',
/* time_stamp */ '2026-09-30T16:49:01+07:00',
/* author */ (''),
/* organization */ (''),
/* preprocessor_version */ 'ST-DEVELOPER v20.2',
/* originating_system */ 'Autodesk Translation Framework v15.15.0.0',
/* authorisation */ '');

FILE_SCHEMA (('AUTOMOTIVE_DESIGN { 1 0 10303 214 3 1 1 }'));
ENDSEC;

DATA;
#10=MECHANICAL_DESIGN_GEOMETRIC_PRESENTATION_REPRESENTATION('',(#13),#2166);
#11=SHAPE_REPRESENTATION_RELATIONSHIP('SRR','None',#2173,#12);
#12=ADVANCED_BREP_SHAPE_REPRESENTATION('',(#14),#2165);
#13=STYLED_ITEM('',(#2182),#14);
#14=MANIFOLD_SOLID_BREP('\X2\04340432043E0439043D043E0439\X0\ \X2\043C0443043D0434044804420443043A\X0\',
#1266);
#15=FACE_BOUND('',#399,.T.);
#16=FACE_BOUND('',#409,.T.);
#17=FACE_BOUND('',#412,.T.);
#18=FACE_BOUND('',#417,.T.);
#19=FACE_BOUND('',#421,.T.);
#20=FACE_BOUND('',#429,.T.);
#21=FACE_BOUND('',#438,.T.);
#22=FACE_BOUND('',#441,.T.);
#23=FACE_BOUND('',#446,.T.);
#24=FACE_BOUND('',#450,.T.);
#25=FACE_BOUND('',#463,.T.);
#26=CYLINDRICAL_SURFACE('',#1295,16.7859273575944);
#27=CYLINDRICAL_SURFACE('',#1323,5.9);
#28=CYLINDRICAL_SURFACE('',#1325,5.9);
#29=CYLINDRICAL_SURFACE('',#1326,13.2376539045058);
#30=CYLINDRICAL_SURFACE('',#1338,9.00000013411045);
#31=CYLINDRICAL_SURFACE('',#1340,11.0000001639128);
#32=CYLINDRICAL_SURFACE('',#1344,10.0009612099982);
#33=CYLINDRICAL_SURFACE('',#1353,16.7859273575944);
#34=CYLINDRICAL_SURFACE('',#1368,5.9);
#35=CYLINDRICAL_SURFACE('',#1370,5.9);
#36=CYLINDRICAL_SURFACE('',#1371,13.2376539045058);
#37=CYLINDRICAL_SURFACE('',#1383,9.00000013411045);
#38=CYLINDRICAL_SURFACE('',#1385,11.0000001639128);
#39=CYLINDRICAL_SURFACE('',#1389,10.0009612099982);
#40=LINE('',#1801,#153);
#41=LINE('',#1802,#154);
#42=LINE('',#1824,#155);
#43=LINE('',#1825,#156);
#44=LINE('',#1828,#157);
#45=LINE('',#1829,#158);
#46=LINE('',#1833,#159);
#47=LINE('',#1835,#160);
#48=LINE('',#1837,#161);
#49=LINE('',#1839,#162);
#50=LINE('',#1841,#163);
#51=LINE('',#1843,#164);
#52=LINE('',#1844,#165);
#53=LINE('',#1847,#166);
#54=LINE('',#1849,#167);
#55=LINE('',#1850,#168);
#56=LINE('',#1853,#169);
#57=LINE('',#1855,#170);
#58=LINE('',#1857,#171);
#59=LINE('',#1859,#172);
#60=LINE('',#1861,#173);
#61=LINE('',#1862,#174);
#62=LINE('',#1865,#175);
#63=LINE('',#1867,#176);
#64=LINE('',#1869,#177);
#65=LINE('',#1871,#178);
#66=LINE('',#1879,#179);
#67=LINE('',#1883,#180);
#68=LINE('',#1887,#181);
#69=LINE('',#1895,#182);
#70=LINE('',#1901,#183);
#71=LINE('',#1902,#184);
#72=LINE('',#1907,#185);
#73=LINE('',#1917,#186);
#74=LINE('',#1920,#187);
#75=LINE('',#1921,#188);
#76=LINE('',#1929,#189);
#77=LINE('',#1931,#190);
#78=LINE('',#1933,#191);
#79=LINE('',#1935,#192);
#80=LINE('',#1942,#193);
#81=LINE('',#1944,#194);
#82=LINE('',#1946,#195);
#83=LINE('',#1948,#196);
#84=LINE('',#1957,#197);
#85=LINE('',#1959,#198);
#86=LINE('',#1960,#199);
#87=LINE('',#1961,#200);
#88=LINE('',#1963,#201);
#89=LINE('',#1964,#202);
#90=LINE('',#1966,#203);
#91=LINE('',#1967,#204);
#92=LINE('',#1970,#205);
#93=LINE('',#1974,#206);
#94=LINE('',#1978,#207);
#95=LINE('',#1986,#208);
#96=LINE('',#1995,#209);
#97=LINE('',#1998,#210);
#98=LINE('',#2000,#211);
#99=LINE('',#2006,#212);
#100=LINE('',#2010,#213);
#101=LINE('',#2016,#214);
#102=LINE('',#2018,#215);
#103=LINE('',#2021,#216);
#104=LINE('',#2022,#217);
#105=LINE('',#2024,#218);
#106=LINE('',#2026,#219);
#107=LINE('',#2029,#220);
#108=LINE('',#2037,#221);
#109=LINE('',#2039,#222);
#110=LINE('',#2041,#223);
#111=LINE('',#2043,#224);
#112=LINE('',#2050,#225);
#113=LINE('',#2052,#226);
#114=LINE('',#2054,#227);
#115=LINE('',#2056,#228);
#116=LINE('',#2065,#229);
#117=LINE('',#2066,#230);
#118=LINE('',#2067,#231);
#119=LINE('',#2068,#232);
#120=LINE('',#2070,#233);
#121=LINE('',#2072,#234);
#122=LINE('',#2073,#235);
#123=LINE('',#2075,#236);
#124=LINE('',#2077,#237);
#125=LINE('',#2081,#238);
#126=LINE('',#2085,#239);
#127=LINE('',#2093,#240);
#128=LINE('',#2102,#241);
#129=LINE('',#2105,#242);
#130=LINE('',#2107,#243);
#131=LINE('',#2113,#244);
#132=LINE('',#2117,#245);
#133=LINE('',#2123,#246);
#134=LINE('',#2126,#247);
#135=LINE('',#2127,#248);
#136=LINE('',#2129,#249);
#137=LINE('',#2132,#250);
#138=LINE('',#2134,#251);
#139=LINE('',#2135,#252);
#140=LINE('',#2138,#253);
#141=LINE('',#2140,#254);
#142=LINE('',#2141,#255);
#143=LINE('',#2144,#256);
#144=LINE('',#2146,#257);
#145=LINE('',#2147,#258);
#146=LINE('',#2150,#259);
#147=LINE('',#2152,#260);
#148=LINE('',#2153,#261);
#149=LINE('',#2155,#262);
#150=LINE('',#2156,#263);
#151=LINE('',#2159,#264);
#152=LINE('',#2161,#265);
#153=VECTOR('',#1420,10.);
#154=VECTOR('',#1421,10.);
#155=VECTOR('',#1432,10.);
#156=VECTOR('',#1433,10.);
#157=VECTOR('',#1436,10.);
#158=VECTOR('',#1437,10.);
#159=VECTOR('',#1440,10.);
#160=VECTOR('',#1441,10.);
#161=VECTOR('',#1442,10.);
#162=VECTOR('',#1443,10.);
#163=VECTOR('',#1444,10.);
#164=VECTOR('',#1445,10.);
#165=VECTOR('',#1446,10.);
#166=VECTOR('',#1449,10.);
#167=VECTOR('',#1450,10.);
#168=VECTOR('',#1451,10.);
#169=VECTOR('',#1454,10.);
#170=VECTOR('',#1455,10.);
#171=VECTOR('',#1456,10.);
#172=VECTOR('',#1457,10.);
#173=VECTOR('',#1458,10.);
#174=VECTOR('',#1459,10.);
#175=VECTOR('',#1462,10.);
#176=VECTOR('',#1463,10.);
#177=VECTOR('',#1464,10.);
#178=VECTOR('',#1465,10.);
#179=VECTOR('',#1470,16.7859273575944);
#180=VECTOR('',#1475,10.);
#181=VECTOR('',#1480,16.3859273575944);
#182=VECTOR('',#1485,10.);
#183=VECTOR('',#1486,10.);
#184=VECTOR('',#1487,10.);
#185=VECTOR('',#1492,16.3859273575944);
#186=VECTOR('',#1501,10.);
#187=VECTOR('',#1504,10.);
#188=VECTOR('',#1505,10.);
#189=VECTOR('',#1512,10.);
#190=VECTOR('',#1513,10.);
#191=VECTOR('',#1514,10.);
#192=VECTOR('',#1515,10.);
#193=VECTOR('',#1522,10.);
#194=VECTOR('',#1523,10.);
#195=VECTOR('',#1524,10.);
#196=VECTOR('',#1525,10.);
#197=VECTOR('',#1536,10.);
#198=VECTOR('',#1539,10.);
#199=VECTOR('',#1540,10.);
#200=VECTOR('',#1541,10.);
#201=VECTOR('',#1544,10.);
#202=VECTOR('',#1545,10.);
#203=VECTOR('',#1548,10.);
#204=VECTOR('',#1549,10.);
#205=VECTOR('',#1554,10.);
#206=VECTOR('',#1559,13.2376539045058);
#207=VECTOR('',#1564,13.4876539045058);
#208=VECTOR('',#1573,9.60000013411045);
#209=VECTOR('',#1584,9.00000013411045);
#210=VECTOR('',#1589,11.0000001639128);
#211=VECTOR('',#1592,15.8475428597925);
#212=VECTOR('',#1599,10.0009612099982);
#213=VECTOR('',#1604,10.2509612099982);
#214=VECTOR('',#1613,15.2859273575944);
#215=VECTOR('',#1616,10.);
#216=VECTOR('',#1619,10.);
#217=VECTOR('',#1620,10.);
#218=VECTOR('',#1623,10.);
#219=VECTOR('',#1624,16.7859273575944);
#220=VECTOR('',#1629,10.);
#221=VECTOR('',#1636,10.);
#222=VECTOR('',#1637,10.);
#223=VECTOR('',#1638,10.);
#224=VECTOR('',#1639,10.);
#225=VECTOR('',#1646,10.);
#226=VECTOR('',#1647,10.);
#227=VECTOR('',#1648,10.);
#228=VECTOR('',#1649,10.);
#229=VECTOR('',#1660,10.);
#230=VECTOR('',#1661,10.);
#231=VECTOR('',#1662,10.);
#232=VECTOR('',#1663,10.);
#233=VECTOR('',#1666,10.);
#234=VECTOR('',#1669,10.);
#235=VECTOR('',#1670,10.);
#236=VECTOR('',#1673,10.);
#237=VECTOR('',#1676,10.);
#238=VECTOR('',#1681,13.2376539045058);
#239=VECTOR('',#1686,13.4876539045058);
#240=VECTOR('',#1695,9.60000013411045);
#241=VECTOR('',#1706,9.00000013411045);
#242=VECTOR('',#1711,11.0000001639128);
#243=VECTOR('',#1714,15.8475428597925);
#244=VECTOR('',#1721,10.0009612099982);
#245=VECTOR('',#1726,10.2509612099982);
#246=VECTOR('',#1735,15.2859273575944);
#247=VECTOR('',#1740,10.);
#248=VECTOR('',#1741,10.);
#249=VECTOR('',#1744,10.);
#250=VECTOR('',#1747,10.);
#251=VECTOR('',#1748,10.);
#252=VECTOR('',#1749,10.);
#253=VECTOR('',#1752,10.);
#254=VECTOR('',#1753,10.);
#255=VECTOR('',#1754,10.);
#256=VECTOR('',#1757,10.);
#257=VECTOR('',#1758,10.);
#258=VECTOR('',#1759,10.);
#259=VECTOR('',#1762,10.);
#260=VECTOR('',#1763,10.);
#261=VECTOR('',#1764,10.);
#262=VECTOR('',#1767,10.);
#263=VECTOR('',#1768,10.);
#264=VECTOR('',#1773,10.);
#265=VECTOR('',#1776,10.);
#266=PLANE('',#1284);
#267=PLANE('',#1289);
#268=PLANE('',#1290);
#269=PLANE('',#1291);
#270=PLANE('',#1292);
#271=PLANE('',#1293);
#272=PLANE('',#1294);
#273=PLANE('',#1302);
#274=PLANE('',#1308);
#275=PLANE('',#1309);
#276=PLANE('',#1310);
#277=PLANE('',#1314);
#278=PLANE('',#1320);
#279=PLANE('',#1321);
#280=PLANE('',#1322);
#281=PLANE('',#1324);
#282=PLANE('',#1330);
#283=PLANE('',#1336);
#284=PLANE('',#1342);
#285=PLANE('',#1348);
#286=PLANE('',#1351);
#287=PLANE('',#1352);
#288=PLANE('',#1355);
#289=PLANE('',#1356);
#290=PLANE('',#1360);
#291=PLANE('',#1366);
#292=PLANE('',#1367);
#293=PLANE('',#1369);
#294=PLANE('',#1375);
#295=PLANE('',#1381);
#296=PLANE('',#1387);
#297=PLANE('',#1393);
#298=PLANE('',#1396);
#299=PLANE('',#1397);
#300=PLANE('',#1398);
#301=PLANE('',#1399);
#302=PLANE('',#1400);
#303=PLANE('',#1401);
#304=PLANE('',#1402);
#305=PLANE('',#1403);
#306=PLANE('',#1404);
#307=PLANE('',#1405);
#308=PLANE('',#1406);
#309=PLANE('',#1407);
#310=FACE_OUTER_BOUND('',#382,.T.);
#311=FACE_OUTER_BOUND('',#383,.T.);
#312=FACE_OUTER_BOUND('',#384,.T.);
#313=FACE_OUTER_BOUND('',#385,.T.);
#314=FACE_OUTER_BOUND('',#386,.T.);
#315=FACE_OUTER_BOUND('',#387,.T.);
#316=FACE_OUTER_BOUND('',#388,.T.);
#317=FACE_OUTER_BOUND('',#389,.T.);
#318=FACE_OUTER_BOUND('',#390,.T.);
#319=FACE_OUTER_BOUND('',#391,.T.);
#320=FACE_OUTER_BOUND('',#392,.T.);
#321=FACE_OUTER_BOUND('',#393,.T.);
#322=FACE_OUTER_BOUND('',#394,.T.);
#323=FACE_OUTER_BOUND('',#395,.T.);
#324=FACE_OUTER_BOUND('',#396,.T.);
#325=FACE_OUTER_BOUND('',#397,.T.);
#326=FACE_OUTER_BOUND('',#398,.T.);
#327=FACE_OUTER_BOUND('',#400,.T.);
#328=FACE_OUTER_BOUND('',#401,.T.);
#329=FACE_OUTER_BOUND('',#402,.T.);
#330=FACE_OUTER_BOUND('',#403,.T.);
#331=FACE_OUTER_BOUND('',#404,.T.);
#332=FACE_OUTER_BOUND('',#405,.T.);
#333=FACE_OUTER_BOUND('',#406,.T.);
#334=FACE_OUTER_BOUND('',#407,.T.);
#335=FACE_OUTER_BOUND('',#408,.T.);
#336=FACE_OUTER_BOUND('',#410,.T.);
#337=FACE_OUTER_BOUND('',#411,.T.);
#338=FACE_OUTER_BOUND('',#413,.T.);
#339=FACE_OUTER_BOUND('',#414,.T.);
#340=FACE_OUTER_BOUND('',#415,.T.);
#341=FACE_OUTER_BOUND('',#416,.T.);
#342=FACE_OUTER_BOUND('',#418,.T.);
#343=FACE_OUTER_BOUND('',#419,.T.);
#344=FACE_OUTER_BOUND('',#420,.T.);
#345=FACE_OUTER_BOUND('',#422,.T.);
#346=FACE_OUTER_BOUND('',#423,.T.);
#347=FACE_OUTER_BOUND('',#424,.T.);
#348=FACE_OUTER_BOUND('',#425,.T.);
#349=FACE_OUTER_BOUND('',#426,.T.);
#350=FACE_OUTER_BOUND('',#427,.T.);
#351=FACE_OUTER_BOUND('',#428,.T.);
#352=FACE_OUTER_BOUND('',#430,.T.);
#353=FACE_OUTER_BOUND('',#431,.T.);
#354=FACE_OUTER_BOUND('',#432,.T.);
#355=FACE_OUTER_BOUND('',#433,.T.);
#356=FACE_OUTER_BOUND('',#434,.T.);
#357=FACE_OUTER_BOUND('',#435,.T.);
#358=FACE_OUTER_BOUND('',#436,.T.);
#359=FACE_OUTER_BOUND('',#437,.T.);
#360=FACE_OUTER_BOUND('',#439,.T.);
#361=FACE_OUTER_BOUND('',#440,.T.);
#362=FACE_OUTER_BOUND('',#442,.T.);
#363=FACE_OUTER_BOUND('',#443,.T.);
#364=FACE_OUTER_BOUND('',#444,.T.);
#365=FACE_OUTER_BOUND('',#445,.T.);
#366=FACE_OUTER_BOUND('',#447,.T.);
#367=FACE_OUTER_BOUND('',#448,.T.);
#368=FACE_OUTER_BOUND('',#449,.T.);
#369=FACE_OUTER_BOUND('',#451,.T.);
#370=FACE_OUTER_BOUND('',#452,.T.);
#371=FACE_OUTER_BOUND('',#453,.T.);
#372=FACE_OUTER_BOUND('',#454,.T.);
#373=FACE_OUTER_BOUND('',#455,.T.);
#374=FACE_OUTER_BOUND('',#456,.T.);
#375=FACE_OUTER_BOUND('',#457,.T.);
#376=FACE_OUTER_BOUND('',#458,.T.);
#377=FACE_OUTER_BOUND('',#459,.T.);
#378=FACE_OUTER_BOUND('',#460,.T.);
#379=FACE_OUTER_BOUND('',#461,.T.);
#380=FACE_OUTER_BOUND('',#462,.T.);
#381=FACE_OUTER_BOUND('',#464,.T.);
#382=EDGE_LOOP('',(#822,#823,#824,#825,#826,#827));
#383=EDGE_LOOP('',(#828,#829,#830));
#384=EDGE_LOOP('',(#831,#832,#833,#834,#835,#836));
#385=EDGE_LOOP('',(#837,#838,#839));
#386=EDGE_LOOP('',(#840,#841,#842));
#387=EDGE_LOOP('',(#843,#844,#845,#846,#847,#848,#849));
#388=EDGE_LOOP('',(#850,#851,#852,#853));
#389=EDGE_LOOP('',(#854,#855,#856,#857,#858,#859,#860));
#390=EDGE_LOOP('',(#861,#862,#863,#864,#865,#866));
#391=EDGE_LOOP('',(#867,#868,#869,#870,#871,#872,#873,#874));
#392=EDGE_LOOP('',(#875,#876,#877,#878,#879,#880,#881,#882));
#393=EDGE_LOOP('',(#883,#884,#885,#886,#887,#888));
#394=EDGE_LOOP('',(#889,#890,#891,#892,#893,#894,#895,#896));
#395=EDGE_LOOP('',(#897,#898,#899));
#396=EDGE_LOOP('',(#900,#901,#902,#903));
#397=EDGE_LOOP('',(#904,#905,#906,#907,#908,#909,#910));
#398=EDGE_LOOP('',(#911,#912,#913,#914,#915,#916,#917,#918));
#399=EDGE_LOOP('',(#919));
#400=EDGE_LOOP('',(#920,#921,#922,#923,#924,#925));
#401=EDGE_LOOP('',(#926,#927,#928,#929,#930,#931,#932,#933));
#402=EDGE_LOOP('',(#934,#935,#936,#937));
#403=EDGE_LOOP('',(#938,#939,#940,#941));
#404=EDGE_LOOP('',(#942,#943,#944,#945));
#405=EDGE_LOOP('',(#946,#947,#948,#949));
#406=EDGE_LOOP('',(#950,#951,#952,#953,#954,#955,#956,#957));
#407=EDGE_LOOP('',(#958,#959,#960,#961));
#408=EDGE_LOOP('',(#962));
#409=EDGE_LOOP('',(#963));
#410=EDGE_LOOP('',(#964,#965,#966,#967,#968));
#411=EDGE_LOOP('',(#969));
#412=EDGE_LOOP('',(#970));
#413=EDGE_LOOP('',(#971,#972,#973,#974,#975));
#414=EDGE_LOOP('',(#976,#977,#978,#979));
#415=EDGE_LOOP('',(#980,#981,#982,#983));
#416=EDGE_LOOP('',(#984));
#417=EDGE_LOOP('',(#985));
#418=EDGE_LOOP('',(#986,#987,#988,#989));
#419=EDGE_LOOP('',(#990,#991,#992,#993));
#420=EDGE_LOOP('',(#994));
#421=EDGE_LOOP('',(#995));
#422=EDGE_LOOP('',(#996,#997,#998,#999));
#423=EDGE_LOOP('',(#1000,#1001,#1002,#1003));
#424=EDGE_LOOP('',(#1004,#1005,#1006,#1007));
#425=EDGE_LOOP('',(#1008,#1009,#1010,#1011,#1012,#1013,#1014,#1015));
#426=EDGE_LOOP('',(#1016,#1017,#1018,#1019,#1020,#1021));
#427=EDGE_LOOP('',(#1022,#1023,#1024,#1025,#1026,#1027,#1028));
#428=EDGE_LOOP('',(#1029,#1030,#1031,#1032,#1033,#1034,#1035,#1036));
#429=EDGE_LOOP('',(#1037));
#430=EDGE_LOOP('',(#1038,#1039,#1040,#1041,#1042,#1043,#1044,#1045));
#431=EDGE_LOOP('',(#1046,#1047,#1048,#1049));
#432=EDGE_LOOP('',(#1050,#1051,#1052,#1053));
#433=EDGE_LOOP('',(#1054,#1055,#1056,#1057));
#434=EDGE_LOOP('',(#1058,#1059,#1060,#1061));
#435=EDGE_LOOP('',(#1062,#1063,#1064,#1065,#1066,#1067,#1068,#1069));
#436=EDGE_LOOP('',(#1070,#1071,#1072,#1073));
#437=EDGE_LOOP('',(#1074));
#438=EDGE_LOOP('',(#1075));
#439=EDGE_LOOP('',(#1076,#1077,#1078,#1079,#1080));
#440=EDGE_LOOP('',(#1081));
#441=EDGE_LOOP('',(#1082));
#442=EDGE_LOOP('',(#1083,#1084,#1085,#1086,#1087));
#443=EDGE_LOOP('',(#1088,#1089,#1090,#1091));
#444=EDGE_LOOP('',(#1092,#1093,#1094,#1095));
#445=EDGE_LOOP('',(#1096));
#446=EDGE_LOOP('',(#1097));
#447=EDGE_LOOP('',(#1098,#1099,#1100,#1101));
#448=EDGE_LOOP('',(#1102,#1103,#1104,#1105));
#449=EDGE_LOOP('',(#1106));
#450=EDGE_LOOP('',(#1107));
#451=EDGE_LOOP('',(#1108,#1109,#1110,#1111));
#452=EDGE_LOOP('',(#1112,#1113,#1114,#1115));
#453=EDGE_LOOP('',(#1116,#1117,#1118,#1119,#1120,#1121));
#454=EDGE_LOOP('',(#1122,#1123,#1124,#1125,#1126,#1127));
#455=EDGE_LOOP('',(#1128,#1129,#1130,#1131));
#456=EDGE_LOOP('',(#1132,#1133,#1134,#1135));
#457=EDGE_LOOP('',(#1136,#1137,#1138,#1139));
#458=EDGE_LOOP('',(#1140,#1141,#1142,#1143));
#459=EDGE_LOOP('',(#1144,#1145,#1146,#1147));
#460=EDGE_LOOP('',(#1148,#1149,#1150,#1151));
#461=EDGE_LOOP('',(#1152,#1153,#1154,#1155,#1156,#1157,#1158,#1159));
#462=EDGE_LOOP('',(#1160,#1161,#1162,#1163));
#463=EDGE_LOOP('',(#1164,#1165,#1166,#1167));
#464=EDGE_LOOP('',(#1168,#1169,#1170,#1171,#1172,#1173,#1174,#1175,#1176,
#1177,#1178,#1179));
#465=CIRCLE('',#1281,25.7859273575944);
#466=CIRCLE('',#1282,16.7859273575944);
#467=CIRCLE('',#1283,25.7859273575944);
#468=CIRCLE('',#1286,25.7859273575944);
#469=CIRCLE('',#1287,16.7859273575944);
#470=CIRCLE('',#1288,25.7859273575944);
#471=CIRCLE('',#1296,16.7859273575944);
#472=CIRCLE('',#1297,16.7859273575944);
#473=CIRCLE('',#1298,16.7859273575944);
#474=CIRCLE('',#1300,16.0091583619906);
#475=CIRCLE('',#1301,16.6853392128197);
#476=CIRCLE('',#1304,16.0091583619906);
#477=CIRCLE('',#1305,16.7859273575944);
#478=CIRCLE('',#1306,16.6853392128197);
#479=CIRCLE('',#1307,16.7859273575944);
#480=CIRCLE('',#1311,13.2376539045058);
#481=CIRCLE('',#1312,5.9);
#482=CIRCLE('',#1313,5.9);
#483=CIRCLE('',#1315,5.9);
#484=CIRCLE('',#1316,5.9);
#485=CIRCLE('',#1317,13.2376539045058);
#486=CIRCLE('',#1318,13.2376539045058);
#487=CIRCLE('',#1319,11.0000001639128);
#488=CIRCLE('',#1327,13.2376539045058);
#489=CIRCLE('',#1329,13.7376539045058);
#490=CIRCLE('',#1331,15.6859273575944);
#491=CIRCLE('',#1333,10.2000001341105);
#492=CIRCLE('',#1334,9.00000013411045);
#493=CIRCLE('',#1335,9.00000013411045);
#494=CIRCLE('',#1337,11.0000001639128);
#495=CIRCLE('',#1339,9.00000013411045);
#496=CIRCLE('',#1343,10.0009612099982);
#497=CIRCLE('',#1345,10.0009612099982);
#498=CIRCLE('',#1347,10.5009612099982);
#499=CIRCLE('',#1349,13.7859273575944);
#500=CIRCLE('',#1354,16.7859273575944);
#501=CIRCLE('',#1357,13.2376539045058);
#502=CIRCLE('',#1358,5.9);
#503=CIRCLE('',#1359,5.9);
#504=CIRCLE('',#1361,5.9);
#505=CIRCLE('',#1362,5.9);
#506=CIRCLE('',#1363,13.2376539045058);
#507=CIRCLE('',#1364,13.2376539045058);
#508=CIRCLE('',#1365,11.0000001639128);
#509=CIRCLE('',#1372,13.2376539045058);
#510=CIRCLE('',#1374,13.7376539045058);
#511=CIRCLE('',#1376,15.6859273575944);
#512=CIRCLE('',#1378,10.2000001341105);
#513=CIRCLE('',#1379,9.00000013411045);
#514=CIRCLE('',#1380,9.00000013411045);
#515=CIRCLE('',#1382,11.0000001639128);
#516=CIRCLE('',#1384,9.00000013411045);
#517=CIRCLE('',#1388,10.0009612099982);
#518=CIRCLE('',#1390,10.0009612099982);
#519=CIRCLE('',#1392,10.5009612099982);
#520=CIRCLE('',#1394,13.7859273575944);
#521=(
BOUNDED_CURVE()
B_SPLINE_CURVE(2,(#1783,#1784,#1785),.UNSPECIFIED.,.F.,.F.)
B_SPLINE_CURVE_WITH_KNOTS((3,3),(2.18324156983176,8.06876301908125),
 .UNSPECIFIED.)
CURVE()
GEOMETRIC_REPRESENTATION_ITEM()
RATIONAL_B_SPLINE_CURVE((2.0330847998558,3.04878869358341,2.0330847998558))
REPRESENTATION_ITEM('')
);
#522=(
BOUNDED_CURVE()
B_SPLINE_CURVE(2,(#1789,#1790,#1791),.UNSPECIFIED.,.F.,.F.)
B_SPLINE_CURVE_WITH_KNOTS((3,3),(0.,1.17115349325858),.UNSPECIFIED.)
CURVE()
GEOMETRIC_REPRESENTATION_ITEM()
RATIONAL_B_SPLINE_CURVE((1.,1.04691612545617,1.01927305641325))
REPRESENTATION_ITEM('')
);
#523=(
BOUNDED_CURVE()
B_SPLINE_CURVE(2,(#1795,#1796,#1797),.UNSPECIFIED.,.F.,.F.)
B_SPLINE_CURVE_WITH_KNOTS((3,3),(0.,1.21641681852599),.UNSPECIFIED.)
CURVE()
GEOMETRIC_REPRESENTATION_ITEM()
RATIONAL_B_SPLINE_CURVE((1.,1.03573459293333,1.))
REPRESENTATION_ITEM('')
);
#524=(
BOUNDED_CURVE()
B_SPLINE_CURVE(2,(#1806,#1807,#1808),.UNSPECIFIED.,.F.,.F.)
B_SPLINE_CURVE_WITH_KNOTS((3,3),(2.18324156983177,8.06876301908127),
 .UNSPECIFIED.)
CURVE()
GEOMETRIC_REPRESENTATION_ITEM()
RATIONAL_B_SPLINE_CURVE((2.0330847998558,3.04878869358342,2.0330847998558))
REPRESENTATION_ITEM('')
);
#525=(
BOUNDED_CURVE()
B_SPLINE_CURVE(2,(#1812,#1813,#1814),.UNSPECIFIED.,.F.,.F.)
B_SPLINE_CURVE_WITH_KNOTS((3,3),(0.,1.1567325580294),.UNSPECIFIED.)
CURVE()
GEOMETRIC_REPRESENTATION_ITEM()
RATIONAL_B_SPLINE_CURVE((1.,1.04512355244148,1.01821222376219))
REPRESENTATION_ITEM('')
);
#526=(
BOUNDED_CURVE()
B_SPLINE_CURVE(2,(#1818,#1819,#1820),.UNSPECIFIED.,.F.,.F.)
B_SPLINE_CURVE_WITH_KNOTS((3,3),(0.,1.23291147208914),.UNSPECIFIED.)
CURVE()
GEOMETRIC_REPRESENTATION_ITEM()
RATIONAL_B_SPLINE_CURVE((1.,1.03697101451251,1.))
REPRESENTATION_ITEM('')
);
#527=(
BOUNDED_CURVE()
B_SPLINE_CURVE(2,(#1872,#1873,#1874),.UNSPECIFIED.,.F.,.F.)
B_SPLINE_CURVE_WITH_KNOTS((3,3),(0.,0.130361775962698),.UNSPECIFIED.)
CURVE()
GEOMETRIC_REPRESENTATION_ITEM()
RATIONAL_B_SPLINE_CURVE((1.,1.00000991101808,1.))
REPRESENTATION_ITEM('')
);
#528=(
BOUNDED_CURVE()
B_SPLINE_CURVE(2,(#1890,#1891,#1892),.UNSPECIFIED.,.F.,.F.)
B_SPLINE_CURVE_WITH_KNOTS((3,3),(0.,0.129440036409702),.UNSPECIFIED.)
CURVE()
GEOMETRIC_REPRESENTATION_ITEM()
RATIONAL_B_SPLINE_CURVE((1.,1.00001940756973,1.00002022633314))
REPRESENTATION_ITEM('')
);
#529=(
BOUNDED_CURVE()
B_SPLINE_CURVE(2,(#1897,#1898,#1899),.UNSPECIFIED.,.F.,.F.)
B_SPLINE_CURVE_WITH_KNOTS((3,3),(0.,0.130361775962698),.UNSPECIFIED.)
CURVE()
GEOMETRIC_REPRESENTATION_ITEM()
RATIONAL_B_SPLINE_CURVE((1.,1.0000099109848,1.))
REPRESENTATION_ITEM('')
);
#530=(
BOUNDED_CURVE()
B_SPLINE_CURVE(2,(#1911,#1912,#1913),.UNSPECIFIED.,.F.,.F.)
B_SPLINE_CURVE_WITH_KNOTS((3,3),(0.,0.130308771934974),.UNSPECIFIED.)
CURVE()
GEOMETRIC_REPRESENTATION_ITEM()
RATIONAL_B_SPLINE_CURVE((1.,1.00000929437171,1.))
REPRESENTATION_ITEM('')
);
#531=VERTEX_POINT('',#1781);
#532=VERTEX_POINT('',#1782);
#533=VERTEX_POINT('',#1786);
#534=VERTEX_POINT('',#1788);
#535=VERTEX_POINT('',#1792);
#536=VERTEX_POINT('',#1794);
#537=VERTEX_POINT('',#1800);
#538=VERTEX_POINT('',#1804);
#539=VERTEX_POINT('',#1805);
#540=VERTEX_POINT('',#1809);
#541=VERTEX_POINT('',#1811);
#542=VERTEX_POINT('',#1815);
#543=VERTEX_POINT('',#1817);
#544=VERTEX_POINT('',#1823);
#545=VERTEX_POINT('',#1827);
#546=VERTEX_POINT('',#1831);
#547=VERTEX_POINT('',#1832);
#548=VERTEX_POINT('',#1834);
#549=VERTEX_POINT('',#1836);
#550=VERTEX_POINT('',#1838);
#551=VERTEX_POINT('',#1840);
#552=VERTEX_POINT('',#1842);
#553=VERTEX_POINT('',#1846);
#554=VERTEX_POINT('',#1848);
#555=VERTEX_POINT('',#1852);
#556=VERTEX_POINT('',#1854);
#557=VERTEX_POINT('',#1856);
#558=VERTEX_POINT('',#1858);
#559=VERTEX_POINT('',#1860);
#560=VERTEX_POINT('',#1864);
#561=VERTEX_POINT('',#1866);
#562=VERTEX_POINT('',#1868);
#563=VERTEX_POINT('',#1870);
#564=VERTEX_POINT('',#1876);
#565=VERTEX_POINT('',#1878);
#566=VERTEX_POINT('',#1881);
#567=VERTEX_POINT('',#1885);
#568=VERTEX_POINT('',#1888);
#569=VERTEX_POINT('',#1894);
#570=VERTEX_POINT('',#1896);
#571=VERTEX_POINT('',#1900);
#572=VERTEX_POINT('',#1904);
#573=VERTEX_POINT('',#1906);
#574=VERTEX_POINT('',#1908);
#575=VERTEX_POINT('',#1910);
#576=VERTEX_POINT('',#1919);
#577=VERTEX_POINT('',#1923);
#578=VERTEX_POINT('',#1924);
#579=VERTEX_POINT('',#1926);
#580=VERTEX_POINT('',#1928);
#581=VERTEX_POINT('',#1930);
#582=VERTEX_POINT('',#1932);
#583=VERTEX_POINT('',#1934);
#584=VERTEX_POINT('',#1938);
#585=VERTEX_POINT('',#1939);
#586=VERTEX_POINT('',#1941);
#587=VERTEX_POINT('',#1943);
#588=VERTEX_POINT('',#1945);
#589=VERTEX_POINT('',#1947);
#590=VERTEX_POINT('',#1949);
#591=VERTEX_POINT('',#1951);
#592=VERTEX_POINT('',#1954);
#593=VERTEX_POINT('',#1972);
#594=VERTEX_POINT('',#1976);
#595=VERTEX_POINT('',#1980);
#596=VERTEX_POINT('',#1983);
#597=VERTEX_POINT('',#1985);
#598=VERTEX_POINT('',#1987);
#599=VERTEX_POINT('',#1991);
#600=VERTEX_POINT('',#1994);
#601=VERTEX_POINT('',#2002);
#602=VERTEX_POINT('',#2005);
#603=VERTEX_POINT('',#2009);
#604=VERTEX_POINT('',#2013);
#605=VERTEX_POINT('',#2020);
#606=VERTEX_POINT('',#2025);
#607=VERTEX_POINT('',#2031);
#608=VERTEX_POINT('',#2032);
#609=VERTEX_POINT('',#2034);
#610=VERTEX_POINT('',#2036);
#611=VERTEX_POINT('',#2038);
#612=VERTEX_POINT('',#2040);
#613=VERTEX_POINT('',#2042);
#614=VERTEX_POINT('',#2046);
#615=VERTEX_POINT('',#2047);
#616=VERTEX_POINT('',#2049);
#617=VERTEX_POINT('',#2051);
#618=VERTEX_POINT('',#2053);
#619=VERTEX_POINT('',#2055);
#620=VERTEX_POINT('',#2057);
#621=VERTEX_POINT('',#2059);
#622=VERTEX_POINT('',#2062);
#623=VERTEX_POINT('',#2079);
#624=VERTEX_POINT('',#2083);
#625=VERTEX_POINT('',#2087);
#626=VERTEX_POINT('',#2090);
#627=VERTEX_POINT('',#2092);
#628=VERTEX_POINT('',#2094);
#629=VERTEX_POINT('',#2098);
#630=VERTEX_POINT('',#2101);
#631=VERTEX_POINT('',#2109);
#632=VERTEX_POINT('',#2112);
#633=VERTEX_POINT('',#2116);
#634=VERTEX_POINT('',#2120);
#635=VERTEX_POINT('',#2131);
#636=VERTEX_POINT('',#2133);
#637=VERTEX_POINT('',#2137);
#638=VERTEX_POINT('',#2139);
#639=VERTEX_POINT('',#2143);
#640=VERTEX_POINT('',#2145);
#641=VERTEX_POINT('',#2149);
#642=VERTEX_POINT('',#2151);
#643=EDGE_CURVE('',#531,#532,#521,.F.);
#644=EDGE_CURVE('',#531,#533,#465,.T.);
#645=EDGE_CURVE('',#533,#534,#522,.T.);
#646=EDGE_CURVE('',#534,#535,#466,.T.);
#647=EDGE_CURVE('',#535,#536,#523,.T.);
#648=EDGE_CURVE('',#536,#532,#467,.T.);
#649=EDGE_CURVE('',#537,#536,#40,.T.);
#650=EDGE_CURVE('',#532,#537,#41,.T.);
#651=EDGE_CURVE('',#538,#539,#524,.F.);
#652=EDGE_CURVE('',#538,#540,#468,.T.);
#653=EDGE_CURVE('',#540,#541,#525,.T.);
#654=EDGE_CURVE('',#541,#542,#469,.T.);
#655=EDGE_CURVE('',#542,#543,#526,.T.);
#656=EDGE_CURVE('',#543,#539,#470,.T.);
#657=EDGE_CURVE('',#544,#543,#42,.T.);
#658=EDGE_CURVE('',#539,#544,#43,.T.);
#659=EDGE_CURVE('',#545,#538,#44,.T.);
#660=EDGE_CURVE('',#545,#540,#45,.T.);
#661=EDGE_CURVE('',#546,#547,#46,.T.);
#662=EDGE_CURVE('',#548,#546,#47,.T.);
#663=EDGE_CURVE('',#549,#548,#48,.T.);
#664=EDGE_CURVE('',#550,#549,#49,.T.);
#665=EDGE_CURVE('',#551,#550,#50,.T.);
#666=EDGE_CURVE('',#552,#551,#51,.T.);
#667=EDGE_CURVE('',#547,#552,#52,.T.);
#668=EDGE_CURVE('',#546,#553,#53,.T.);
#669=EDGE_CURVE('',#553,#554,#54,.T.);
#670=EDGE_CURVE('',#548,#554,#55,.T.);
#671=EDGE_CURVE('',#555,#553,#56,.T.);
#672=EDGE_CURVE('',#556,#555,#57,.T.);
#673=EDGE_CURVE('',#557,#556,#58,.T.);
#674=EDGE_CURVE('',#558,#557,#59,.T.);
#675=EDGE_CURVE('',#559,#558,#60,.T.);
#676=EDGE_CURVE('',#554,#559,#61,.T.);
#677=EDGE_CURVE('',#534,#560,#62,.T.);
#678=EDGE_CURVE('',#561,#533,#63,.T.);
#679=EDGE_CURVE('',#561,#562,#64,.T.);
#680=EDGE_CURVE('',#562,#563,#65,.T.);
#681=EDGE_CURVE('',#560,#563,#527,.T.);
#682=EDGE_CURVE('',#564,#560,#471,.T.);
#683=EDGE_CURVE('',#564,#565,#66,.T.);
#684=EDGE_CURVE('',#565,#565,#472,.T.);
#685=EDGE_CURVE('',#566,#564,#473,.T.);
#686=EDGE_CURVE('',#535,#566,#67,.T.);
#687=EDGE_CURVE('',#567,#567,#474,.T.);
#688=EDGE_CURVE('',#567,#564,#68,.T.);
#689=EDGE_CURVE('',#563,#568,#475,.T.);
#690=EDGE_CURVE('',#566,#568,#528,.T.);
#691=EDGE_CURVE('',#569,#542,#69,.T.);
#692=EDGE_CURVE('',#570,#569,#529,.T.);
#693=EDGE_CURVE('',#571,#570,#70,.T.);
#694=EDGE_CURVE('',#571,#544,#71,.T.);
#695=EDGE_CURVE('',#572,#572,#476,.T.);
#696=EDGE_CURVE('',#572,#573,#72,.T.);
#697=EDGE_CURVE('',#573,#574,#477,.T.);
#698=EDGE_CURVE('',#574,#575,#530,.T.);
#699=EDGE_CURVE('',#575,#570,#478,.T.);
#700=EDGE_CURVE('',#569,#573,#479,.T.);
#701=EDGE_CURVE('',#561,#531,#73,.T.);
#702=EDGE_CURVE('',#576,#568,#74,.T.);
#703=EDGE_CURVE('',#562,#576,#75,.T.);
#704=EDGE_CURVE('',#577,#578,#480,.T.);
#705=EDGE_CURVE('',#579,#577,#481,.F.);
#706=EDGE_CURVE('',#580,#579,#76,.T.);
#707=EDGE_CURVE('',#581,#580,#77,.T.);
#708=EDGE_CURVE('',#582,#581,#78,.T.);
#709=EDGE_CURVE('',#582,#583,#79,.T.);
#710=EDGE_CURVE('',#578,#583,#482,.F.);
#711=EDGE_CURVE('',#584,#585,#483,.F.);
#712=EDGE_CURVE('',#584,#586,#80,.T.);
#713=EDGE_CURVE('',#587,#586,#81,.T.);
#714=EDGE_CURVE('',#588,#587,#82,.T.);
#715=EDGE_CURVE('',#588,#589,#83,.T.);
#716=EDGE_CURVE('',#590,#589,#484,.F.);
#717=EDGE_CURVE('',#591,#590,#485,.T.);
#718=EDGE_CURVE('',#585,#591,#486,.T.);
#719=EDGE_CURVE('',#592,#592,#487,.T.);
#720=EDGE_CURVE('',#537,#576,#84,.T.);
#721=EDGE_CURVE('',#559,#587,#85,.T.);
#722=EDGE_CURVE('',#586,#582,#86,.T.);
#723=EDGE_CURVE('',#581,#549,#87,.T.);
#724=EDGE_CURVE('',#589,#579,#88,.T.);
#725=EDGE_CURVE('',#580,#588,#89,.T.);
#726=EDGE_CURVE('',#583,#584,#90,.T.);
#727=EDGE_CURVE('',#585,#578,#91,.T.);
#728=EDGE_CURVE('',#577,#590,#92,.T.);
#729=EDGE_CURVE('',#593,#593,#488,.T.);
#730=EDGE_CURVE('',#593,#591,#93,.T.);
#731=EDGE_CURVE('',#594,#594,#489,.T.);
#732=EDGE_CURVE('',#594,#593,#94,.T.);
#733=EDGE_CURVE('',#595,#595,#490,.T.);
#734=EDGE_CURVE('',#596,#596,#491,.T.);
#735=EDGE_CURVE('',#596,#597,#95,.T.);
#736=EDGE_CURVE('',#597,#598,#492,.T.);
#737=EDGE_CURVE('',#598,#597,#493,.T.);
#738=EDGE_CURVE('',#599,#599,#494,.T.);
#739=EDGE_CURVE('',#598,#600,#96,.T.);
#740=EDGE_CURVE('',#600,#600,#495,.T.);
#741=EDGE_CURVE('',#599,#592,#97,.T.);
#742=EDGE_CURVE('',#567,#595,#98,.T.);
#743=EDGE_CURVE('',#601,#601,#496,.T.);
#744=EDGE_CURVE('',#601,#602,#99,.T.);
#745=EDGE_CURVE('',#602,#602,#497,.T.);
#746=EDGE_CURVE('',#602,#603,#100,.T.);
#747=EDGE_CURVE('',#603,#603,#498,.T.);
#748=EDGE_CURVE('',#604,#604,#499,.T.);
#749=EDGE_CURVE('',#565,#604,#101,.T.);
#750=EDGE_CURVE('',#587,#581,#102,.T.);
#751=EDGE_CURVE('',#605,#575,#103,.T.);
#752=EDGE_CURVE('',#605,#571,#104,.T.);
#753=EDGE_CURVE('',#574,#541,#105,.T.);
#754=EDGE_CURVE('',#573,#606,#106,.T.);
#755=EDGE_CURVE('',#606,#606,#500,.T.);
#756=EDGE_CURVE('',#545,#605,#107,.T.);
#757=EDGE_CURVE('',#607,#608,#501,.T.);
#758=EDGE_CURVE('',#609,#607,#502,.F.);
#759=EDGE_CURVE('',#610,#609,#108,.T.);
#760=EDGE_CURVE('',#611,#610,#109,.T.);
#761=EDGE_CURVE('',#612,#611,#110,.T.);
#762=EDGE_CURVE('',#612,#613,#111,.T.);
#763=EDGE_CURVE('',#608,#613,#503,.F.);
#764=EDGE_CURVE('',#614,#615,#504,.F.);
#765=EDGE_CURVE('',#614,#616,#112,.T.);
#766=EDGE_CURVE('',#617,#616,#113,.T.);
#767=EDGE_CURVE('',#618,#617,#114,.T.);
#768=EDGE_CURVE('',#618,#619,#115,.T.);
#769=EDGE_CURVE('',#620,#619,#505,.F.);
#770=EDGE_CURVE('',#621,#620,#506,.T.);
#771=EDGE_CURVE('',#615,#621,#507,.T.);
#772=EDGE_CURVE('',#622,#622,#508,.T.);
#773=EDGE_CURVE('',#552,#611,#116,.T.);
#774=EDGE_CURVE('',#610,#618,#117,.T.);
#775=EDGE_CURVE('',#617,#556,#118,.T.);
#776=EDGE_CURVE('',#555,#547,#119,.T.);
#777=EDGE_CURVE('',#619,#609,#120,.T.);
#778=EDGE_CURVE('',#613,#614,#121,.T.);
#779=EDGE_CURVE('',#615,#608,#122,.T.);
#780=EDGE_CURVE('',#616,#612,#123,.T.);
#781=EDGE_CURVE('',#607,#620,#124,.T.);
#782=EDGE_CURVE('',#623,#623,#509,.T.);
#783=EDGE_CURVE('',#623,#621,#125,.T.);
#784=EDGE_CURVE('',#624,#624,#510,.T.);
#785=EDGE_CURVE('',#624,#623,#126,.T.);
#786=EDGE_CURVE('',#625,#625,#511,.T.);
#787=EDGE_CURVE('',#626,#626,#512,.T.);
#788=EDGE_CURVE('',#626,#627,#127,.T.);
#789=EDGE_CURVE('',#627,#628,#513,.T.);
#790=EDGE_CURVE('',#628,#627,#514,.T.);
#791=EDGE_CURVE('',#629,#629,#515,.T.);
#792=EDGE_CURVE('',#628,#630,#128,.T.);
#793=EDGE_CURVE('',#630,#630,#516,.T.);
#794=EDGE_CURVE('',#629,#622,#129,.T.);
#795=EDGE_CURVE('',#572,#625,#130,.T.);
#796=EDGE_CURVE('',#631,#631,#517,.T.);
#797=EDGE_CURVE('',#631,#632,#131,.T.);
#798=EDGE_CURVE('',#632,#632,#518,.T.);
#799=EDGE_CURVE('',#632,#633,#132,.T.);
#800=EDGE_CURVE('',#633,#633,#519,.T.);
#801=EDGE_CURVE('',#634,#634,#520,.T.);
#802=EDGE_CURVE('',#606,#634,#133,.T.);
#803=EDGE_CURVE('',#611,#617,#134,.T.);
#804=EDGE_CURVE('',#557,#551,#135,.T.);
#805=EDGE_CURVE('',#550,#558,#136,.T.);
#806=EDGE_CURVE('',#635,#561,#137,.T.);
#807=EDGE_CURVE('',#635,#636,#138,.T.);
#808=EDGE_CURVE('',#562,#636,#139,.T.);
#809=EDGE_CURVE('',#544,#637,#140,.T.);
#810=EDGE_CURVE('',#638,#571,#141,.T.);
#811=EDGE_CURVE('',#637,#638,#142,.T.);
#812=EDGE_CURVE('',#639,#545,#143,.T.);
#813=EDGE_CURVE('',#640,#639,#144,.T.);
#814=EDGE_CURVE('',#605,#640,#145,.T.);
#815=EDGE_CURVE('',#641,#576,#146,.T.);
#816=EDGE_CURVE('',#642,#641,#147,.T.);
#817=EDGE_CURVE('',#537,#642,#148,.T.);
#818=EDGE_CURVE('',#637,#635,#149,.T.);
#819=EDGE_CURVE('',#636,#638,#150,.T.);
#820=EDGE_CURVE('',#640,#641,#151,.T.);
#821=EDGE_CURVE('',#639,#642,#152,.T.);
#822=ORIENTED_EDGE('',*,*,#643,.F.);
#823=ORIENTED_EDGE('',*,*,#644,.T.);
#824=ORIENTED_EDGE('',*,*,#645,.T.);
#825=ORIENTED_EDGE('',*,*,#646,.T.);
#826=ORIENTED_EDGE('',*,*,#647,.T.);
#827=ORIENTED_EDGE('',*,*,#648,.T.);
#828=ORIENTED_EDGE('',*,*,#648,.F.);
#829=ORIENTED_EDGE('',*,*,#649,.F.);
#830=ORIENTED_EDGE('',*,*,#650,.F.);
#831=ORIENTED_EDGE('',*,*,#651,.F.);
#832=ORIENTED_EDGE('',*,*,#652,.T.);
#833=ORIENTED_EDGE('',*,*,#653,.T.);
#834=ORIENTED_EDGE('',*,*,#654,.T.);
#835=ORIENTED_EDGE('',*,*,#655,.T.);
#836=ORIENTED_EDGE('',*,*,#656,.T.);
#837=ORIENTED_EDGE('',*,*,#656,.F.);
#838=ORIENTED_EDGE('',*,*,#657,.F.);
#839=ORIENTED_EDGE('',*,*,#658,.F.);
#840=ORIENTED_EDGE('',*,*,#652,.F.);
#841=ORIENTED_EDGE('',*,*,#659,.F.);
#842=ORIENTED_EDGE('',*,*,#660,.T.);
#843=ORIENTED_EDGE('',*,*,#661,.F.);
#844=ORIENTED_EDGE('',*,*,#662,.F.);
#845=ORIENTED_EDGE('',*,*,#663,.F.);
#846=ORIENTED_EDGE('',*,*,#664,.F.);
#847=ORIENTED_EDGE('',*,*,#665,.F.);
#848=ORIENTED_EDGE('',*,*,#666,.F.);
#849=ORIENTED_EDGE('',*,*,#667,.F.);
#850=ORIENTED_EDGE('',*,*,#668,.T.);
#851=ORIENTED_EDGE('',*,*,#669,.T.);
#852=ORIENTED_EDGE('',*,*,#670,.F.);
#853=ORIENTED_EDGE('',*,*,#662,.T.);
#854=ORIENTED_EDGE('',*,*,#671,.F.);
#855=ORIENTED_EDGE('',*,*,#672,.F.);
#856=ORIENTED_EDGE('',*,*,#673,.F.);
#857=ORIENTED_EDGE('',*,*,#674,.F.);
#858=ORIENTED_EDGE('',*,*,#675,.F.);
#859=ORIENTED_EDGE('',*,*,#676,.F.);
#860=ORIENTED_EDGE('',*,*,#669,.F.);
#861=ORIENTED_EDGE('',*,*,#677,.F.);
#862=ORIENTED_EDGE('',*,*,#645,.F.);
#863=ORIENTED_EDGE('',*,*,#678,.F.);
#864=ORIENTED_EDGE('',*,*,#679,.T.);
#865=ORIENTED_EDGE('',*,*,#680,.T.);
#866=ORIENTED_EDGE('',*,*,#681,.F.);
#867=ORIENTED_EDGE('',*,*,#677,.T.);
#868=ORIENTED_EDGE('',*,*,#682,.F.);
#869=ORIENTED_EDGE('',*,*,#683,.T.);
#870=ORIENTED_EDGE('',*,*,#684,.F.);
#871=ORIENTED_EDGE('',*,*,#683,.F.);
#872=ORIENTED_EDGE('',*,*,#685,.F.);
#873=ORIENTED_EDGE('',*,*,#686,.F.);
#874=ORIENTED_EDGE('',*,*,#646,.F.);
#875=ORIENTED_EDGE('',*,*,#687,.F.);
#876=ORIENTED_EDGE('',*,*,#688,.T.);
#877=ORIENTED_EDGE('',*,*,#682,.T.);
#878=ORIENTED_EDGE('',*,*,#681,.T.);
#879=ORIENTED_EDGE('',*,*,#689,.T.);
#880=ORIENTED_EDGE('',*,*,#690,.F.);
#881=ORIENTED_EDGE('',*,*,#685,.T.);
#882=ORIENTED_EDGE('',*,*,#688,.F.);
#883=ORIENTED_EDGE('',*,*,#691,.F.);
#884=ORIENTED_EDGE('',*,*,#692,.F.);
#885=ORIENTED_EDGE('',*,*,#693,.F.);
#886=ORIENTED_EDGE('',*,*,#694,.T.);
#887=ORIENTED_EDGE('',*,*,#657,.T.);
#888=ORIENTED_EDGE('',*,*,#655,.F.);
#889=ORIENTED_EDGE('',*,*,#695,.F.);
#890=ORIENTED_EDGE('',*,*,#696,.T.);
#891=ORIENTED_EDGE('',*,*,#697,.T.);
#892=ORIENTED_EDGE('',*,*,#698,.T.);
#893=ORIENTED_EDGE('',*,*,#699,.T.);
#894=ORIENTED_EDGE('',*,*,#692,.T.);
#895=ORIENTED_EDGE('',*,*,#700,.T.);
#896=ORIENTED_EDGE('',*,*,#696,.F.);
#897=ORIENTED_EDGE('',*,*,#644,.F.);
#898=ORIENTED_EDGE('',*,*,#701,.F.);
#899=ORIENTED_EDGE('',*,*,#678,.T.);
#900=ORIENTED_EDGE('',*,*,#702,.T.);
#901=ORIENTED_EDGE('',*,*,#689,.F.);
#902=ORIENTED_EDGE('',*,*,#680,.F.);
#903=ORIENTED_EDGE('',*,*,#703,.T.);
#904=ORIENTED_EDGE('',*,*,#704,.F.);
#905=ORIENTED_EDGE('',*,*,#705,.F.);
#906=ORIENTED_EDGE('',*,*,#706,.F.);
#907=ORIENTED_EDGE('',*,*,#707,.F.);
#908=ORIENTED_EDGE('',*,*,#708,.F.);
#909=ORIENTED_EDGE('',*,*,#709,.T.);
#910=ORIENTED_EDGE('',*,*,#710,.F.);
#911=ORIENTED_EDGE('',*,*,#711,.F.);
#912=ORIENTED_EDGE('',*,*,#712,.T.);
#913=ORIENTED_EDGE('',*,*,#713,.F.);
#914=ORIENTED_EDGE('',*,*,#714,.F.);
#915=ORIENTED_EDGE('',*,*,#715,.T.);
#916=ORIENTED_EDGE('',*,*,#716,.F.);
#917=ORIENTED_EDGE('',*,*,#717,.F.);
#918=ORIENTED_EDGE('',*,*,#718,.F.);
#919=ORIENTED_EDGE('',*,*,#719,.F.);
#920=ORIENTED_EDGE('',*,*,#649,.T.);
#921=ORIENTED_EDGE('',*,*,#647,.F.);
#922=ORIENTED_EDGE('',*,*,#686,.T.);
#923=ORIENTED_EDGE('',*,*,#690,.T.);
#924=ORIENTED_EDGE('',*,*,#702,.F.);
#925=ORIENTED_EDGE('',*,*,#720,.F.);
#926=ORIENTED_EDGE('',*,*,#721,.T.);
#927=ORIENTED_EDGE('',*,*,#713,.T.);
#928=ORIENTED_EDGE('',*,*,#722,.T.);
#929=ORIENTED_EDGE('',*,*,#708,.T.);
#930=ORIENTED_EDGE('',*,*,#723,.T.);
#931=ORIENTED_EDGE('',*,*,#663,.T.);
#932=ORIENTED_EDGE('',*,*,#670,.T.);
#933=ORIENTED_EDGE('',*,*,#676,.T.);
#934=ORIENTED_EDGE('',*,*,#706,.T.);
#935=ORIENTED_EDGE('',*,*,#724,.F.);
#936=ORIENTED_EDGE('',*,*,#715,.F.);
#937=ORIENTED_EDGE('',*,*,#725,.F.);
#938=ORIENTED_EDGE('',*,*,#710,.T.);
#939=ORIENTED_EDGE('',*,*,#726,.T.);
#940=ORIENTED_EDGE('',*,*,#711,.T.);
#941=ORIENTED_EDGE('',*,*,#727,.T.);
#942=ORIENTED_EDGE('',*,*,#712,.F.);
#943=ORIENTED_EDGE('',*,*,#726,.F.);
#944=ORIENTED_EDGE('',*,*,#709,.F.);
#945=ORIENTED_EDGE('',*,*,#722,.F.);
#946=ORIENTED_EDGE('',*,*,#705,.T.);
#947=ORIENTED_EDGE('',*,*,#728,.T.);
#948=ORIENTED_EDGE('',*,*,#716,.T.);
#949=ORIENTED_EDGE('',*,*,#724,.T.);
#950=ORIENTED_EDGE('',*,*,#729,.F.);
#951=ORIENTED_EDGE('',*,*,#730,.T.);
#952=ORIENTED_EDGE('',*,*,#717,.T.);
#953=ORIENTED_EDGE('',*,*,#728,.F.);
#954=ORIENTED_EDGE('',*,*,#704,.T.);
#955=ORIENTED_EDGE('',*,*,#727,.F.);
#956=ORIENTED_EDGE('',*,*,#718,.T.);
#957=ORIENTED_EDGE('',*,*,#730,.F.);
#958=ORIENTED_EDGE('',*,*,#731,.T.);
#959=ORIENTED_EDGE('',*,*,#732,.T.);
#960=ORIENTED_EDGE('',*,*,#729,.T.);
#961=ORIENTED_EDGE('',*,*,#732,.F.);
#962=ORIENTED_EDGE('',*,*,#733,.F.);
#963=ORIENTED_EDGE('',*,*,#731,.F.);
#964=ORIENTED_EDGE('',*,*,#734,.T.);
#965=ORIENTED_EDGE('',*,*,#735,.T.);
#966=ORIENTED_EDGE('',*,*,#736,.T.);
#967=ORIENTED_EDGE('',*,*,#737,.T.);
#968=ORIENTED_EDGE('',*,*,#735,.F.);
#969=ORIENTED_EDGE('',*,*,#738,.T.);
#970=ORIENTED_EDGE('',*,*,#734,.F.);
#971=ORIENTED_EDGE('',*,*,#736,.F.);
#972=ORIENTED_EDGE('',*,*,#737,.F.);
#973=ORIENTED_EDGE('',*,*,#739,.T.);
#974=ORIENTED_EDGE('',*,*,#740,.T.);
#975=ORIENTED_EDGE('',*,*,#739,.F.);
#976=ORIENTED_EDGE('',*,*,#738,.F.);
#977=ORIENTED_EDGE('',*,*,#741,.T.);
#978=ORIENTED_EDGE('',*,*,#719,.T.);
#979=ORIENTED_EDGE('',*,*,#741,.F.);
#980=ORIENTED_EDGE('',*,*,#687,.T.);
#981=ORIENTED_EDGE('',*,*,#742,.T.);
#982=ORIENTED_EDGE('',*,*,#733,.T.);
#983=ORIENTED_EDGE('',*,*,#742,.F.);
#984=ORIENTED_EDGE('',*,*,#743,.F.);
#985=ORIENTED_EDGE('',*,*,#740,.F.);
#986=ORIENTED_EDGE('',*,*,#743,.T.);
#987=ORIENTED_EDGE('',*,*,#744,.T.);
#988=ORIENTED_EDGE('',*,*,#745,.F.);
#989=ORIENTED_EDGE('',*,*,#744,.F.);
#990=ORIENTED_EDGE('',*,*,#745,.T.);
#991=ORIENTED_EDGE('',*,*,#746,.T.);
#992=ORIENTED_EDGE('',*,*,#747,.T.);
#993=ORIENTED_EDGE('',*,*,#746,.F.);
#994=ORIENTED_EDGE('',*,*,#748,.F.);
#995=ORIENTED_EDGE('',*,*,#747,.F.);
#996=ORIENTED_EDGE('',*,*,#684,.T.);
#997=ORIENTED_EDGE('',*,*,#749,.T.);
#998=ORIENTED_EDGE('',*,*,#748,.T.);
#999=ORIENTED_EDGE('',*,*,#749,.F.);
#1000=ORIENTED_EDGE('',*,*,#714,.T.);
#1001=ORIENTED_EDGE('',*,*,#750,.T.);
#1002=ORIENTED_EDGE('',*,*,#707,.T.);
#1003=ORIENTED_EDGE('',*,*,#725,.T.);
#1004=ORIENTED_EDGE('',*,*,#699,.F.);
#1005=ORIENTED_EDGE('',*,*,#751,.F.);
#1006=ORIENTED_EDGE('',*,*,#752,.T.);
#1007=ORIENTED_EDGE('',*,*,#693,.T.);
#1008=ORIENTED_EDGE('',*,*,#753,.F.);
#1009=ORIENTED_EDGE('',*,*,#697,.F.);
#1010=ORIENTED_EDGE('',*,*,#754,.T.);
#1011=ORIENTED_EDGE('',*,*,#755,.F.);
#1012=ORIENTED_EDGE('',*,*,#754,.F.);
#1013=ORIENTED_EDGE('',*,*,#700,.F.);
#1014=ORIENTED_EDGE('',*,*,#691,.T.);
#1015=ORIENTED_EDGE('',*,*,#654,.F.);
#1016=ORIENTED_EDGE('',*,*,#698,.F.);
#1017=ORIENTED_EDGE('',*,*,#753,.T.);
#1018=ORIENTED_EDGE('',*,*,#653,.F.);
#1019=ORIENTED_EDGE('',*,*,#660,.F.);
#1020=ORIENTED_EDGE('',*,*,#756,.T.);
#1021=ORIENTED_EDGE('',*,*,#751,.T.);
#1022=ORIENTED_EDGE('',*,*,#757,.F.);
#1023=ORIENTED_EDGE('',*,*,#758,.F.);
#1024=ORIENTED_EDGE('',*,*,#759,.F.);
#1025=ORIENTED_EDGE('',*,*,#760,.F.);
#1026=ORIENTED_EDGE('',*,*,#761,.F.);
#1027=ORIENTED_EDGE('',*,*,#762,.T.);
#1028=ORIENTED_EDGE('',*,*,#763,.F.);
#1029=ORIENTED_EDGE('',*,*,#764,.F.);
#1030=ORIENTED_EDGE('',*,*,#765,.T.);
#1031=ORIENTED_EDGE('',*,*,#766,.F.);
#1032=ORIENTED_EDGE('',*,*,#767,.F.);
#1033=ORIENTED_EDGE('',*,*,#768,.T.);
#1034=ORIENTED_EDGE('',*,*,#769,.F.);
#1035=ORIENTED_EDGE('',*,*,#770,.F.);
#1036=ORIENTED_EDGE('',*,*,#771,.F.);
#1037=ORIENTED_EDGE('',*,*,#772,.F.);
#1038=ORIENTED_EDGE('',*,*,#773,.T.);
#1039=ORIENTED_EDGE('',*,*,#760,.T.);
#1040=ORIENTED_EDGE('',*,*,#774,.T.);
#1041=ORIENTED_EDGE('',*,*,#767,.T.);
#1042=ORIENTED_EDGE('',*,*,#775,.T.);
#1043=ORIENTED_EDGE('',*,*,#672,.T.);
#1044=ORIENTED_EDGE('',*,*,#776,.T.);
#1045=ORIENTED_EDGE('',*,*,#667,.T.);
#1046=ORIENTED_EDGE('',*,*,#759,.T.);
#1047=ORIENTED_EDGE('',*,*,#777,.F.);
#1048=ORIENTED_EDGE('',*,*,#768,.F.);
#1049=ORIENTED_EDGE('',*,*,#774,.F.);
#1050=ORIENTED_EDGE('',*,*,#763,.T.);
#1051=ORIENTED_EDGE('',*,*,#778,.T.);
#1052=ORIENTED_EDGE('',*,*,#764,.T.);
#1053=ORIENTED_EDGE('',*,*,#779,.T.);
#1054=ORIENTED_EDGE('',*,*,#765,.F.);
#1055=ORIENTED_EDGE('',*,*,#778,.F.);
#1056=ORIENTED_EDGE('',*,*,#762,.F.);
#1057=ORIENTED_EDGE('',*,*,#780,.F.);
#1058=ORIENTED_EDGE('',*,*,#758,.T.);
#1059=ORIENTED_EDGE('',*,*,#781,.T.);
#1060=ORIENTED_EDGE('',*,*,#769,.T.);
#1061=ORIENTED_EDGE('',*,*,#777,.T.);
#1062=ORIENTED_EDGE('',*,*,#782,.F.);
#1063=ORIENTED_EDGE('',*,*,#783,.T.);
#1064=ORIENTED_EDGE('',*,*,#770,.T.);
#1065=ORIENTED_EDGE('',*,*,#781,.F.);
#1066=ORIENTED_EDGE('',*,*,#757,.T.);
#1067=ORIENTED_EDGE('',*,*,#779,.F.);
#1068=ORIENTED_EDGE('',*,*,#771,.T.);
#1069=ORIENTED_EDGE('',*,*,#783,.F.);
#1070=ORIENTED_EDGE('',*,*,#784,.T.);
#1071=ORIENTED_EDGE('',*,*,#785,.T.);
#1072=ORIENTED_EDGE('',*,*,#782,.T.);
#1073=ORIENTED_EDGE('',*,*,#785,.F.);
#1074=ORIENTED_EDGE('',*,*,#786,.F.);
#1075=ORIENTED_EDGE('',*,*,#784,.F.);
#1076=ORIENTED_EDGE('',*,*,#787,.T.);
#1077=ORIENTED_EDGE('',*,*,#788,.T.);
#1078=ORIENTED_EDGE('',*,*,#789,.T.);
#1079=ORIENTED_EDGE('',*,*,#790,.T.);
#1080=ORIENTED_EDGE('',*,*,#788,.F.);
#1081=ORIENTED_EDGE('',*,*,#791,.T.);
#1082=ORIENTED_EDGE('',*,*,#787,.F.);
#1083=ORIENTED_EDGE('',*,*,#789,.F.);
#1084=ORIENTED_EDGE('',*,*,#790,.F.);
#1085=ORIENTED_EDGE('',*,*,#792,.T.);
#1086=ORIENTED_EDGE('',*,*,#793,.T.);
#1087=ORIENTED_EDGE('',*,*,#792,.F.);
#1088=ORIENTED_EDGE('',*,*,#791,.F.);
#1089=ORIENTED_EDGE('',*,*,#794,.T.);
#1090=ORIENTED_EDGE('',*,*,#772,.T.);
#1091=ORIENTED_EDGE('',*,*,#794,.F.);
#1092=ORIENTED_EDGE('',*,*,#695,.T.);
#1093=ORIENTED_EDGE('',*,*,#795,.T.);
#1094=ORIENTED_EDGE('',*,*,#786,.T.);
#1095=ORIENTED_EDGE('',*,*,#795,.F.);
#1096=ORIENTED_EDGE('',*,*,#796,.F.);
#1097=ORIENTED_EDGE('',*,*,#793,.F.);
#1098=ORIENTED_EDGE('',*,*,#796,.T.);
#1099=ORIENTED_EDGE('',*,*,#797,.T.);
#1100=ORIENTED_EDGE('',*,*,#798,.F.);
#1101=ORIENTED_EDGE('',*,*,#797,.F.);
#1102=ORIENTED_EDGE('',*,*,#798,.T.);
#1103=ORIENTED_EDGE('',*,*,#799,.T.);
#1104=ORIENTED_EDGE('',*,*,#800,.T.);
#1105=ORIENTED_EDGE('',*,*,#799,.F.);
#1106=ORIENTED_EDGE('',*,*,#801,.F.);
#1107=ORIENTED_EDGE('',*,*,#800,.F.);
#1108=ORIENTED_EDGE('',*,*,#755,.T.);
#1109=ORIENTED_EDGE('',*,*,#802,.T.);
#1110=ORIENTED_EDGE('',*,*,#801,.T.);
#1111=ORIENTED_EDGE('',*,*,#802,.F.);
#1112=ORIENTED_EDGE('',*,*,#661,.T.);
#1113=ORIENTED_EDGE('',*,*,#776,.F.);
#1114=ORIENTED_EDGE('',*,*,#671,.T.);
#1115=ORIENTED_EDGE('',*,*,#668,.F.);
#1116=ORIENTED_EDGE('',*,*,#673,.T.);
#1117=ORIENTED_EDGE('',*,*,#775,.F.);
#1118=ORIENTED_EDGE('',*,*,#803,.F.);
#1119=ORIENTED_EDGE('',*,*,#773,.F.);
#1120=ORIENTED_EDGE('',*,*,#666,.T.);
#1121=ORIENTED_EDGE('',*,*,#804,.F.);
#1122=ORIENTED_EDGE('',*,*,#664,.T.);
#1123=ORIENTED_EDGE('',*,*,#723,.F.);
#1124=ORIENTED_EDGE('',*,*,#750,.F.);
#1125=ORIENTED_EDGE('',*,*,#721,.F.);
#1126=ORIENTED_EDGE('',*,*,#675,.T.);
#1127=ORIENTED_EDGE('',*,*,#805,.F.);
#1128=ORIENTED_EDGE('',*,*,#806,.F.);
#1129=ORIENTED_EDGE('',*,*,#807,.T.);
#1130=ORIENTED_EDGE('',*,*,#808,.F.);
#1131=ORIENTED_EDGE('',*,*,#679,.F.);
#1132=ORIENTED_EDGE('',*,*,#809,.F.);
#1133=ORIENTED_EDGE('',*,*,#694,.F.);
#1134=ORIENTED_EDGE('',*,*,#810,.F.);
#1135=ORIENTED_EDGE('',*,*,#811,.F.);
#1136=ORIENTED_EDGE('',*,*,#812,.F.);
#1137=ORIENTED_EDGE('',*,*,#813,.F.);
#1138=ORIENTED_EDGE('',*,*,#814,.F.);
#1139=ORIENTED_EDGE('',*,*,#756,.F.);
#1140=ORIENTED_EDGE('',*,*,#815,.F.);
#1141=ORIENTED_EDGE('',*,*,#816,.F.);
#1142=ORIENTED_EDGE('',*,*,#817,.F.);
#1143=ORIENTED_EDGE('',*,*,#720,.T.);
#1144=ORIENTED_EDGE('',*,*,#818,.F.);
#1145=ORIENTED_EDGE('',*,*,#811,.T.);
#1146=ORIENTED_EDGE('',*,*,#819,.F.);
#1147=ORIENTED_EDGE('',*,*,#807,.F.);
#1148=ORIENTED_EDGE('',*,*,#761,.T.);
#1149=ORIENTED_EDGE('',*,*,#803,.T.);
#1150=ORIENTED_EDGE('',*,*,#766,.T.);
#1151=ORIENTED_EDGE('',*,*,#780,.T.);
#1152=ORIENTED_EDGE('',*,*,#808,.T.);
#1153=ORIENTED_EDGE('',*,*,#819,.T.);
#1154=ORIENTED_EDGE('',*,*,#810,.T.);
#1155=ORIENTED_EDGE('',*,*,#752,.F.);
#1156=ORIENTED_EDGE('',*,*,#814,.T.);
#1157=ORIENTED_EDGE('',*,*,#820,.T.);
#1158=ORIENTED_EDGE('',*,*,#815,.T.);
#1159=ORIENTED_EDGE('',*,*,#703,.F.);
#1160=ORIENTED_EDGE('',*,*,#816,.T.);
#1161=ORIENTED_EDGE('',*,*,#820,.F.);
#1162=ORIENTED_EDGE('',*,*,#813,.T.);
#1163=ORIENTED_EDGE('',*,*,#821,.T.);
#1164=ORIENTED_EDGE('',*,*,#805,.T.);
#1165=ORIENTED_EDGE('',*,*,#674,.T.);
#1166=ORIENTED_EDGE('',*,*,#804,.T.);
#1167=ORIENTED_EDGE('',*,*,#665,.T.);
#1168=ORIENTED_EDGE('',*,*,#806,.T.);
#1169=ORIENTED_EDGE('',*,*,#701,.T.);
#1170=ORIENTED_EDGE('',*,*,#643,.T.);
#1171=ORIENTED_EDGE('',*,*,#650,.T.);
#1172=ORIENTED_EDGE('',*,*,#817,.T.);
#1173=ORIENTED_EDGE('',*,*,#821,.F.);
#1174=ORIENTED_EDGE('',*,*,#812,.T.);
#1175=ORIENTED_EDGE('',*,*,#659,.T.);
#1176=ORIENTED_EDGE('',*,*,#651,.T.);
#1177=ORIENTED_EDGE('',*,*,#658,.T.);
#1178=ORIENTED_EDGE('',*,*,#809,.T.);
#1179=ORIENTED_EDGE('',*,*,#818,.T.);
#1180=CONICAL_SURFACE('',#1280,21.2859273575944,1.06369782240256);
#1181=CONICAL_SURFACE('',#1285,21.2859273575944,1.06369782240256);
#1182=CONICAL_SURFACE('',#1299,16.3859273575944,0.0775142816307919);
#1183=CONICAL_SURFACE('',#1303,16.3859273575944,0.0775142816307919);
#1184=CONICAL_SURFACE('',#1328,13.4876539045058,0.785398163397451);
#1185=CONICAL_SURFACE('',#1332,9.60000013411045,0.172190814522939);
#1186=CONICAL_SURFACE('',#1341,15.8475428597925,0.824155304212848);
#1187=CONICAL_SURFACE('',#1346,10.2509612099982,0.785398163397449);
#1188=CONICAL_SURFACE('',#1350,15.2859273575944,0.785398163397448);
#1189=CONICAL_SURFACE('',#1373,13.4876539045058,0.785398163397451);
#1190=CONICAL_SURFACE('',#1377,9.60000013411045,0.172190814522939);
#1191=CONICAL_SURFACE('',#1386,15.8475428597925,0.824155304212848);
#1192=CONICAL_SURFACE('',#1391,10.2509612099982,0.785398163397449);
#1193=CONICAL_SURFACE('',#1395,15.2859273575944,0.785398163397448);
#1194=ADVANCED_FACE('',(#310),#1180,.T.);
#1195=ADVANCED_FACE('',(#311),#266,.T.);
#1196=ADVANCED_FACE('',(#312),#1181,.T.);
#1197=ADVANCED_FACE('',(#313),#267,.T.);
#1198=ADVANCED_FACE('',(#314),#268,.T.);
#1199=ADVANCED_FACE('',(#315),#269,.F.);
#1200=ADVANCED_FACE('',(#316),#270,.T.);
#1201=ADVANCED_FACE('',(#317),#271,.F.);
#1202=ADVANCED_FACE('',(#318),#272,.T.);
#1203=ADVANCED_FACE('',(#319),#26,.T.);
#1204=ADVANCED_FACE('',(#320),#1182,.T.);
#1205=ADVANCED_FACE('',(#321),#273,.T.);
#1206=ADVANCED_FACE('',(#322),#1183,.T.);
#1207=ADVANCED_FACE('',(#323),#274,.T.);
#1208=ADVANCED_FACE('',(#324),#275,.T.);
#1209=ADVANCED_FACE('',(#325),#276,.F.);
#1210=ADVANCED_FACE('',(#326,#15),#277,.T.);
#1211=ADVANCED_FACE('',(#327),#278,.T.);
#1212=ADVANCED_FACE('',(#328),#279,.T.);
#1213=ADVANCED_FACE('',(#329),#280,.F.);
#1214=ADVANCED_FACE('',(#330),#27,.T.);
#1215=ADVANCED_FACE('',(#331),#281,.F.);
#1216=ADVANCED_FACE('',(#332),#28,.T.);
#1217=ADVANCED_FACE('',(#333),#29,.F.);
#1218=ADVANCED_FACE('',(#334),#1184,.F.);
#1219=ADVANCED_FACE('',(#335,#16),#282,.T.);
#1220=ADVANCED_FACE('',(#336),#1185,.F.);
#1221=ADVANCED_FACE('',(#337,#17),#283,.T.);
#1222=ADVANCED_FACE('',(#338),#30,.F.);
#1223=ADVANCED_FACE('',(#339),#31,.T.);
#1224=ADVANCED_FACE('',(#340),#1186,.T.);
#1225=ADVANCED_FACE('',(#341,#18),#284,.F.);
#1226=ADVANCED_FACE('',(#342),#32,.F.);
#1227=ADVANCED_FACE('',(#343),#1187,.F.);
#1228=ADVANCED_FACE('',(#344,#19),#285,.F.);
#1229=ADVANCED_FACE('',(#345),#1188,.T.);
#1230=ADVANCED_FACE('',(#346),#286,.T.);
#1231=ADVANCED_FACE('',(#347),#287,.T.);
#1232=ADVANCED_FACE('',(#348),#33,.T.);
#1233=ADVANCED_FACE('',(#349),#288,.T.);
#1234=ADVANCED_FACE('',(#350),#289,.F.);
#1235=ADVANCED_FACE('',(#351,#20),#290,.T.);
#1236=ADVANCED_FACE('',(#352),#291,.T.);
#1237=ADVANCED_FACE('',(#353),#292,.F.);
#1238=ADVANCED_FACE('',(#354),#34,.T.);
#1239=ADVANCED_FACE('',(#355),#293,.F.);
#1240=ADVANCED_FACE('',(#356),#35,.T.);
#1241=ADVANCED_FACE('',(#357),#36,.F.);
#1242=ADVANCED_FACE('',(#358),#1189,.F.);
#1243=ADVANCED_FACE('',(#359,#21),#294,.T.);
#1244=ADVANCED_FACE('',(#360),#1190,.F.);
#1245=ADVANCED_FACE('',(#361,#22),#295,.T.);
#1246=ADVANCED_FACE('',(#362),#37,.F.);
#1247=ADVANCED_FACE('',(#363),#38,.T.);
#1248=ADVANCED_FACE('',(#364),#1191,.T.);
#1249=ADVANCED_FACE('',(#365,#23),#296,.F.);
#1250=ADVANCED_FACE('',(#366),#39,.F.);
#1251=ADVANCED_FACE('',(#367),#1192,.F.);
#1252=ADVANCED_FACE('',(#368,#24),#297,.F.);
#1253=ADVANCED_FACE('',(#369),#1193,.T.);
#1254=ADVANCED_FACE('',(#370),#298,.T.);
#1255=ADVANCED_FACE('',(#371),#299,.T.);
#1256=ADVANCED_FACE('',(#372),#300,.T.);
#1257=ADVANCED_FACE('',(#373),#301,.F.);
#1258=ADVANCED_FACE('',(#374),#302,.F.);
#1259=ADVANCED_FACE('',(#375),#303,.F.);
#1260=ADVANCED_FACE('',(#376),#304,.F.);
#1261=ADVANCED_FACE('',(#377),#305,.F.);
#1262=ADVANCED_FACE('',(#378),#306,.T.);
#1263=ADVANCED_FACE('',(#379),#307,.T.);
#1264=ADVANCED_FACE('',(#380,#25),#308,.T.);
#1265=ADVANCED_FACE('',(#381),#309,.T.);
#1266=CLOSED_SHELL('',(#1194,#1195,#1196,#1197,#1198,#1199,#1200,#1201,
#1202,#1203,#1204,#1205,#1206,#1207,#1208,#1209,#1210,#1211,#1212,#1213,
#1214,#1215,#1216,#1217,#1218,#1219,#1220,#1221,#1222,#1223,#1224,#1225,
#1226,#1227,#1228,#1229,#1230,#1231,#1232,#1233,#1234,#1235,#1236,#1237,
#1238,#1239,#1240,#1241,#1242,#1243,#1244,#1245,#1246,#1247,#1248,#1249,
#1250,#1251,#1252,#1253,#1254,#1255,#1256,#1257,#1258,#1259,#1260,#1261,
#1262,#1263,#1264,#1265));
#1267=DERIVED_UNIT_ELEMENT(#1269,1.);
#1268=DERIVED_UNIT_ELEMENT(#2168,-3.);
#1269=(
MASS_UNIT()
NAMED_UNIT(*)
SI_UNIT(.KILO.,.GRAM.)
);
#1270=DERIVED_UNIT((#1267,#1268));
#1271=MEASURE_REPRESENTATION_ITEM('density measure',
POSITIVE_RATIO_MEASURE(7850.),#1270);
#1272=PROPERTY_DEFINITION_REPRESENTATION(#1277,#1274);
#1273=PROPERTY_DEFINITION_REPRESENTATION(#1278,#1275);
#1274=REPRESENTATION('material name',(#1276),#2165);
#1275=REPRESENTATION('density',(#1271),#2165);
#1276=DESCRIPTIVE_REPRESENTATION_ITEM('Steel','Steel');
#1277=PROPERTY_DEFINITION('material property','material name',#2175);
#1278=PROPERTY_DEFINITION('material property','density of part',#2175);
#1279=AXIS2_PLACEMENT_3D('',#1779,#1408,#1409);
#1280=AXIS2_PLACEMENT_3D('',#1780,#1410,#1411);
#1281=AXIS2_PLACEMENT_3D('',#1787,#1412,#1413);
#1282=AXIS2_PLACEMENT_3D('',#1793,#1414,#1415);
#1283=AXIS2_PLACEMENT_3D('',#1798,#1416,#1417);
#1284=AXIS2_PLACEMENT_3D('',#1799,#1418,#1419);
#1285=AXIS2_PLACEMENT_3D('',#1803,#1422,#1423);
#1286=AXIS2_PLACEMENT_3D('',#1810,#1424,#1425);
#1287=AXIS2_PLACEMENT_3D('',#1816,#1426,#1427);
#1288=AXIS2_PLACEMENT_3D('',#1821,#1428,#1429);
#1289=AXIS2_PLACEMENT_3D('',#1822,#1430,#1431);
#1290=AXIS2_PLACEMENT_3D('',#1826,#1434,#1435);
#1291=AXIS2_PLACEMENT_3D('',#1830,#1438,#1439);
#1292=AXIS2_PLACEMENT_3D('',#1845,#1447,#1448);
#1293=AXIS2_PLACEMENT_3D('',#1851,#1452,#1453);
#1294=AXIS2_PLACEMENT_3D('',#1863,#1460,#1461);
#1295=AXIS2_PLACEMENT_3D('',#1875,#1466,#1467);
#1296=AXIS2_PLACEMENT_3D('',#1877,#1468,#1469);
#1297=AXIS2_PLACEMENT_3D('',#1880,#1471,#1472);
#1298=AXIS2_PLACEMENT_3D('',#1882,#1473,#1474);
#1299=AXIS2_PLACEMENT_3D('',#1884,#1476,#1477);
#1300=AXIS2_PLACEMENT_3D('',#1886,#1478,#1479);
#1301=AXIS2_PLACEMENT_3D('',#1889,#1481,#1482);
#1302=AXIS2_PLACEMENT_3D('',#1893,#1483,#1484);
#1303=AXIS2_PLACEMENT_3D('',#1903,#1488,#1489);
#1304=AXIS2_PLACEMENT_3D('',#1905,#1490,#1491);
#1305=AXIS2_PLACEMENT_3D('',#1909,#1493,#1494);
#1306=AXIS2_PLACEMENT_3D('',#1914,#1495,#1496);
#1307=AXIS2_PLACEMENT_3D('',#1915,#1497,#1498);
#1308=AXIS2_PLACEMENT_3D('',#1916,#1499,#1500);
#1309=AXIS2_PLACEMENT_3D('',#1918,#1502,#1503);
#1310=AXIS2_PLACEMENT_3D('',#1922,#1506,#1507);
#1311=AXIS2_PLACEMENT_3D('',#1925,#1508,#1509);
#1312=AXIS2_PLACEMENT_3D('',#1927,#1510,#1511);
#1313=AXIS2_PLACEMENT_3D('',#1936,#1516,#1517);
#1314=AXIS2_PLACEMENT_3D('',#1937,#1518,#1519);
#1315=AXIS2_PLACEMENT_3D('',#1940,#1520,#1521);
#1316=AXIS2_PLACEMENT_3D('',#1950,#1526,#1527);
#1317=AXIS2_PLACEMENT_3D('',#1952,#1528,#1529);
#1318=AXIS2_PLACEMENT_3D('',#1953,#1530,#1531);
#1319=AXIS2_PLACEMENT_3D('',#1955,#1532,#1533);
#1320=AXIS2_PLACEMENT_3D('',#1956,#1534,#1535);
#1321=AXIS2_PLACEMENT_3D('',#1958,#1537,#1538);
#1322=AXIS2_PLACEMENT_3D('',#1962,#1542,#1543);
#1323=AXIS2_PLACEMENT_3D('',#1965,#1546,#1547);
#1324=AXIS2_PLACEMENT_3D('',#1968,#1550,#1551);
#1325=AXIS2_PLACEMENT_3D('',#1969,#1552,#1553);
#1326=AXIS2_PLACEMENT_3D('',#1971,#1555,#1556);
#1327=AXIS2_PLACEMENT_3D('',#1973,#1557,#1558);
#1328=AXIS2_PLACEMENT_3D('',#1975,#1560,#1561);
#1329=AXIS2_PLACEMENT_3D('',#1977,#1562,#1563);
#1330=AXIS2_PLACEMENT_3D('',#1979,#1565,#1566);
#1331=AXIS2_PLACEMENT_3D('',#1981,#1567,#1568);
#1332=AXIS2_PLACEMENT_3D('',#1982,#1569,#1570);
#1333=AXIS2_PLACEMENT_3D('',#1984,#1571,#1572);
#1334=AXIS2_PLACEMENT_3D('',#1988,#1574,#1575);
#1335=AXIS2_PLACEMENT_3D('',#1989,#1576,#1577);
#1336=AXIS2_PLACEMENT_3D('',#1990,#1578,#1579);
#1337=AXIS2_PLACEMENT_3D('',#1992,#1580,#1581);
#1338=AXIS2_PLACEMENT_3D('',#1993,#1582,#1583);
#1339=AXIS2_PLACEMENT_3D('',#1996,#1585,#1586);
#1340=AXIS2_PLACEMENT_3D('',#1997,#1587,#1588);
#1341=AXIS2_PLACEMENT_3D('',#1999,#1590,#1591);
#1342=AXIS2_PLACEMENT_3D('',#2001,#1593,#1594);
#1343=AXIS2_PLACEMENT_3D('',#2003,#1595,#1596);
#1344=AXIS2_PLACEMENT_3D('',#2004,#1597,#1598);
#1345=AXIS2_PLACEMENT_3D('',#2007,#1600,#1601);
#1346=AXIS2_PLACEMENT_3D('',#2008,#1602,#1603);
#1347=AXIS2_PLACEMENT_3D('',#2011,#1605,#1606);
#1348=AXIS2_PLACEMENT_3D('',#2012,#1607,#1608);
#1349=AXIS2_PLACEMENT_3D('',#2014,#1609,#1610);
#1350=AXIS2_PLACEMENT_3D('',#2015,#1611,#1612);
#1351=AXIS2_PLACEMENT_3D('',#2017,#1614,#1615);
#1352=AXIS2_PLACEMENT_3D('',#2019,#1617,#1618);
#1353=AXIS2_PLACEMENT_3D('',#2023,#1621,#1622);
#1354=AXIS2_PLACEMENT_3D('',#2027,#1625,#1626);
#1355=AXIS2_PLACEMENT_3D('',#2028,#1627,#1628);
#1356=AXIS2_PLACEMENT_3D('',#2030,#1630,#1631);
#1357=AXIS2_PLACEMENT_3D('',#2033,#1632,#1633);
#1358=AXIS2_PLACEMENT_3D('',#2035,#1634,#1635);
#1359=AXIS2_PLACEMENT_3D('',#2044,#1640,#1641);
#1360=AXIS2_PLACEMENT_3D('',#2045,#1642,#1643);
#1361=AXIS2_PLACEMENT_3D('',#2048,#1644,#1645);
#1362=AXIS2_PLACEMENT_3D('',#2058,#1650,#1651);
#1363=AXIS2_PLACEMENT_3D('',#2060,#1652,#1653);
#1364=AXIS2_PLACEMENT_3D('',#2061,#1654,#1655);
#1365=AXIS2_PLACEMENT_3D('',#2063,#1656,#1657);
#1366=AXIS2_PLACEMENT_3D('',#2064,#1658,#1659);
#1367=AXIS2_PLACEMENT_3D('',#2069,#1664,#1665);
#1368=AXIS2_PLACEMENT_3D('',#2071,#1667,#1668);
#1369=AXIS2_PLACEMENT_3D('',#2074,#1671,#1672);
#1370=AXIS2_PLACEMENT_3D('',#2076,#1674,#1675);
#1371=AXIS2_PLACEMENT_3D('',#2078,#1677,#1678);
#1372=AXIS2_PLACEMENT_3D('',#2080,#1679,#1680);
#1373=AXIS2_PLACEMENT_3D('',#2082,#1682,#1683);
#1374=AXIS2_PLACEMENT_3D('',#2084,#1684,#1685);
#1375=AXIS2_PLACEMENT_3D('',#2086,#1687,#1688);
#1376=AXIS2_PLACEMENT_3D('',#2088,#1689,#1690);
#1377=AXIS2_PLACEMENT_3D('',#2089,#1691,#1692);
#1378=AXIS2_PLACEMENT_3D('',#2091,#1693,#1694);
#1379=AXIS2_PLACEMENT_3D('',#2095,#1696,#1697);
#1380=AXIS2_PLACEMENT_3D('',#2096,#1698,#1699);
#1381=AXIS2_PLACEMENT_3D('',#2097,#1700,#1701);
#1382=AXIS2_PLACEMENT_3D('',#2099,#1702,#1703);
#1383=AXIS2_PLACEMENT_3D('',#2100,#1704,#1705);
#1384=AXIS2_PLACEMENT_3D('',#2103,#1707,#1708);
#1385=AXIS2_PLACEMENT_3D('',#2104,#1709,#1710);
#1386=AXIS2_PLACEMENT_3D('',#2106,#1712,#1713);
#1387=AXIS2_PLACEMENT_3D('',#2108,#1715,#1716);
#1388=AXIS2_PLACEMENT_3D('',#2110,#1717,#1718);
#1389=AXIS2_PLACEMENT_3D('',#2111,#1719,#1720);
#1390=AXIS2_PLACEMENT_3D('',#2114,#1722,#1723);
#1391=AXIS2_PLACEMENT_3D('',#2115,#1724,#1725);
#1392=AXIS2_PLACEMENT_3D('',#2118,#1727,#1728);
#1393=AXIS2_PLACEMENT_3D('',#2119,#1729,#1730);
#1394=AXIS2_PLACEMENT_3D('',#2121,#1731,#1732);
#1395=AXIS2_PLACEMENT_3D('',#2122,#1733,#1734);
#1396=AXIS2_PLACEMENT_3D('',#2124,#1736,#1737);
#1397=AXIS2_PLACEMENT_3D('',#2125,#1738,#1739);
#1398=AXIS2_PLACEMENT_3D('',#2128,#1742,#1743);
#1399=AXIS2_PLACEMENT_3D('',#2130,#1745,#1746);
#1400=AXIS2_PLACEMENT_3D('',#2136,#1750,#1751);
#1401=AXIS2_PLACEMENT_3D('',#2142,#1755,#1756);
#1402=AXIS2_PLACEMENT_3D('',#2148,#1760,#1761);
#1403=AXIS2_PLACEMENT_3D('',#2154,#1765,#1766);
#1404=AXIS2_PLACEMENT_3D('',#2157,#1769,#1770);
#1405=AXIS2_PLACEMENT_3D('',#2158,#1771,#1772);
#1406=AXIS2_PLACEMENT_3D('',#2160,#1774,#1775);
#1407=AXIS2_PLACEMENT_3D('',#2162,#1777,#1778);
#1408=DIRECTION('axis',(0.,0.,1.));
#1409=DIRECTION('refdir',(1.,0.,0.));
#1410=DIRECTION('center_axis',(0.,0.,1.));
#1411=DIRECTION('ref_axis',(1.,0.,0.));
#1412=DIRECTION('center_axis',(0.,0.,-1.));
#1413=DIRECTION('ref_axis',(1.,0.,0.));
#1414=DIRECTION('center_axis',(0.,0.,1.));
#1415=DIRECTION('ref_axis',(1.,0.,0.));
#1416=DIRECTION('center_axis',(0.,0.,-1.));
#1417=DIRECTION('ref_axis',(1.,0.,0.));
#1418=DIRECTION('center_axis',(0.,0.,-1.));
#1419=DIRECTION('ref_axis',(1.,0.,0.));
#1420=DIRECTION('',(0.,-1.,0.));
#1421=DIRECTION('',(-1.,0.,0.));
#1422=DIRECTION('center_axis',(0.,0.,1.));
#1423=DIRECTION('ref_axis',(-1.,0.,0.));
#1424=DIRECTION('center_axis',(0.,0.,-1.));
#1425=DIRECTION('ref_axis',(-1.,0.,0.));
#1426=DIRECTION('center_axis',(0.,0.,1.));
#1427=DIRECTION('ref_axis',(-1.,0.,0.));
#1428=DIRECTION('center_axis',(0.,0.,-1.));
#1429=DIRECTION('ref_axis',(-1.,0.,0.));
#1430=DIRECTION('center_axis',(0.,0.,-1.));
#1431=DIRECTION('ref_axis',(1.,0.,0.));
#1432=DIRECTION('',(0.,-1.,0.));
#1433=DIRECTION('',(-1.,0.,0.));
#1434=DIRECTION('center_axis',(0.,0.,-1.));
#1435=DIRECTION('ref_axis',(1.,0.,0.));
#1436=DIRECTION('',(-1.,0.,0.));
#1437=DIRECTION('',(0.,-1.,0.));
#1438=DIRECTION('center_axis',(0.,-0.707106781186547,0.707106781186548));
#1439=DIRECTION('ref_axis',(0.,0.707106781186548,0.707106781186547));
#1440=DIRECTION('',(0.586967571460931,-0.572481034643619,-0.572481034643619));
#1441=DIRECTION('',(0.586967571460931,0.572481034643619,0.572481034643619));
#1442=DIRECTION('',(1.,0.,0.));
#1443=DIRECTION('',(-0.586967571460931,-0.572481034643619,-0.572481034643619));
#1444=DIRECTION('',(-1.,0.,0.));
#1445=DIRECTION('',(-0.586967571460931,0.572481034643619,0.572481034643619));
#1446=DIRECTION('',(1.,0.,0.));
#1447=DIRECTION('center_axis',(-0.698217457033638,0.715885732986403,0.));
#1448=DIRECTION('ref_axis',(-0.715885732986403,-0.698217457033638,0.));
#1449=DIRECTION('',(0.,0.,-1.));
#1450=DIRECTION('',(-0.586967571460931,-0.572481034643619,-0.572481034643619));
#1451=DIRECTION('',(0.,0.,-1.));
#1452=DIRECTION('center_axis',(0.,0.707106781186548,-0.707106781186547));
#1453=DIRECTION('ref_axis',(0.,-0.707106781186547,-0.707106781186548));
#1454=DIRECTION('',(-0.586967571460931,0.572481034643619,0.572481034643619));
#1455=DIRECTION('',(-1.,0.,0.));
#1456=DIRECTION('',(0.586967571460931,-0.572481034643619,-0.572481034643619));
#1457=DIRECTION('',(1.,0.,0.));
#1458=DIRECTION('',(0.586967571460931,0.572481034643619,0.572481034643619));
#1459=DIRECTION('',(-1.,0.,0.));
#1460=DIRECTION('center_axis',(1.,0.,0.));
#1461=DIRECTION('ref_axis',(0.,0.,1.));
#1462=DIRECTION('',(0.,0.,1.));
#1463=DIRECTION('',(0.,-1.,0.));
#1464=DIRECTION('',(0.,0.,1.));
#1465=DIRECTION('',(0.,-1.,0.));
#1466=DIRECTION('center_axis',(0.,0.,1.));
#1467=DIRECTION('ref_axis',(1.,0.,0.));
#1468=DIRECTION('center_axis',(0.,0.,1.));
#1469=DIRECTION('ref_axis',(1.,0.,0.));
#1470=DIRECTION('',(0.,0.,-1.));
#1471=DIRECTION('center_axis',(0.,0.,-1.));
#1472=DIRECTION('ref_axis',(1.,0.,0.));
#1473=DIRECTION('center_axis',(0.,0.,1.));
#1474=DIRECTION('ref_axis',(1.,0.,0.));
#1475=DIRECTION('',(0.,0.,1.));
#1476=DIRECTION('center_axis',(0.,0.,-1.));
#1477=DIRECTION('ref_axis',(1.,0.,0.));
#1478=DIRECTION('center_axis',(0.,0.,1.));
#1479=DIRECTION('ref_axis',(1.,6.12323399573677E-17,0.));
#1480=DIRECTION('',(-0.0774366813208005,-9.48325839161119E-18,-0.996997272005305));
#1481=DIRECTION('center_axis',(0.,0.,1.));
#1482=DIRECTION('ref_axis',(1.,0.,0.));
#1483=DIRECTION('center_axis',(-1.,0.,0.));
#1484=DIRECTION('ref_axis',(0.,0.,-1.));
#1485=DIRECTION('',(0.,0.,-1.));
#1486=DIRECTION('',(0.,-1.,0.));
#1487=DIRECTION('',(0.,0.,-1.));
#1488=DIRECTION('center_axis',(0.,0.,-1.));
#1489=DIRECTION('ref_axis',(1.,0.,0.));
#1490=DIRECTION('center_axis',(0.,0.,1.));
#1491=DIRECTION('ref_axis',(1.,6.12323399573677E-17,0.));
#1492=DIRECTION('',(-0.0774366813208005,-9.48325839161119E-18,-0.996997272005305));
#1493=DIRECTION('center_axis',(0.,0.,1.));
#1494=DIRECTION('ref_axis',(1.,0.,0.));
#1495=DIRECTION('center_axis',(0.,0.,1.));
#1496=DIRECTION('ref_axis',(1.,0.,0.));
#1497=DIRECTION('center_axis',(0.,0.,1.));
#1498=DIRECTION('ref_axis',(1.,0.,0.));
#1499=DIRECTION('center_axis',(0.,0.,-1.));
#1500=DIRECTION('ref_axis',(1.,0.,0.));
#1501=DIRECTION('',(-1.,0.,0.));
#1502=DIRECTION('center_axis',(0.,0.,1.));
#1503=DIRECTION('ref_axis',(-1.,0.,0.));
#1504=DIRECTION('',(0.,-1.,0.));
#1505=DIRECTION('',(-1.,0.,0.));
#1506=DIRECTION('center_axis',(0.,0.,1.));
#1507=DIRECTION('ref_axis',(0.,1.,0.));
#1508=DIRECTION('center_axis',(0.,0.,-1.));
#1509=DIRECTION('ref_axis',(-1.,0.,0.));
#1510=DIRECTION('center_axis',(0.,0.,1.));
#1511=DIRECTION('ref_axis',(0.956771352434436,-0.290841157955301,0.));
#1512=DIRECTION('',(0.,-1.,0.));
#1513=DIRECTION('',(-1.,0.,0.));
#1514=DIRECTION('',(-1.,0.,0.));
#1515=DIRECTION('',(0.,-1.,0.));
#1516=DIRECTION('center_axis',(0.,0.,1.));
#1517=DIRECTION('ref_axis',(-0.956771352434436,-0.290841157955301,0.));
#1518=DIRECTION('center_axis',(0.,0.,1.));
#1519=DIRECTION('ref_axis',(-1.,0.,0.));
#1520=DIRECTION('center_axis',(0.,0.,-1.));
#1521=DIRECTION('ref_axis',(-0.956771352434436,-0.290841157955301,0.));
#1522=DIRECTION('',(0.,1.,0.));
#1523=DIRECTION('',(1.,0.,0.));
#1524=DIRECTION('',(1.,0.,0.));
#1525=DIRECTION('',(0.,-1.,0.));
#1526=DIRECTION('center_axis',(0.,0.,-1.));
#1527=DIRECTION('ref_axis',(0.956771352434436,-0.290841157955301,0.));
#1528=DIRECTION('center_axis',(0.,0.,-1.));
#1529=DIRECTION('ref_axis',(-1.,0.,0.));
#1530=DIRECTION('center_axis',(0.,0.,-1.));
#1531=DIRECTION('ref_axis',(-1.,0.,0.));
#1532=DIRECTION('center_axis',(0.,0.,1.));
#1533=DIRECTION('ref_axis',(-1.,0.,0.));
#1534=DIRECTION('center_axis',(-1.,0.,-9.57766907251205E-16));
#1535=DIRECTION('ref_axis',(9.57766907251205E-16,0.,-1.));
#1536=DIRECTION('',(0.,0.,1.));
#1537=DIRECTION('center_axis',(0.,1.,0.));
#1538=DIRECTION('ref_axis',(1.,0.,0.));
#1539=DIRECTION('',(0.,0.,1.));
#1540=DIRECTION('',(-7.51401582012308E-16,0.,1.));
#1541=DIRECTION('',(0.,0.,1.));
#1542=DIRECTION('center_axis',(-1.,0.,0.));
#1543=DIRECTION('ref_axis',(0.,0.,1.));
#1544=DIRECTION('',(0.,0.,1.));
#1545=DIRECTION('',(0.,0.,-1.));
#1546=DIRECTION('center_axis',(0.,0.,-1.));
#1547=DIRECTION('ref_axis',(-0.956771352434436,-0.290841157955301,0.));
#1548=DIRECTION('',(0.,0.,-1.));
#1549=DIRECTION('',(0.,0.,1.));
#1550=DIRECTION('center_axis',(1.,0.,0.));
#1551=DIRECTION('ref_axis',(0.,0.,-1.));
#1552=DIRECTION('center_axis',(0.,0.,1.));
#1553=DIRECTION('ref_axis',(0.956771352434436,-0.290841157955301,0.));
#1554=DIRECTION('',(0.,0.,-1.));
#1555=DIRECTION('center_axis',(0.,0.,-1.));
#1556=DIRECTION('ref_axis',(-1.,0.,0.));
#1557=DIRECTION('center_axis',(0.,0.,-1.));
#1558=DIRECTION('ref_axis',(-1.,0.,0.));
#1559=DIRECTION('',(0.,0.,-1.));
#1560=DIRECTION('center_axis',(0.,0.,1.));
#1561=DIRECTION('ref_axis',(-1.,0.,0.));
#1562=DIRECTION('center_axis',(0.,0.,1.));
#1563=DIRECTION('ref_axis',(-1.,0.,0.));
#1564=DIRECTION('',(-0.707106781186549,-8.65956056235495E-17,-0.707106781186546));
#1565=DIRECTION('center_axis',(0.,0.,1.));
#1566=DIRECTION('ref_axis',(1.,0.,0.));
#1567=DIRECTION('center_axis',(0.,0.,-1.));
#1568=DIRECTION('ref_axis',(1.,0.,0.));
#1569=DIRECTION('center_axis',(0.,0.,1.));
#1570=DIRECTION('ref_axis',(-1.,0.,0.));
#1571=DIRECTION('center_axis',(0.,0.,1.));
#1572=DIRECTION('ref_axis',(-1.,0.,0.));
#1573=DIRECTION('',(-0.171341174751248,-2.09832421221263E-17,-0.985211754819674));
#1574=DIRECTION('center_axis',(0.,0.,-1.));
#1575=DIRECTION('ref_axis',(-1.,0.,0.));
#1576=DIRECTION('center_axis',(0.,0.,-1.));
#1577=DIRECTION('ref_axis',(-1.,0.,0.));
#1578=DIRECTION('center_axis',(0.,0.,1.));
#1579=DIRECTION('ref_axis',(-1.,0.,0.));
#1580=DIRECTION('center_axis',(0.,0.,1.));
#1581=DIRECTION('ref_axis',(-1.,0.,0.));
#1582=DIRECTION('center_axis',(0.,0.,1.));
#1583=DIRECTION('ref_axis',(1.,0.,0.));
#1584=DIRECTION('',(0.,0.,-1.));
#1585=DIRECTION('center_axis',(0.,0.,-1.));
#1586=DIRECTION('ref_axis',(1.,0.,0.));
#1587=DIRECTION('center_axis',(0.,0.,1.));
#1588=DIRECTION('ref_axis',(-1.,0.,0.));
#1589=DIRECTION('',(0.,0.,-1.));
#1590=DIRECTION('center_axis',(0.,-3.27743533768176E-15,-1.));
#1591=DIRECTION('ref_axis',(1.,3.09283980464837E-17,0.));
#1592=DIRECTION('',(0.733974346050599,2.15877404989538E-15,0.679177192888274));
#1593=DIRECTION('center_axis',(0.,0.,1.));
#1594=DIRECTION('ref_axis',(1.,0.,0.));
#1595=DIRECTION('center_axis',(0.,0.,1.));
#1596=DIRECTION('ref_axis',(1.,0.,0.));
#1597=DIRECTION('center_axis',(0.,0.,1.));
#1598=DIRECTION('ref_axis',(1.,0.,0.));
#1599=DIRECTION('',(0.,0.,-1.));
#1600=DIRECTION('center_axis',(0.,0.,1.));
#1601=DIRECTION('ref_axis',(1.,0.,0.));
#1602=DIRECTION('center_axis',(0.,0.,-1.));
#1603=DIRECTION('ref_axis',(1.,0.,0.));
#1604=DIRECTION('',(-0.707106781186548,-8.65956056235494E-17,-0.707106781186547));
#1605=DIRECTION('center_axis',(0.,0.,-1.));
#1606=DIRECTION('ref_axis',(1.,0.,0.));
#1607=DIRECTION('center_axis',(0.,0.,1.));
#1608=DIRECTION('ref_axis',(1.,0.,0.));
#1609=DIRECTION('center_axis',(0.,0.,1.));
#1610=DIRECTION('ref_axis',(1.,0.,0.));
#1611=DIRECTION('center_axis',(0.,0.,1.));
#1612=DIRECTION('ref_axis',(1.,0.,0.));
#1613=DIRECTION('',(0.707106781186548,8.65956056235493E-17,-0.707106781186548));
#1614=DIRECTION('center_axis',(0.,-1.,0.));
#1615=DIRECTION('ref_axis',(0.,0.,1.));
#1616=DIRECTION('',(0.,0.,1.));
#1617=DIRECTION('center_axis',(0.,0.,1.));
#1618=DIRECTION('ref_axis',(-1.,0.,0.));
#1619=DIRECTION('',(0.,-1.,0.));
#1620=DIRECTION('',(-1.,0.,0.));
#1621=DIRECTION('center_axis',(0.,0.,1.));
#1622=DIRECTION('ref_axis',(1.,0.,0.));
#1623=DIRECTION('',(0.,0.,-1.));
#1624=DIRECTION('',(0.,0.,-1.));
#1625=DIRECTION('center_axis',(0.,0.,-1.));
#1626=DIRECTION('ref_axis',(1.,0.,0.));
#1627=DIRECTION('center_axis',(1.,0.,9.57766907251205E-16));
#1628=DIRECTION('ref_axis',(-9.57766907251205E-16,0.,1.));
#1629=DIRECTION('',(0.,0.,1.));
#1630=DIRECTION('center_axis',(0.,0.,1.));
#1631=DIRECTION('ref_axis',(0.,1.,0.));
#1632=DIRECTION('center_axis',(0.,0.,-1.));
#1633=DIRECTION('ref_axis',(-1.,0.,0.));
#1634=DIRECTION('center_axis',(0.,0.,1.));
#1635=DIRECTION('ref_axis',(0.956771352434436,-0.290841157955301,0.));
#1636=DIRECTION('',(0.,-1.,0.));
#1637=DIRECTION('',(-1.,0.,0.));
#1638=DIRECTION('',(-1.,0.,0.));
#1639=DIRECTION('',(0.,-1.,0.));
#1640=DIRECTION('center_axis',(0.,0.,1.));
#1641=DIRECTION('ref_axis',(-0.956771352434436,-0.290841157955301,0.));
#1642=DIRECTION('center_axis',(0.,0.,1.));
#1643=DIRECTION('ref_axis',(-1.,0.,0.));
#1644=DIRECTION('center_axis',(0.,0.,-1.));
#1645=DIRECTION('ref_axis',(-0.956771352434436,-0.290841157955301,0.));
#1646=DIRECTION('',(0.,1.,0.));
#1647=DIRECTION('',(1.,0.,0.));
#1648=DIRECTION('',(1.,0.,0.));
#1649=DIRECTION('',(0.,-1.,0.));
#1650=DIRECTION('center_axis',(0.,0.,-1.));
#1651=DIRECTION('ref_axis',(0.956771352434436,-0.290841157955301,0.));
#1652=DIRECTION('center_axis',(0.,0.,-1.));
#1653=DIRECTION('ref_axis',(-1.,0.,0.));
#1654=DIRECTION('center_axis',(0.,0.,-1.));
#1655=DIRECTION('ref_axis',(-1.,0.,0.));
#1656=DIRECTION('center_axis',(0.,0.,1.));
#1657=DIRECTION('ref_axis',(-1.,0.,0.));
#1658=DIRECTION('center_axis',(0.,1.,0.));
#1659=DIRECTION('ref_axis',(1.,0.,0.));
#1660=DIRECTION('',(0.,0.,-1.));
#1661=DIRECTION('',(7.51401582012308E-16,0.,-1.));
#1662=DIRECTION('',(0.,0.,-1.));
#1663=DIRECTION('',(0.,0.,1.));
#1664=DIRECTION('center_axis',(-1.,0.,0.));
#1665=DIRECTION('ref_axis',(0.,0.,1.));
#1666=DIRECTION('',(0.,0.,1.));
#1667=DIRECTION('center_axis',(0.,0.,-1.));
#1668=DIRECTION('ref_axis',(-0.956771352434436,-0.290841157955301,0.));
#1669=DIRECTION('',(0.,0.,-1.));
#1670=DIRECTION('',(0.,0.,1.));
#1671=DIRECTION('center_axis',(1.,0.,0.));
#1672=DIRECTION('ref_axis',(0.,0.,-1.));
#1673=DIRECTION('',(0.,0.,1.));
#1674=DIRECTION('center_axis',(0.,0.,1.));
#1675=DIRECTION('ref_axis',(0.956771352434436,-0.290841157955301,0.));
#1676=DIRECTION('',(0.,0.,-1.));
#1677=DIRECTION('center_axis',(0.,0.,-1.));
#1678=DIRECTION('ref_axis',(-1.,0.,0.));
#1679=DIRECTION('center_axis',(0.,0.,-1.));
#1680=DIRECTION('ref_axis',(-1.,0.,0.));
#1681=DIRECTION('',(0.,0.,-1.));
#1682=DIRECTION('center_axis',(0.,0.,1.));
#1683=DIRECTION('ref_axis',(-1.,0.,0.));
#1684=DIRECTION('center_axis',(0.,0.,1.));
#1685=DIRECTION('ref_axis',(-1.,0.,0.));
#1686=DIRECTION('',(-0.707106781186549,-8.65956056235495E-17,-0.707106781186546));
#1687=DIRECTION('center_axis',(0.,0.,1.));
#1688=DIRECTION('ref_axis',(1.,0.,0.));
#1689=DIRECTION('center_axis',(0.,0.,-1.));
#1690=DIRECTION('ref_axis',(1.,0.,0.));
#1691=DIRECTION('center_axis',(0.,0.,1.));
#1692=DIRECTION('ref_axis',(-1.,0.,0.));
#1693=DIRECTION('center_axis',(0.,0.,1.));
#1694=DIRECTION('ref_axis',(-1.,0.,0.));
#1695=DIRECTION('',(-0.171341174751248,-2.09832421221263E-17,-0.985211754819674));
#1696=DIRECTION('center_axis',(0.,0.,-1.));
#1697=DIRECTION('ref_axis',(-1.,0.,0.));
#1698=DIRECTION('center_axis',(0.,0.,-1.));
#1699=DIRECTION('ref_axis',(-1.,0.,0.));
#1700=DIRECTION('center_axis',(0.,0.,1.));
#1701=DIRECTION('ref_axis',(-1.,0.,0.));
#1702=DIRECTION('center_axis',(0.,0.,1.));
#1703=DIRECTION('ref_axis',(-1.,0.,0.));
#1704=DIRECTION('center_axis',(0.,0.,1.));
#1705=DIRECTION('ref_axis',(1.,0.,0.));
#1706=DIRECTION('',(0.,0.,-1.));
#1707=DIRECTION('center_axis',(0.,0.,-1.));
#1708=DIRECTION('ref_axis',(1.,0.,0.));
#1709=DIRECTION('center_axis',(0.,0.,1.));
#1710=DIRECTION('ref_axis',(-1.,0.,0.));
#1711=DIRECTION('',(0.,0.,-1.));
#1712=DIRECTION('center_axis',(0.,-3.27743533768176E-15,-1.));
#1713=DIRECTION('ref_axis',(1.,3.09283980464837E-17,0.));
#1714=DIRECTION('',(0.733974346050599,2.15877404989538E-15,0.679177192888274));
#1715=DIRECTION('center_axis',(0.,0.,1.));
#1716=DIRECTION('ref_axis',(1.,0.,0.));
#1717=DIRECTION('center_axis',(0.,0.,1.));
#1718=DIRECTION('ref_axis',(1.,0.,0.));
#1719=DIRECTION('center_axis',(0.,0.,1.));
#1720=DIRECTION('ref_axis',(1.,0.,0.));
#1721=DIRECTION('',(0.,0.,-1.));
#1722=DIRECTION('center_axis',(0.,0.,1.));
#1723=DIRECTION('ref_axis',(1.,0.,0.));
#1724=DIRECTION('center_axis',(0.,0.,-1.));
#1725=DIRECTION('ref_axis',(1.,0.,0.));
#1726=DIRECTION('',(-0.707106781186548,-8.65956056235494E-17,-0.707106781186547));
#1727=DIRECTION('center_axis',(0.,0.,-1.));
#1728=DIRECTION('ref_axis',(1.,0.,0.));
#1729=DIRECTION('center_axis',(0.,0.,1.));
#1730=DIRECTION('ref_axis',(1.,0.,0.));
#1731=DIRECTION('center_axis',(0.,0.,1.));
#1732=DIRECTION('ref_axis',(1.,0.,0.));
#1733=DIRECTION('center_axis',(0.,0.,1.));
#1734=DIRECTION('ref_axis',(1.,0.,0.));
#1735=DIRECTION('',(0.707106781186548,8.65956056235493E-17,-0.707106781186548));
#1736=DIRECTION('center_axis',(0.698217457033638,0.715885732986403,0.));
#1737=DIRECTION('ref_axis',(-0.715885732986403,0.698217457033638,0.));
#1738=DIRECTION('center_axis',(-0.698217457033638,-0.715885732986403,0.));
#1739=DIRECTION('ref_axis',(0.715885732986403,-0.698217457033638,0.));
#1740=DIRECTION('',(0.,0.,-1.));
#1741=DIRECTION('',(0.586967571460931,-0.572481034643619,0.572481034643619));
#1742=DIRECTION('center_axis',(0.698217457033638,-0.715885732986403,0.));
#1743=DIRECTION('ref_axis',(0.715885732986403,0.698217457033638,0.));
#1744=DIRECTION('',(0.586967571460931,0.572481034643619,-0.572481034643619));
#1745=DIRECTION('center_axis',(-0.698217457033638,0.715885732986403,0.));
#1746=DIRECTION('ref_axis',(-0.715885732986403,-0.698217457033638,0.));
#1747=DIRECTION('',(-0.586967571460931,-0.572481034643619,-0.572481034643619));
#1748=DIRECTION('',(0.,0.,1.));
#1749=DIRECTION('',(0.586967571460931,0.572481034643619,0.572481034643619));
#1750=DIRECTION('center_axis',(0.698217457033638,0.715885732986403,0.));
#1751=DIRECTION('ref_axis',(-0.715885732986403,0.698217457033638,0.));
#1752=DIRECTION('',(-0.586967571460931,0.572481034643619,0.572481034643619));
#1753=DIRECTION('',(0.586967571460931,-0.572481034643619,-0.572481034643619));
#1754=DIRECTION('',(0.,0.,1.));
#1755=DIRECTION('center_axis',(-0.698217457033638,-0.715885732986403,0.));
#1756=DIRECTION('ref_axis',(0.715885732986403,-0.698217457033638,0.));
#1757=DIRECTION('',(0.586967571460931,-0.572481034643619,-0.572481034643619));
#1758=DIRECTION('',(-0.586967571460931,0.572481034643619,-0.572481034643619));
#1759=DIRECTION('',(-0.586967571460931,0.572481034643619,0.572481034643619));
#1760=DIRECTION('center_axis',(0.698217457033638,-0.715885732986403,0.));
#1761=DIRECTION('ref_axis',(0.715885732986403,0.698217457033638,0.));
#1762=DIRECTION('',(-0.586967571460931,-0.572481034643619,-0.572481034643619));
#1763=DIRECTION('',(-0.586967571460931,-0.572481034643619,0.572481034643619));
#1764=DIRECTION('',(0.586967571460931,0.572481034643619,0.572481034643619));
#1765=DIRECTION('center_axis',(0.,1.,0.));
#1766=DIRECTION('ref_axis',(-1.,0.,0.));
#1767=DIRECTION('',(-1.,0.,0.));
#1768=DIRECTION('',(1.,0.,0.));
#1769=DIRECTION('center_axis',(0.,-1.,0.));
#1770=DIRECTION('ref_axis',(0.,0.,1.));
#1771=DIRECTION('center_axis',(0.,-0.707106781186547,0.707106781186548));
#1772=DIRECTION('ref_axis',(0.,0.707106781186548,0.707106781186547));
#1773=DIRECTION('',(-1.,0.,0.));
#1774=DIRECTION('center_axis',(0.,0.707106781186548,0.707106781186548));
#1775=DIRECTION('ref_axis',(0.,0.707106781186548,-0.707106781186548));
#1776=DIRECTION('',(-1.,0.,0.));
#1777=DIRECTION('center_axis',(0.,0.707106781186548,-0.707106781186547));
#1778=DIRECTION('ref_axis',(0.,-0.707106781186547,-0.707106781186548));
#1779=CARTESIAN_POINT('',(0.,0.,0.));
#1780=CARTESIAN_POINT('Origin',(-48.,0.,5.54));
#1781=CARTESIAN_POINT('',(-36.3417818818169,23.,8.03999999999999));
#1782=CARTESIAN_POINT('',(-59.6582181181832,23.,8.03999999999999));
#1783=CARTESIAN_POINT('Ctrl Pts',(-59.6582181181831,23.,8.04000000000001));
#1784=CARTESIAN_POINT('Ctrl Pts',(-48.,17.1953461619844,2.23534616198442));
#1785=CARTESIAN_POINT('Ctrl Pts',(-36.3417818818169,23.,8.04000000000002));
#1786=CARTESIAN_POINT('',(-35.6522845014157,22.637313702318,8.04));
#1787=CARTESIAN_POINT('Origin',(-48.,0.,8.04));
#1788=CARTESIAN_POINT('',(-35.6522845014158,11.3710720347933,3.03999999999999));
#1789=CARTESIAN_POINT('Ctrl Pts',(-35.6522845014158,22.6373137023181,8.04000000000002));
#1790=CARTESIAN_POINT('Ctrl Pts',(-35.6522845014158,15.8133101164876,4.71180414305646));
#1791=CARTESIAN_POINT('Ctrl Pts',(-35.6522845014157,11.3710720347931,3.03999999999993));
#1792=CARTESIAN_POINT('',(-60.,11.7374340149129,3.03999999999999));
#1793=CARTESIAN_POINT('Origin',(-48.,0.,3.03999999999999));
#1794=CARTESIAN_POINT('',(-60.,22.8235415676694,8.04));
#1795=CARTESIAN_POINT('Ctrl Pts',(-60.,11.7374340149129,3.03999999999999));
#1796=CARTESIAN_POINT('Ctrl Pts',(-60.,16.1086458708215,4.73807619968173));
#1797=CARTESIAN_POINT('Ctrl Pts',(-60.,22.8235415676694,8.04));
#1798=CARTESIAN_POINT('Origin',(-48.,0.,8.04));
#1799=CARTESIAN_POINT('Origin',(-60.,23.,8.04));
#1800=CARTESIAN_POINT('',(-60.,23.,8.03999999999999));
#1801=CARTESIAN_POINT('',(-60.,23.,8.04));
#1802=CARTESIAN_POINT('',(12.,23.,8.03999999999999));
#1803=CARTESIAN_POINT('Origin',(0.,0.,5.54));
#1804=CARTESIAN_POINT('',(11.6582181181831,23.,8.03999999999999));
#1805=CARTESIAN_POINT('',(-11.6582181181831,23.,8.03999999999999));
#1806=CARTESIAN_POINT('Ctrl Pts',(-11.6582181181831,23.,8.04));
#1807=CARTESIAN_POINT('Ctrl Pts',(-2.22044604925031E-15,17.1953461619844,
2.23534616198442));
#1808=CARTESIAN_POINT('Ctrl Pts',(11.6582181181831,23.,8.04));
#1809=CARTESIAN_POINT('',(12.,22.8235415676694,8.04));
#1810=CARTESIAN_POINT('Origin',(0.,0.,8.04));
#1811=CARTESIAN_POINT('',(12.,11.7374340149129,3.04));
#1812=CARTESIAN_POINT('Ctrl Pts',(12.,22.8235415676694,8.04));
#1813=CARTESIAN_POINT('Ctrl Pts',(12.,16.1086458708215,4.73807619968174));
#1814=CARTESIAN_POINT('Ctrl Pts',(12.,11.7374340149128,3.03999999999996));
#1815=CARTESIAN_POINT('',(-12.3477154985843,11.3710720347932,3.04));
#1816=CARTESIAN_POINT('Origin',(0.,0.,3.04));
#1817=CARTESIAN_POINT('',(-12.3477154985843,22.637313702318,8.03999999999999));
#1818=CARTESIAN_POINT('Ctrl Pts',(-12.3477154985843,11.3710720347932,3.04));
#1819=CARTESIAN_POINT('Ctrl Pts',(-12.3477154985843,15.8133101164876,4.71180414305648));
#1820=CARTESIAN_POINT('Ctrl Pts',(-12.3477154985843,22.637313702318,8.04));
#1821=CARTESIAN_POINT('Origin',(0.,0.,8.04));
#1822=CARTESIAN_POINT('Origin',(-12.,23.,8.04));
#1823=CARTESIAN_POINT('',(-12.3477154985843,23.,8.03999999999999));
#1824=CARTESIAN_POINT('',(-12.3477154985843,23.,8.03999999999999));
#1825=CARTESIAN_POINT('',(12.,23.,8.03999999999999));
#1826=CARTESIAN_POINT('Origin',(-12.,23.,8.04));
#1827=CARTESIAN_POINT('',(12.,23.,8.03999999999999));
#1828=CARTESIAN_POINT('',(12.,23.,8.03999999999999));
#1829=CARTESIAN_POINT('',(12.,23.,8.04));
#1830=CARTESIAN_POINT('Origin',(12.,23.9899494936612,14.005122870312));
#1831=CARTESIAN_POINT('',(-24.,36.3203219645559,26.3354953412067));
#1832=CARTESIAN_POINT('',(-10.3426095163479,23.,13.0151733766509));
#1833=CARTESIAN_POINT('',(-4.98508051151219,17.7746964279683,7.78986980461919));
#1834=CARTESIAN_POINT('',(-37.6573904836521,23.,13.0151733766509));
#1835=CARTESIAN_POINT('',(-26.7228115242116,33.6647102505381,23.6798836271889));
#1836=CARTESIAN_POINT('',(-57.9948940177636,23.,13.0151733766509));
#1837=CARTESIAN_POINT('',(12.,23.,13.0151733766509));
#1838=CARTESIAN_POINT('',(-31.5454286711149,48.7966845591365,38.8118579357873));
#1839=CARTESIAN_POINT('',(-48.136681070517,32.614909276385,22.6300826530359));
#1840=CARTESIAN_POINT('',(-16.4545713288851,48.7966845591365,38.8118579357873));
#1841=CARTESIAN_POINT('',(12.,48.7966845591365,38.8118579357873));
#1842=CARTESIAN_POINT('',(9.99489401776365,23.,13.0151733766509));
#1843=CARTESIAN_POINT('',(2.79194530648584,30.0251777631496,20.0403511398004));
#1844=CARTESIAN_POINT('',(12.,23.,13.0151733766509));
#1845=CARTESIAN_POINT('Origin',(-25.0599710975112,35.2865112736429,0.));
#1846=CARTESIAN_POINT('',(-24.,36.3203219645559,23.3402209518782));
#1847=CARTESIAN_POINT('',(-24.,36.3203219645559,0.));
#1848=CARTESIAN_POINT('',(-37.6573904836521,23.,10.0198989873223));
#1849=CARTESIAN_POINT('',(-17.3805633789101,42.7763888920141,29.7962878793365));
#1850=CARTESIAN_POINT('',(-37.6573904836521,23.,4.02));
#1851=CARTESIAN_POINT('Origin',(12.,50.2943217538007,37.3142207411231));
#1852=CARTESIAN_POINT('',(-10.3426095163479,23.,10.0198989873223));
#1853=CARTESIAN_POINT('',(-14.3273286568137,26.8863750694444,13.9062740567667));
#1854=CARTESIAN_POINT('',(9.99489401776365,23.,10.0198989873223));
#1855=CARTESIAN_POINT('',(12.,23.,10.0198989873223));
#1856=CARTESIAN_POINT('',(-17.9901059822364,50.2943217538007,37.3142207411231));
#1857=CARTESIAN_POINT('',(-6.55030283881567,39.1368564046256,26.156755391948));
#1858=CARTESIAN_POINT('',(-30.0098940177637,50.2943217538007,37.3142207411231));
#1859=CARTESIAN_POINT('',(12.,50.2943217538007,37.3142207411231));
#1860=CARTESIAN_POINT('',(-57.9948940177636,23.,10.0198989873223));
#1861=CARTESIAN_POINT('',(-38.7944329252155,41.7265879178611,28.7464869051834));
#1862=CARTESIAN_POINT('',(12.,23.,10.0198989873223));
#1863=CARTESIAN_POINT('Origin',(-35.6522845014158,23.,8.04));
#1864=CARTESIAN_POINT('',(-35.6522845014158,11.3710720347933,13.7));
#1865=CARTESIAN_POINT('',(-35.6522845014158,11.3710720347933,0.));
#1866=CARTESIAN_POINT('',(-35.6522845014157,23.,8.04));
#1867=CARTESIAN_POINT('',(-35.6522845014157,23.,8.04));
#1868=CARTESIAN_POINT('',(-35.6522845014157,23.,14.9950723639732));
#1869=CARTESIAN_POINT('',(-35.6522845014158,23.,4.02));
#1870=CARTESIAN_POINT('',(-35.6522845014157,11.2220526915927,14.9950723639732));
#1871=CARTESIAN_POINT('',(-35.6522845014157,23.,14.9950723639732));
#1872=CARTESIAN_POINT('Ctrl Pts',(-35.6522845014158,11.3710720347933,13.7));
#1873=CARTESIAN_POINT('Ctrl Pts',(-35.6522845014158,11.2963384460646,14.3518071900576));
#1874=CARTESIAN_POINT('Ctrl Pts',(-35.6522845014158,11.2220526915927,14.9950723639732));
#1875=CARTESIAN_POINT('Origin',(-48.,0.,0.));
#1876=CARTESIAN_POINT('',(-64.7859273575944,-2.05568322091979E-15,13.7));
#1877=CARTESIAN_POINT('Origin',(-48.,0.,13.7));
#1878=CARTESIAN_POINT('',(-64.7859273575944,2.05568322091979E-15,3.));
#1879=CARTESIAN_POINT('',(-64.7859273575944,-2.05568322091979E-15,0.));
#1880=CARTESIAN_POINT('Origin',(-48.,0.,3.));
#1881=CARTESIAN_POINT('',(-60.,11.7374340149129,13.7));
#1882=CARTESIAN_POINT('Origin',(-48.,0.,13.7));
#1883=CARTESIAN_POINT('',(-60.,11.7374340149129,0.));
#1884=CARTESIAN_POINT('Origin',(-48.,0.,18.85));
#1885=CARTESIAN_POINT('',(-64.0091583619906,-3.92111290901098E-15,23.7009008183984));
#1886=CARTESIAN_POINT('Origin',(-48.,-9.80278227252744E-16,23.7009008183984));
#1887=CARTESIAN_POINT('',(-64.3859273575944,-2.0066973489539E-15,18.85));
#1888=CARTESIAN_POINT('',(-60.,11.5931248870553,14.9950723639732));
#1889=CARTESIAN_POINT('Origin',(-48.,0.,14.9950723639732));
#1890=CARTESIAN_POINT('Ctrl Pts',(-60.,11.7374340149129,13.7));
#1891=CARTESIAN_POINT('Ctrl Pts',(-60.,11.6650626114557,14.3515414602856));
#1892=CARTESIAN_POINT('Ctrl Pts',(-60.,11.5931248870553,14.9950723639732));
#1893=CARTESIAN_POINT('Origin',(-12.3477154985843,23.,14.9950723639732));
#1894=CARTESIAN_POINT('',(-12.3477154985843,11.3710720347932,13.7));
#1895=CARTESIAN_POINT('',(-12.3477154985843,11.3710720347932,0.));
#1896=CARTESIAN_POINT('',(-12.3477154985843,11.2220526915927,14.9950723639732));
#1897=CARTESIAN_POINT('Ctrl Pts',(-12.3477154985843,11.2220526915927,14.9950723639732));
#1898=CARTESIAN_POINT('Ctrl Pts',(-12.3477154985843,11.2963384460628,14.3518071900736));
#1899=CARTESIAN_POINT('Ctrl Pts',(-12.3477154985843,11.3710720347932,13.7));
#1900=CARTESIAN_POINT('',(-12.3477154985843,23.,14.9950723639732));
#1901=CARTESIAN_POINT('',(-12.3477154985843,23.,14.9950723639732));
#1902=CARTESIAN_POINT('',(-12.3477154985843,23.,4.02));
#1903=CARTESIAN_POINT('Origin',(0.,0.,18.85));
#1904=CARTESIAN_POINT('',(-16.0091583619906,-3.92111290901098E-15,23.7009008183984));
#1905=CARTESIAN_POINT('Origin',(0.,-9.80278227252744E-16,23.7009008183984));
#1906=CARTESIAN_POINT('',(-16.7859273575944,-2.05568322091979E-15,13.7));
#1907=CARTESIAN_POINT('',(-16.3859273575944,-2.0066973489539E-15,18.85));
#1908=CARTESIAN_POINT('',(12.,11.7374340149129,13.7));
#1909=CARTESIAN_POINT('Origin',(0.,0.,13.7));
#1910=CARTESIAN_POINT('',(12.,11.5931248870553,14.9950723639732));
#1911=CARTESIAN_POINT('Ctrl Pts',(12.,11.7374340149129,13.7));
#1912=CARTESIAN_POINT('Ctrl Pts',(12.,11.6650626114428,14.3515414604014));
#1913=CARTESIAN_POINT('Ctrl Pts',(12.,11.5931248870553,14.9950723639732));
#1914=CARTESIAN_POINT('Origin',(0.,0.,14.9950723639732));
#1915=CARTESIAN_POINT('Origin',(0.,0.,13.7));
#1916=CARTESIAN_POINT('Origin',(-60.,23.,8.04));
#1917=CARTESIAN_POINT('',(12.,23.,8.03999999999999));
#1918=CARTESIAN_POINT('Origin',(-36.,23.,14.9950723639732));
#1919=CARTESIAN_POINT('',(-60.,23.,14.9950723639732));
#1920=CARTESIAN_POINT('',(-60.,23.,14.9950723639732));
#1921=CARTESIAN_POINT('',(12.,23.,14.9950723639732));
#1922=CARTESIAN_POINT('Origin',(-48.,11.5057532018876,12.9950723639732));
#1923=CARTESIAN_POINT('',(-58.9981452340972,7.36724387442027,12.9950723639732));
#1924=CARTESIAN_POINT('',(-37.0018547659028,7.36724387442026,12.9950723639732));
#1925=CARTESIAN_POINT('Origin',(-48.,0.,12.9950723639732));
#1926=CARTESIAN_POINT('',(-58.,10.6508120332981,12.9950723639732));
#1927=CARTESIAN_POINT('Origin',(-63.9,10.6508120332981,12.9950723639732));
#1928=CARTESIAN_POINT('',(-58.,23.,12.9950723639732));
#1929=CARTESIAN_POINT('',(-58.,23.,12.9950723639732));
#1930=CARTESIAN_POINT('',(-57.9948940177637,23.,12.9950723639732));
#1931=CARTESIAN_POINT('',(-18.,23.,12.9950723639732));
#1932=CARTESIAN_POINT('',(-38.,23.,12.9950723639732));
#1933=CARTESIAN_POINT('',(-58.,23.,12.9950723639732));
#1934=CARTESIAN_POINT('',(-38.,10.6508120332981,12.9950723639732));
#1935=CARTESIAN_POINT('',(-38.,23.,12.9950723639732));
#1936=CARTESIAN_POINT('Origin',(-32.1,10.6508120332981,12.9950723639732));
#1937=CARTESIAN_POINT('Origin',(-48.,0.,10.04));
#1938=CARTESIAN_POINT('',(-38.,10.6508120332981,10.04));
#1939=CARTESIAN_POINT('',(-37.0018547659028,7.36724387442026,10.04));
#1940=CARTESIAN_POINT('Origin',(-32.1,10.6508120332981,10.04));
#1941=CARTESIAN_POINT('',(-38.,23.,10.04));
#1942=CARTESIAN_POINT('',(-38.,11.5057532018876,10.04));
#1943=CARTESIAN_POINT('',(-57.9948940177637,23.,10.04));
#1944=CARTESIAN_POINT('',(-38.,23.,10.04));
#1945=CARTESIAN_POINT('',(-58.,23.,10.04));
#1946=CARTESIAN_POINT('',(-18.,23.,10.04));
#1947=CARTESIAN_POINT('',(-58.,10.6508120332981,10.04));
#1948=CARTESIAN_POINT('',(-58.,11.5057532018876,10.04));
#1949=CARTESIAN_POINT('',(-58.9981452340972,7.36724387442027,10.04));
#1950=CARTESIAN_POINT('Origin',(-63.9,10.6508120332981,10.04));
#1951=CARTESIAN_POINT('',(-34.7623460954942,-1.62114504823735E-15,10.04));
#1952=CARTESIAN_POINT('Origin',(-48.,0.,10.04));
#1953=CARTESIAN_POINT('Origin',(-48.,0.,10.04));
#1954=CARTESIAN_POINT('',(-36.9999998360872,1.34711149913561E-15,10.04));
#1955=CARTESIAN_POINT('Origin',(-48.,0.,10.04));
#1956=CARTESIAN_POINT('Origin',(-60.,23.,14.9950723639732));
#1957=CARTESIAN_POINT('',(-60.,23.,8.03999999999999));
#1958=CARTESIAN_POINT('Origin',(-48.,23.,11.5175361819866));
#1959=CARTESIAN_POINT('',(-57.9948940177637,23.,4.02));
#1960=CARTESIAN_POINT('',(-38.,23.,10.04));
#1961=CARTESIAN_POINT('',(-57.9948940177637,23.,4.02));
#1962=CARTESIAN_POINT('Origin',(-58.,15.1142563300522,11.5175361819866));
#1963=CARTESIAN_POINT('',(-58.,10.6508120332981,24.));
#1964=CARTESIAN_POINT('',(-58.,23.,9.7787680909933));
#1965=CARTESIAN_POINT('Origin',(-32.1,10.6508120332981,24.));
#1966=CARTESIAN_POINT('',(-38.,10.6508120332981,24.));
#1967=CARTESIAN_POINT('',(-37.0018547659028,7.36724387442026,24.));
#1968=CARTESIAN_POINT('Origin',(-38.,15.1142563300522,11.5175361819866));
#1969=CARTESIAN_POINT('Origin',(-63.9,10.6508120332981,24.));
#1970=CARTESIAN_POINT('',(-58.9981452340972,7.36724387442027,24.));
#1971=CARTESIAN_POINT('Origin',(-48.,0.,24.));
#1972=CARTESIAN_POINT('',(-34.7623460954942,-1.62114504823735E-15,23.5));
#1973=CARTESIAN_POINT('Origin',(-48.,0.,23.5));
#1974=CARTESIAN_POINT('',(-34.7623460954942,-1.62114504823735E-15,24.));
#1975=CARTESIAN_POINT('Origin',(-48.,0.,23.75));
#1976=CARTESIAN_POINT('',(-34.2623460954942,1.68237738819472E-15,24.));
#1977=CARTESIAN_POINT('Origin',(-48.,0.,24.));
#1978=CARTESIAN_POINT('',(-34.5123460954942,1.65176121821604E-15,23.75));
#1979=CARTESIAN_POINT('Origin',(-48.,0.,24.));
#1980=CARTESIAN_POINT('',(-63.6859273575944,1.92097207301358E-15,24.));
#1981=CARTESIAN_POINT('Origin',(-48.,0.,24.));
#1982=CARTESIAN_POINT('Origin',(-48.,0.,21.55));
#1983=CARTESIAN_POINT('',(-37.7999998658896,1.24913975155409E-15,25.));
#1984=CARTESIAN_POINT('Origin',(-48.,0.,25.));
#1985=CARTESIAN_POINT('',(-38.9999998658896,-1.10218213565641E-15,18.1));
#1986=CARTESIAN_POINT('',(-38.3999998658896,1.17566094360525E-15,21.55));
#1987=CARTESIAN_POINT('',(-57.0000001341105,-1.10218213565641E-15,18.1));
#1988=CARTESIAN_POINT('Origin',(-48.,0.,18.1));
#1989=CARTESIAN_POINT('Origin',(-48.,0.,18.1));
#1990=CARTESIAN_POINT('Origin',(-48.,0.,25.));
#1991=CARTESIAN_POINT('',(-36.9999998360872,1.34711149913561E-15,25.));
#1992=CARTESIAN_POINT('Origin',(-48.,0.,25.));
#1993=CARTESIAN_POINT('Origin',(-48.,0.,9.));
#1994=CARTESIAN_POINT('',(-57.0000001341105,-1.10218213565641E-15,9.));
#1995=CARTESIAN_POINT('',(-57.0000001341105,-1.10218213565641E-15,9.));
#1996=CARTESIAN_POINT('Origin',(-48.,0.,9.));
#1997=CARTESIAN_POINT('Origin',(-48.,0.,24.));
#1998=CARTESIAN_POINT('',(-36.9999998360872,1.34711149913561E-15,24.));
#1999=CARTESIAN_POINT('Origin',(-48.,-4.90139113626372E-16,23.8504504091992));
#2000=CARTESIAN_POINT('',(-63.8475428597925,9.60486036506792E-16,23.8504504091992));
#2001=CARTESIAN_POINT('Origin',(-48.,0.,9.));
#2002=CARTESIAN_POINT('',(-58.0009612099982,-1.22476451342212E-15,9.));
#2003=CARTESIAN_POINT('Origin',(-48.,0.,9.));
#2004=CARTESIAN_POINT('Origin',(-48.,0.,0.));
#2005=CARTESIAN_POINT('',(-58.0009612099982,-1.22476451342212E-15,0.5));
#2006=CARTESIAN_POINT('',(-58.0009612099982,-1.22476451342212E-15,0.));
#2007=CARTESIAN_POINT('Origin',(-48.,0.,0.5));
#2008=CARTESIAN_POINT('Origin',(-48.,0.,0.25));
#2009=CARTESIAN_POINT('',(-58.5009612099982,1.28599685337949E-15,0.));
#2010=CARTESIAN_POINT('',(-58.2509612099982,-1.2553806834008E-15,0.25));
#2011=CARTESIAN_POINT('Origin',(-48.,0.,0.));
#2012=CARTESIAN_POINT('Origin',(-48.,0.,0.));
#2013=CARTESIAN_POINT('',(-61.7859273575944,-1.68828918117559E-15,0.));
#2014=CARTESIAN_POINT('Origin',(-48.,0.,0.));
#2015=CARTESIAN_POINT('Origin',(-48.,0.,1.5));
#2016=CARTESIAN_POINT('',(-63.2859273575944,-1.87198620104769E-15,1.5));
#2017=CARTESIAN_POINT('Origin',(12.,23.,8.03999999999999));
#2018=CARTESIAN_POINT('',(-57.9948940177637,23.,4.02));
#2019=CARTESIAN_POINT('Origin',(12.,23.,14.9950723639732));
#2020=CARTESIAN_POINT('',(12.,23.,14.9950723639732));
#2021=CARTESIAN_POINT('',(12.,23.,14.9950723639732));
#2022=CARTESIAN_POINT('',(12.,23.,14.9950723639732));
#2023=CARTESIAN_POINT('Origin',(0.,0.,0.));
#2024=CARTESIAN_POINT('',(12.,11.7374340149129,0.));
#2025=CARTESIAN_POINT('',(-16.7859273575944,2.05568322091979E-15,3.));
#2026=CARTESIAN_POINT('',(-16.7859273575944,-2.05568322091979E-15,0.));
#2027=CARTESIAN_POINT('Origin',(0.,0.,3.));
#2028=CARTESIAN_POINT('Origin',(12.,23.,8.04));
#2029=CARTESIAN_POINT('',(12.,23.,8.03999999999999));
#2030=CARTESIAN_POINT('Origin',(0.,11.5057532018876,12.9950723639732));
#2031=CARTESIAN_POINT('',(-10.9981452340972,7.36724387442027,12.9950723639732));
#2032=CARTESIAN_POINT('',(10.9981452340972,7.36724387442026,12.9950723639732));
#2033=CARTESIAN_POINT('Origin',(0.,0.,12.9950723639732));
#2034=CARTESIAN_POINT('',(-10.,10.6508120332981,12.9950723639732));
#2035=CARTESIAN_POINT('Origin',(-15.9,10.6508120332981,12.9950723639732));
#2036=CARTESIAN_POINT('',(-10.,23.,12.9950723639732));
#2037=CARTESIAN_POINT('',(-10.,23.,12.9950723639732));
#2038=CARTESIAN_POINT('',(9.99489401776365,23.,12.9950723639732));
#2039=CARTESIAN_POINT('',(-10.,23.,12.9950723639732));
#2040=CARTESIAN_POINT('',(10.,23.,12.9950723639732));
#2041=CARTESIAN_POINT('',(6.,23.,12.9950723639732));
#2042=CARTESIAN_POINT('',(10.,10.6508120332981,12.9950723639732));
#2043=CARTESIAN_POINT('',(10.,23.,12.9950723639732));
#2044=CARTESIAN_POINT('Origin',(15.9,10.6508120332981,12.9950723639732));
#2045=CARTESIAN_POINT('Origin',(0.,0.,10.04));
#2046=CARTESIAN_POINT('',(10.,10.6508120332981,10.04));
#2047=CARTESIAN_POINT('',(10.9981452340972,7.36724387442026,10.04));
#2048=CARTESIAN_POINT('Origin',(15.9,10.6508120332981,10.04));
#2049=CARTESIAN_POINT('',(10.,23.,10.04));
#2050=CARTESIAN_POINT('',(10.,11.5057532018876,10.04));
#2051=CARTESIAN_POINT('',(9.99489401776365,23.,10.04));
#2052=CARTESIAN_POINT('',(6.,23.,10.04));
#2053=CARTESIAN_POINT('',(-10.,23.,10.04));
#2054=CARTESIAN_POINT('',(10.,23.,10.04));
#2055=CARTESIAN_POINT('',(-10.,10.6508120332981,10.04));
#2056=CARTESIAN_POINT('',(-10.,11.5057532018876,10.04));
#2057=CARTESIAN_POINT('',(-10.9981452340972,7.36724387442027,10.04));
#2058=CARTESIAN_POINT('Origin',(-15.9,10.6508120332981,10.04));
#2059=CARTESIAN_POINT('',(13.2376539045058,-1.62114504823735E-15,10.04));
#2060=CARTESIAN_POINT('Origin',(0.,0.,10.04));
#2061=CARTESIAN_POINT('Origin',(0.,0.,10.04));
#2062=CARTESIAN_POINT('',(11.0000001639128,1.34711149913561E-15,10.04));
#2063=CARTESIAN_POINT('Origin',(0.,0.,10.04));
#2064=CARTESIAN_POINT('Origin',(-2.22044604925031E-15,23.,11.5175361819866));
#2065=CARTESIAN_POINT('',(9.99489401776364,23.,4.02));
#2066=CARTESIAN_POINT('',(-10.,23.,12.9950723639732));
#2067=CARTESIAN_POINT('',(9.99489401776364,23.,4.02));
#2068=CARTESIAN_POINT('',(-10.3426095163479,23.,4.02));
#2069=CARTESIAN_POINT('Origin',(-10.,15.1142563300522,11.5175361819866));
#2070=CARTESIAN_POINT('',(-10.,10.6508120332981,24.));
#2071=CARTESIAN_POINT('Origin',(15.9,10.6508120332981,24.));
#2072=CARTESIAN_POINT('',(10.,10.6508120332981,24.));
#2073=CARTESIAN_POINT('',(10.9981452340972,7.36724387442026,24.));
#2074=CARTESIAN_POINT('Origin',(10.,15.1142563300522,11.5175361819866));
#2075=CARTESIAN_POINT('',(10.,23.,9.7787680909933));
#2076=CARTESIAN_POINT('Origin',(-15.9,10.6508120332981,24.));
#2077=CARTESIAN_POINT('',(-10.9981452340972,7.36724387442027,24.));
#2078=CARTESIAN_POINT('Origin',(0.,0.,24.));
#2079=CARTESIAN_POINT('',(13.2376539045058,-1.62114504823735E-15,23.5));
#2080=CARTESIAN_POINT('Origin',(0.,0.,23.5));
#2081=CARTESIAN_POINT('',(13.2376539045058,-1.62114504823735E-15,24.));
#2082=CARTESIAN_POINT('Origin',(0.,0.,23.75));
#2083=CARTESIAN_POINT('',(13.7376539045058,1.68237738819472E-15,24.));
#2084=CARTESIAN_POINT('Origin',(0.,0.,24.));
#2085=CARTESIAN_POINT('',(13.4876539045058,1.65176121821604E-15,23.75));
#2086=CARTESIAN_POINT('Origin',(0.,0.,24.));
#2087=CARTESIAN_POINT('',(-15.6859273575944,1.92097207301358E-15,24.));
#2088=CARTESIAN_POINT('Origin',(0.,0.,24.));
#2089=CARTESIAN_POINT('Origin',(0.,0.,21.55));
#2090=CARTESIAN_POINT('',(10.2000001341105,1.24913975155409E-15,25.));
#2091=CARTESIAN_POINT('Origin',(0.,0.,25.));
#2092=CARTESIAN_POINT('',(9.00000013411045,-1.10218213565641E-15,18.1));
#2093=CARTESIAN_POINT('',(9.60000013411045,1.17566094360525E-15,21.55));
#2094=CARTESIAN_POINT('',(-9.00000013411045,-1.10218213565641E-15,18.1));
#2095=CARTESIAN_POINT('Origin',(0.,0.,18.1));
#2096=CARTESIAN_POINT('Origin',(0.,0.,18.1));
#2097=CARTESIAN_POINT('Origin',(0.,0.,25.));
#2098=CARTESIAN_POINT('',(11.0000001639128,1.34711149913561E-15,25.));
#2099=CARTESIAN_POINT('Origin',(0.,0.,25.));
#2100=CARTESIAN_POINT('Origin',(0.,0.,9.));
#2101=CARTESIAN_POINT('',(-9.00000013411045,-1.10218213565641E-15,9.));
#2102=CARTESIAN_POINT('',(-9.00000013411045,-1.10218213565641E-15,9.));
#2103=CARTESIAN_POINT('Origin',(0.,0.,9.));
#2104=CARTESIAN_POINT('Origin',(0.,0.,24.));
#2105=CARTESIAN_POINT('',(11.0000001639128,1.34711149913561E-15,24.));
#2106=CARTESIAN_POINT('Origin',(0.,-4.90139113626372E-16,23.8504504091992));
#2107=CARTESIAN_POINT('',(-15.8475428597925,9.60486036506792E-16,23.8504504091992));
#2108=CARTESIAN_POINT('Origin',(0.,0.,9.));
#2109=CARTESIAN_POINT('',(-10.0009612099982,-1.22476451342212E-15,9.));
#2110=CARTESIAN_POINT('Origin',(0.,0.,9.));
#2111=CARTESIAN_POINT('Origin',(0.,0.,0.));
#2112=CARTESIAN_POINT('',(-10.0009612099982,-1.22476451342212E-15,0.5));
#2113=CARTESIAN_POINT('',(-10.0009612099982,-1.22476451342212E-15,0.));
#2114=CARTESIAN_POINT('Origin',(0.,0.,0.5));
#2115=CARTESIAN_POINT('Origin',(0.,0.,0.25));
#2116=CARTESIAN_POINT('',(-10.5009612099982,1.28599685337949E-15,0.));
#2117=CARTESIAN_POINT('',(-10.2509612099982,-1.2553806834008E-15,0.25));
#2118=CARTESIAN_POINT('Origin',(0.,0.,0.));
#2119=CARTESIAN_POINT('Origin',(0.,0.,0.));
#2120=CARTESIAN_POINT('',(-13.7859273575944,-1.68828918117559E-15,0.));
#2121=CARTESIAN_POINT('Origin',(0.,0.,0.));
#2122=CARTESIAN_POINT('Origin',(0.,0.,1.5));
#2123=CARTESIAN_POINT('',(-15.2859273575944,-1.87198620104769E-15,1.5));
#2124=CARTESIAN_POINT('Origin',(-11.3702110587372,24.002240026181,0.));
#2125=CARTESIAN_POINT('Origin',(-17.9775044398471,50.2820312212809,0.));
#2126=CARTESIAN_POINT('',(9.99489401776364,23.,4.02));
#2127=CARTESIAN_POINT('',(-18.2530201519567,50.5507471224618,37.057795372462));
#2128=CARTESIAN_POINT('Origin',(-59.0224955601529,21.997759973819,0.));
#2129=CARTESIAN_POINT('',(-27.0917156120745,53.1404786356973,34.4680638592265));
#2130=CARTESIAN_POINT('Origin',(-24.0824666576641,34.2842712474619,0.));
#2131=CARTESIAN_POINT('',(-24.0824666576641,34.2842712474619,19.3242712474619));
#2132=CARTESIAN_POINT('',(-15.4009773192714,42.7514988088084,27.7914988088084));
#2133=CARTESIAN_POINT('',(-24.0824666576641,34.2842712474619,26.2793436114351));
#2134=CARTESIAN_POINT('',(-24.0824666576641,34.2842712474619,0.));
#2135=CARTESIAN_POINT('',(-26.073827676781,32.3420576193128,24.337129983286));
#2136=CARTESIAN_POINT('Origin',(-12.3477154985843,23.,0.));
#2137=CARTESIAN_POINT('',(-23.9175333423359,34.2842712474619,19.3242712474619));
#2138=CARTESIAN_POINT('',(-16.3069147164524,26.8614849862387,11.9014849862387));
#2139=CARTESIAN_POINT('',(-23.9175333423359,34.2842712474619,26.2793436114351));
#2140=CARTESIAN_POINT('',(-5.63406435894282,16.4520437967431,8.44711616071628));
#2141=CARTESIAN_POINT('',(-23.9175333423359,34.2842712474619,0.));
#2142=CARTESIAN_POINT('Origin',(-17.,51.2842712474619,0.));
#2143=CARTESIAN_POINT('',(-17.,51.2842712474619,36.3242712474619));
#2144=CARTESIAN_POINT('',(-5.90131899138504,40.4595090358509,25.4995090358509));
#2145=CARTESIAN_POINT('',(-13.4344653466488,47.8067350654753,39.8018074294485));
#2146=CARTESIAN_POINT('',(-16.938735198422,51.2245184796773,36.3840240152465));
#2147=CARTESIAN_POINT('',(4.77153136612458,30.0500678463553,22.0451402103285));
#2148=CARTESIAN_POINT('Origin',(-60.,23.,0.));
#2149=CARTESIAN_POINT('',(-34.5655346533512,47.8067350654753,39.8018074294485));
#2150=CARTESIAN_POINT('',(-50.1162671301557,32.6397993595907,24.6348717235639));
#2151=CARTESIAN_POINT('',(-31.,51.2842712474619,36.3242712474619));
#2152=CARTESIAN_POINT('',(-28.4060005656091,53.8142499929127,33.7942925020111));
#2153=CARTESIAN_POINT('',(-39.4434167726461,43.0492405490863,28.0892405490863));
#2154=CARTESIAN_POINT('Origin',(-23.9175333423359,34.2842712474619,0.));
#2155=CARTESIAN_POINT('',(-5.95876667116793,34.2842712474619,19.3242712474619));
#2156=CARTESIAN_POINT('',(-5.95876667116793,34.2842712474619,26.2793436114351));
#2157=CARTESIAN_POINT('Origin',(12.,23.,8.03999999999999));
#2158=CARTESIAN_POINT('Origin',(12.,23.,14.9950723639732));
#2159=CARTESIAN_POINT('',(12.,47.8067350654753,39.8018074294485));
#2160=CARTESIAN_POINT('Origin',(12.,47.8067350654753,39.8018074294485));
#2161=CARTESIAN_POINT('',(12.,51.2842712474619,36.3242712474619));
#2162=CARTESIAN_POINT('Origin',(12.,51.2842712474619,36.3242712474619));
#2163=UNCERTAINTY_MEASURE_WITH_UNIT(LENGTH_MEASURE(0.01),#2167,
'DISTANCE_ACCURACY_VALUE',
'Maximum model space distance between geometric entities at asserted c
onnectivities');
#2164=UNCERTAINTY_MEASURE_WITH_UNIT(LENGTH_MEASURE(0.01),#2167,
'DISTANCE_ACCURACY_VALUE',
'Maximum model space distance between geometric entities at asserted c
onnectivities');
#2165=(
GEOMETRIC_REPRESENTATION_CONTEXT(3)
GLOBAL_UNCERTAINTY_ASSIGNED_CONTEXT((#2163))
GLOBAL_UNIT_ASSIGNED_CONTEXT((#2167,#2169,#2170))
REPRESENTATION_CONTEXT('','3D')
);
#2166=(
GEOMETRIC_REPRESENTATION_CONTEXT(3)
GLOBAL_UNCERTAINTY_ASSIGNED_CONTEXT((#2164))
GLOBAL_UNIT_ASSIGNED_CONTEXT((#2167,#2169,#2170))
REPRESENTATION_CONTEXT('','3D')
);
#2167=(
LENGTH_UNIT()
NAMED_UNIT(*)
SI_UNIT(.MILLI.,.METRE.)
);
#2168=(
LENGTH_UNIT()
NAMED_UNIT(*)
SI_UNIT($,.METRE.)
);
#2169=(
NAMED_UNIT(*)
PLANE_ANGLE_UNIT()
SI_UNIT($,.RADIAN.)
);
#2170=(
NAMED_UNIT(*)
SI_UNIT($,.STERADIAN.)
SOLID_ANGLE_UNIT()
);
#2171=SHAPE_DEFINITION_REPRESENTATION(#2172,#2173);
#2172=PRODUCT_DEFINITION_SHAPE('',$,#2175);
#2173=SHAPE_REPRESENTATION('',(#1279),#2165);
#2174=PRODUCT_DEFINITION_CONTEXT('part definition',#2179,'design');
#2175=PRODUCT_DEFINITION('2026-09-30-16-13-53-106',
'\X2\043C043A043C043104400430043D044804420443043A0438\X0\',#2176,#2174);
#2176=PRODUCT_DEFINITION_FORMATION('',$,#2181);
#2177=PRODUCT_RELATED_PRODUCT_CATEGORY('\X2\043C043A043C043104400430043D044804420443043A0438\X0\',
'\X2\043C043A043C043104400430043D044804420443043A0438\X0\',(#2181));
#2178=APPLICATION_PROTOCOL_DEFINITION('international standard',
'automotive_design',2009,#2179);
#2179=APPLICATION_CONTEXT(
'Core Data for Automotive Mechanical Design Process');
#2180=PRODUCT_CONTEXT('part definition',#2179,'mechanical');
#2181=PRODUCT('2026-09-30-16-13-53-106','\X2\043C043A043C043104400430043D044804420443043A0438\X0\',
$,(#2180));
#2182=PRESENTATION_STYLE_ASSIGNMENT((#2183));
#2183=SURFACE_STYLE_USAGE(.BOTH.,#2184);
#2184=SURFACE_SIDE_STYLE('',(#2185));
#2185=SURFACE_STYLE_FILL_AREA(#2186);
#2186=FILL_AREA_STYLE('Steel - Satin',(#2187));
#2187=FILL_AREA_STYLE_COLOUR('Steel - Satin',#2188);
#2188=COLOUR_RGB('Steel - Satin',0.627450980392157,0.627450980392157,0.627450980392157);
ENDSEC;
END-ISO-10303-21;
