ISO-10303-21;
HEADER;
/* Generated by software containing ST-Developer
 * from STEP Tools, Inc. (www.steptools.com) 
 */

FILE_DESCRIPTION(
/* description */ (''),
/* implementation_level */ '2;1');

FILE_NAME(
/* name */ '',
/* time_stamp */ '2026-09-30T16:49:17+07:00',
/* author */ (''),
/* organization */ (''),
/* preprocessor_version */ 'ST-DEVELOPER v20.2',
/* originating_system */ 'Autodesk Translation Framework v15.15.0.0',
/* authorisation */ '');

FILE_SCHEMA (('AUTOMOTIVE_DESIGN { 1 0 10303 214 3 1 1 }'));
ENDSEC;

DATA;
#10=MECHANICAL_DESIGN_GEOMETRIC_PRESENTATION_REPRESENTATION('',(#13),#1071);
#11=SHAPE_REPRESENTATION_RELATIONSHIP('SRR','None',#1078,#12);
#12=ADVANCED_BREP_SHAPE_REPRESENTATION('',(#14),#1070);
#13=STYLED_ITEM('',(#1087),#14);
#14=MANIFOLD_SOLID_BREP('\X2\044104350442043A0430\X0\ (1) (1)',#611);
#15=CONICAL_SURFACE('',#683,16.3859273575944,0.0775142816307919);
#16=CONICAL_SURFACE('',#685,17.9000002682209,0.785398163397448);
#17=CONICAL_SURFACE('',#695,19.0000002980232,0.785398163397448);
#18=FACE_BOUND('',#96,.T.);
#19=FACE_BOUND('',#97,.T.);
#20=FACE_BOUND('',#98,.T.);
#21=FACE_BOUND('',#99,.T.);
#22=FACE_BOUND('',#104,.T.);
#23=FACE_BOUND('',#105,.T.);
#24=FACE_BOUND('',#106,.T.);
#25=FACE_BOUND('',#107,.T.);
#26=FACE_BOUND('',#110,.T.);
#27=PLANE('',#628);
#28=PLANE('',#632);
#29=PLANE('',#636);
#30=PLANE('',#640);
#31=PLANE('',#644);
#32=PLANE('',#651);
#33=PLANE('',#658);
#34=PLANE('',#665);
#35=PLANE('',#681);
#36=PLANE('',#690);
#37=PLANE('',#693);
#38=FACE_OUTER_BOUND('',#71,.T.);
#39=FACE_OUTER_BOUND('',#72,.T.);
#40=FACE_OUTER_BOUND('',#73,.T.);
#41=FACE_OUTER_BOUND('',#74,.T.);
#42=FACE_OUTER_BOUND('',#75,.T.);
#43=FACE_OUTER_BOUND('',#76,.T.);
#44=FACE_OUTER_BOUND('',#77,.T.);
#45=FACE_OUTER_BOUND('',#78,.T.);
#46=FACE_OUTER_BOUND('',#79,.T.);
#47=FACE_OUTER_BOUND('',#80,.T.);
#48=FACE_OUTER_BOUND('',#81,.T.);
#49=FACE_OUTER_BOUND('',#82,.T.);
#50=FACE_OUTER_BOUND('',#83,.T.);
#51=FACE_OUTER_BOUND('',#84,.T.);
#52=FACE_OUTER_BOUND('',#85,.T.);
#53=FACE_OUTER_BOUND('',#86,.T.);
#54=FACE_OUTER_BOUND('',#87,.T.);
#55=FACE_OUTER_BOUND('',#88,.T.);
#56=FACE_OUTER_BOUND('',#89,.T.);
#57=FACE_OUTER_BOUND('',#90,.T.);
#58=FACE_OUTER_BOUND('',#91,.T.);
#59=FACE_OUTER_BOUND('',#92,.T.);
#60=FACE_OUTER_BOUND('',#93,.T.);
#61=FACE_OUTER_BOUND('',#94,.T.);
#62=FACE_OUTER_BOUND('',#95,.T.);
#63=FACE_OUTER_BOUND('',#100,.T.);
#64=FACE_OUTER_BOUND('',#101,.T.);
#65=FACE_OUTER_BOUND('',#102,.T.);
#66=FACE_OUTER_BOUND('',#103,.T.);
#67=FACE_OUTER_BOUND('',#108,.T.);
#68=FACE_OUTER_BOUND('',#109,.T.);
#69=FACE_OUTER_BOUND('',#111,.T.);
#70=FACE_OUTER_BOUND('',#112,.T.);
#71=EDGE_LOOP('',(#387,#388,#389,#390));
#72=EDGE_LOOP('',(#391,#392,#393,#394));
#73=EDGE_LOOP('',(#395,#396,#397,#398));
#74=EDGE_LOOP('',(#399,#400,#401,#402));
#75=EDGE_LOOP('',(#403,#404,#405,#406));
#76=EDGE_LOOP('',(#407,#408,#409,#410));
#77=EDGE_LOOP('',(#411,#412,#413,#414));
#78=EDGE_LOOP('',(#415,#416,#417,#418));
#79=EDGE_LOOP('',(#419,#420,#421,#422));
#80=EDGE_LOOP('',(#423,#424,#425,#426));
#81=EDGE_LOOP('',(#427,#428,#429,#430));
#82=EDGE_LOOP('',(#431,#432,#433,#434));
#83=EDGE_LOOP('',(#435,#436,#437,#438));
#84=EDGE_LOOP('',(#439,#440,#441,#442));
#85=EDGE_LOOP('',(#443,#444,#445,#446));
#86=EDGE_LOOP('',(#447,#448,#449,#450));
#87=EDGE_LOOP('',(#451,#452,#453,#454));
#88=EDGE_LOOP('',(#455,#456,#457,#458));
#89=EDGE_LOOP('',(#459,#460,#461,#462));
#90=EDGE_LOOP('',(#463,#464,#465,#466));
#91=EDGE_LOOP('',(#467,#468,#469,#470));
#92=EDGE_LOOP('',(#471,#472,#473,#474));
#93=EDGE_LOOP('',(#475,#476,#477,#478));
#94=EDGE_LOOP('',(#479,#480,#481,#482));
#95=EDGE_LOOP('',(#483));
#96=EDGE_LOOP('',(#484,#485,#486,#487,#488,#489));
#97=EDGE_LOOP('',(#490,#491,#492,#493,#494,#495));
#98=EDGE_LOOP('',(#496,#497,#498,#499,#500,#501));
#99=EDGE_LOOP('',(#502,#503,#504,#505,#506,#507));
#100=EDGE_LOOP('',(#508,#509,#510,#511));
#101=EDGE_LOOP('',(#512,#513,#514,#515));
#102=EDGE_LOOP('',(#516,#517,#518,#519));
#103=EDGE_LOOP('',(#520));
#104=EDGE_LOOP('',(#521,#522,#523,#524,#525,#526));
#105=EDGE_LOOP('',(#527,#528,#529,#530,#531,#532));
#106=EDGE_LOOP('',(#533,#534,#535,#536,#537,#538));
#107=EDGE_LOOP('',(#539,#540,#541,#542,#543,#544));
#108=EDGE_LOOP('',(#545,#546,#547,#548));
#109=EDGE_LOOP('',(#549));
#110=EDGE_LOOP('',(#550));
#111=EDGE_LOOP('',(#551,#552,#553,#554));
#112=EDGE_LOOP('',(#555,#556,#557,#558));
#113=LINE('',#898,#159);
#114=LINE('',#901,#160);
#115=LINE('',#904,#161);
#116=LINE('',#906,#162);
#117=LINE('',#907,#163);
#118=LINE('',#913,#164);
#119=LINE('',#916,#165);
#120=LINE('',#919,#166);
#121=LINE('',#921,#167);
#122=LINE('',#922,#168);
#123=LINE('',#928,#169);
#124=LINE('',#931,#170);
#125=LINE('',#934,#171);
#126=LINE('',#936,#172);
#127=LINE('',#937,#173);
#128=LINE('',#943,#174);
#129=LINE('',#946,#175);
#130=LINE('',#949,#176);
#131=LINE('',#951,#177);
#132=LINE('',#952,#178);
#133=LINE('',#958,#179);
#134=LINE('',#961,#180);
#135=LINE('',#963,#181);
#136=LINE('',#964,#182);
#137=LINE('',#970,#183);
#138=LINE('',#976,#184);
#139=LINE('',#979,#185);
#140=LINE('',#981,#186);
#141=LINE('',#982,#187);
#142=LINE('',#988,#188);
#143=LINE('',#994,#189);
#144=LINE('',#997,#190);
#145=LINE('',#999,#191);
#146=LINE('',#1000,#192);
#147=LINE('',#1006,#193);
#148=LINE('',#1012,#194);
#149=LINE('',#1015,#195);
#150=LINE('',#1017,#196);
#151=LINE('',#1018,#197);
#152=LINE('',#1024,#198);
#153=LINE('',#1038,#199);
#154=LINE('',#1045,#200);
#155=LINE('',#1050,#201);
#156=LINE('',#1055,#202);
#157=LINE('',#1064,#203);
#158=LINE('',#1067,#204);
#159=VECTOR('',#704,10.);
#160=VECTOR('',#707,10.);
#161=VECTOR('',#710,10.);
#162=VECTOR('',#711,10.);
#163=VECTOR('',#712,10.);
#164=VECTOR('',#717,10.);
#165=VECTOR('',#720,10.);
#166=VECTOR('',#723,10.);
#167=VECTOR('',#724,10.);
#168=VECTOR('',#725,10.);
#169=VECTOR('',#730,10.);
#170=VECTOR('',#733,10.);
#171=VECTOR('',#736,10.);
#172=VECTOR('',#737,10.);
#173=VECTOR('',#738,10.);
#174=VECTOR('',#743,10.);
#175=VECTOR('',#746,10.);
#176=VECTOR('',#749,10.);
#177=VECTOR('',#750,10.);
#178=VECTOR('',#751,10.);
#179=VECTOR('',#756,10.);
#180=VECTOR('',#759,10.);
#181=VECTOR('',#762,10.);
#182=VECTOR('',#763,10.);
#183=VECTOR('',#770,10.);
#184=VECTOR('',#775,10.);
#185=VECTOR('',#778,10.);
#186=VECTOR('',#781,10.);
#187=VECTOR('',#782,10.);
#188=VECTOR('',#789,10.);
#189=VECTOR('',#794,10.);
#190=VECTOR('',#797,10.);
#191=VECTOR('',#800,10.);
#192=VECTOR('',#801,10.);
#193=VECTOR('',#808,10.);
#194=VECTOR('',#813,10.);
#195=VECTOR('',#816,10.);
#196=VECTOR('',#819,10.);
#197=VECTOR('',#820,10.);
#198=VECTOR('',#827,10.);
#199=VECTOR('',#850,15.9859273575944);
#200=VECTOR('',#861,16.3859273575944);
#201=VECTOR('',#866,17.9000002682209);
#202=VECTOR('',#873,18.0000002682209);
#203=VECTOR('',#886,19.0000002980232);
#204=VECTOR('',#891,20.0000002980232);
#205=CIRCLE('',#626,2.);
#206=CIRCLE('',#627,2.);
#207=CIRCLE('',#630,2.);
#208=CIRCLE('',#631,2.);
#209=CIRCLE('',#634,2.);
#210=CIRCLE('',#635,2.);
#211=CIRCLE('',#638,2.);
#212=CIRCLE('',#639,2.);
#213=CIRCLE('',#642,2.);
#214=CIRCLE('',#643,2.);
#215=CIRCLE('',#646,2.);
#216=CIRCLE('',#647,2.);
#217=CIRCLE('',#649,2.);
#218=CIRCLE('',#650,2.);
#219=CIRCLE('',#653,2.);
#220=CIRCLE('',#654,2.);
#221=CIRCLE('',#656,2.);
#222=CIRCLE('',#657,2.);
#223=CIRCLE('',#660,2.);
#224=CIRCLE('',#661,2.);
#225=CIRCLE('',#663,2.);
#226=CIRCLE('',#664,2.);
#227=CIRCLE('',#667,2.);
#228=CIRCLE('',#668,2.);
#229=CIRCLE('',#670,15.314519051052);
#230=CIRCLE('',#671,15.314519051052);
#231=CIRCLE('',#673,15.314519051052);
#232=CIRCLE('',#674,15.314519051052);
#233=CIRCLE('',#676,15.314519051052);
#234=CIRCLE('',#677,15.314519051052);
#235=CIRCLE('',#679,15.9859273575944);
#236=CIRCLE('',#680,15.9859273575944);
#237=CIRCLE('',#682,15.314519051052);
#238=CIRCLE('',#684,16.5296166779827);
#239=CIRCLE('',#686,17.8000002682209);
#240=CIRCLE('',#687,18.0000002682209);
#241=CIRCLE('',#689,18.0000002682209);
#242=CIRCLE('',#691,15.314519051052);
#243=CIRCLE('',#694,20.0000002980232);
#244=CIRCLE('',#696,20.0000002980232);
#245=VERTEX_POINT('',#894);
#246=VERTEX_POINT('',#895);
#247=VERTEX_POINT('',#897);
#248=VERTEX_POINT('',#899);
#249=VERTEX_POINT('',#903);
#250=VERTEX_POINT('',#905);
#251=VERTEX_POINT('',#909);
#252=VERTEX_POINT('',#910);
#253=VERTEX_POINT('',#912);
#254=VERTEX_POINT('',#914);
#255=VERTEX_POINT('',#918);
#256=VERTEX_POINT('',#920);
#257=VERTEX_POINT('',#924);
#258=VERTEX_POINT('',#925);
#259=VERTEX_POINT('',#927);
#260=VERTEX_POINT('',#929);
#261=VERTEX_POINT('',#933);
#262=VERTEX_POINT('',#935);
#263=VERTEX_POINT('',#939);
#264=VERTEX_POINT('',#940);
#265=VERTEX_POINT('',#942);
#266=VERTEX_POINT('',#944);
#267=VERTEX_POINT('',#948);
#268=VERTEX_POINT('',#950);
#269=VERTEX_POINT('',#954);
#270=VERTEX_POINT('',#955);
#271=VERTEX_POINT('',#957);
#272=VERTEX_POINT('',#959);
#273=VERTEX_POINT('',#966);
#274=VERTEX_POINT('',#968);
#275=VERTEX_POINT('',#972);
#276=VERTEX_POINT('',#973);
#277=VERTEX_POINT('',#975);
#278=VERTEX_POINT('',#977);
#279=VERTEX_POINT('',#984);
#280=VERTEX_POINT('',#986);
#281=VERTEX_POINT('',#990);
#282=VERTEX_POINT('',#991);
#283=VERTEX_POINT('',#993);
#284=VERTEX_POINT('',#995);
#285=VERTEX_POINT('',#1002);
#286=VERTEX_POINT('',#1004);
#287=VERTEX_POINT('',#1008);
#288=VERTEX_POINT('',#1009);
#289=VERTEX_POINT('',#1011);
#290=VERTEX_POINT('',#1013);
#291=VERTEX_POINT('',#1020);
#292=VERTEX_POINT('',#1022);
#293=VERTEX_POINT('',#1035);
#294=VERTEX_POINT('',#1037);
#295=VERTEX_POINT('',#1043);
#296=VERTEX_POINT('',#1047);
#297=VERTEX_POINT('',#1049);
#298=VERTEX_POINT('',#1053);
#299=VERTEX_POINT('',#1060);
#300=VERTEX_POINT('',#1063);
#301=EDGE_CURVE('',#245,#246,#205,.T.);
#302=EDGE_CURVE('',#246,#247,#113,.T.);
#303=EDGE_CURVE('',#247,#248,#206,.T.);
#304=EDGE_CURVE('',#248,#245,#114,.T.);
#305=EDGE_CURVE('',#246,#249,#115,.T.);
#306=EDGE_CURVE('',#250,#249,#116,.T.);
#307=EDGE_CURVE('',#247,#250,#117,.T.);
#308=EDGE_CURVE('',#251,#252,#207,.T.);
#309=EDGE_CURVE('',#252,#253,#118,.T.);
#310=EDGE_CURVE('',#253,#254,#208,.T.);
#311=EDGE_CURVE('',#254,#251,#119,.T.);
#312=EDGE_CURVE('',#255,#252,#120,.T.);
#313=EDGE_CURVE('',#256,#255,#121,.T.);
#314=EDGE_CURVE('',#253,#256,#122,.T.);
#315=EDGE_CURVE('',#257,#258,#209,.T.);
#316=EDGE_CURVE('',#258,#259,#123,.T.);
#317=EDGE_CURVE('',#259,#260,#210,.T.);
#318=EDGE_CURVE('',#260,#257,#124,.T.);
#319=EDGE_CURVE('',#258,#261,#125,.T.);
#320=EDGE_CURVE('',#262,#261,#126,.T.);
#321=EDGE_CURVE('',#259,#262,#127,.T.);
#322=EDGE_CURVE('',#263,#264,#211,.T.);
#323=EDGE_CURVE('',#264,#265,#128,.T.);
#324=EDGE_CURVE('',#265,#266,#212,.T.);
#325=EDGE_CURVE('',#266,#263,#129,.T.);
#326=EDGE_CURVE('',#267,#264,#130,.T.);
#327=EDGE_CURVE('',#268,#267,#131,.T.);
#328=EDGE_CURVE('',#265,#268,#132,.T.);
#329=EDGE_CURVE('',#269,#270,#213,.T.);
#330=EDGE_CURVE('',#270,#271,#133,.T.);
#331=EDGE_CURVE('',#271,#272,#214,.T.);
#332=EDGE_CURVE('',#272,#269,#134,.T.);
#333=EDGE_CURVE('',#271,#266,#135,.T.);
#334=EDGE_CURVE('',#270,#263,#136,.T.);
#335=EDGE_CURVE('',#273,#262,#215,.T.);
#336=EDGE_CURVE('',#261,#274,#216,.T.);
#337=EDGE_CURVE('',#274,#273,#137,.T.);
#338=EDGE_CURVE('',#275,#276,#217,.T.);
#339=EDGE_CURVE('',#276,#277,#138,.T.);
#340=EDGE_CURVE('',#277,#278,#218,.T.);
#341=EDGE_CURVE('',#278,#275,#139,.T.);
#342=EDGE_CURVE('',#277,#260,#140,.T.);
#343=EDGE_CURVE('',#257,#276,#141,.T.);
#344=EDGE_CURVE('',#279,#256,#219,.T.);
#345=EDGE_CURVE('',#255,#280,#220,.T.);
#346=EDGE_CURVE('',#280,#279,#142,.T.);
#347=EDGE_CURVE('',#281,#282,#221,.T.);
#348=EDGE_CURVE('',#282,#283,#143,.T.);
#349=EDGE_CURVE('',#283,#284,#222,.T.);
#350=EDGE_CURVE('',#284,#281,#144,.T.);
#351=EDGE_CURVE('',#283,#254,#145,.T.);
#352=EDGE_CURVE('',#282,#251,#146,.T.);
#353=EDGE_CURVE('',#285,#250,#223,.T.);
#354=EDGE_CURVE('',#249,#286,#224,.T.);
#355=EDGE_CURVE('',#286,#285,#147,.T.);
#356=EDGE_CURVE('',#287,#288,#225,.T.);
#357=EDGE_CURVE('',#288,#289,#148,.T.);
#358=EDGE_CURVE('',#289,#290,#226,.T.);
#359=EDGE_CURVE('',#290,#287,#149,.T.);
#360=EDGE_CURVE('',#289,#248,#150,.T.);
#361=EDGE_CURVE('',#245,#288,#151,.T.);
#362=EDGE_CURVE('',#291,#268,#227,.T.);
#363=EDGE_CURVE('',#267,#292,#228,.T.);
#364=EDGE_CURVE('',#292,#291,#152,.T.);
#365=EDGE_CURVE('',#281,#280,#229,.T.);
#366=EDGE_CURVE('',#279,#284,#230,.T.);
#367=EDGE_CURVE('',#287,#286,#231,.T.);
#368=EDGE_CURVE('',#285,#290,#232,.T.);
#369=EDGE_CURVE('',#275,#274,#233,.T.);
#370=EDGE_CURVE('',#273,#278,#234,.T.);
#371=EDGE_CURVE('',#293,#293,#235,.T.);
#372=EDGE_CURVE('',#293,#294,#153,.T.);
#373=EDGE_CURVE('',#294,#294,#236,.T.);
#374=EDGE_CURVE('',#291,#272,#237,.T.);
#375=EDGE_CURVE('',#295,#295,#238,.T.);
#376=EDGE_CURVE('',#295,#293,#154,.T.);
#377=EDGE_CURVE('',#296,#296,#239,.T.);
#378=EDGE_CURVE('',#296,#297,#155,.T.);
#379=EDGE_CURVE('',#297,#297,#240,.T.);
#380=EDGE_CURVE('',#298,#298,#241,.T.);
#381=EDGE_CURVE('',#298,#297,#156,.T.);
#382=EDGE_CURVE('',#269,#292,#242,.T.);
#383=EDGE_CURVE('',#299,#299,#243,.T.);
#384=EDGE_CURVE('',#298,#300,#157,.T.);
#385=EDGE_CURVE('',#300,#300,#244,.T.);
#386=EDGE_CURVE('',#299,#300,#158,.T.);
#387=ORIENTED_EDGE('',*,*,#301,.T.);
#388=ORIENTED_EDGE('',*,*,#302,.T.);
#389=ORIENTED_EDGE('',*,*,#303,.T.);
#390=ORIENTED_EDGE('',*,*,#304,.T.);
#391=ORIENTED_EDGE('',*,*,#302,.F.);
#392=ORIENTED_EDGE('',*,*,#305,.T.);
#393=ORIENTED_EDGE('',*,*,#306,.F.);
#394=ORIENTED_EDGE('',*,*,#307,.F.);
#395=ORIENTED_EDGE('',*,*,#308,.T.);
#396=ORIENTED_EDGE('',*,*,#309,.T.);
#397=ORIENTED_EDGE('',*,*,#310,.T.);
#398=ORIENTED_EDGE('',*,*,#311,.T.);
#399=ORIENTED_EDGE('',*,*,#309,.F.);
#400=ORIENTED_EDGE('',*,*,#312,.F.);
#401=ORIENTED_EDGE('',*,*,#313,.F.);
#402=ORIENTED_EDGE('',*,*,#314,.F.);
#403=ORIENTED_EDGE('',*,*,#315,.T.);
#404=ORIENTED_EDGE('',*,*,#316,.T.);
#405=ORIENTED_EDGE('',*,*,#317,.T.);
#406=ORIENTED_EDGE('',*,*,#318,.T.);
#407=ORIENTED_EDGE('',*,*,#316,.F.);
#408=ORIENTED_EDGE('',*,*,#319,.T.);
#409=ORIENTED_EDGE('',*,*,#320,.F.);
#410=ORIENTED_EDGE('',*,*,#321,.F.);
#411=ORIENTED_EDGE('',*,*,#322,.T.);
#412=ORIENTED_EDGE('',*,*,#323,.T.);
#413=ORIENTED_EDGE('',*,*,#324,.T.);
#414=ORIENTED_EDGE('',*,*,#325,.T.);
#415=ORIENTED_EDGE('',*,*,#323,.F.);
#416=ORIENTED_EDGE('',*,*,#326,.F.);
#417=ORIENTED_EDGE('',*,*,#327,.F.);
#418=ORIENTED_EDGE('',*,*,#328,.F.);
#419=ORIENTED_EDGE('',*,*,#329,.T.);
#420=ORIENTED_EDGE('',*,*,#330,.T.);
#421=ORIENTED_EDGE('',*,*,#331,.T.);
#422=ORIENTED_EDGE('',*,*,#332,.T.);
#423=ORIENTED_EDGE('',*,*,#325,.F.);
#424=ORIENTED_EDGE('',*,*,#333,.F.);
#425=ORIENTED_EDGE('',*,*,#330,.F.);
#426=ORIENTED_EDGE('',*,*,#334,.T.);
#427=ORIENTED_EDGE('',*,*,#335,.T.);
#428=ORIENTED_EDGE('',*,*,#320,.T.);
#429=ORIENTED_EDGE('',*,*,#336,.T.);
#430=ORIENTED_EDGE('',*,*,#337,.T.);
#431=ORIENTED_EDGE('',*,*,#338,.T.);
#432=ORIENTED_EDGE('',*,*,#339,.T.);
#433=ORIENTED_EDGE('',*,*,#340,.T.);
#434=ORIENTED_EDGE('',*,*,#341,.T.);
#435=ORIENTED_EDGE('',*,*,#318,.F.);
#436=ORIENTED_EDGE('',*,*,#342,.F.);
#437=ORIENTED_EDGE('',*,*,#339,.F.);
#438=ORIENTED_EDGE('',*,*,#343,.F.);
#439=ORIENTED_EDGE('',*,*,#344,.T.);
#440=ORIENTED_EDGE('',*,*,#313,.T.);
#441=ORIENTED_EDGE('',*,*,#345,.T.);
#442=ORIENTED_EDGE('',*,*,#346,.T.);
#443=ORIENTED_EDGE('',*,*,#347,.T.);
#444=ORIENTED_EDGE('',*,*,#348,.T.);
#445=ORIENTED_EDGE('',*,*,#349,.T.);
#446=ORIENTED_EDGE('',*,*,#350,.T.);
#447=ORIENTED_EDGE('',*,*,#311,.F.);
#448=ORIENTED_EDGE('',*,*,#351,.F.);
#449=ORIENTED_EDGE('',*,*,#348,.F.);
#450=ORIENTED_EDGE('',*,*,#352,.T.);
#451=ORIENTED_EDGE('',*,*,#353,.T.);
#452=ORIENTED_EDGE('',*,*,#306,.T.);
#453=ORIENTED_EDGE('',*,*,#354,.T.);
#454=ORIENTED_EDGE('',*,*,#355,.T.);
#455=ORIENTED_EDGE('',*,*,#356,.T.);
#456=ORIENTED_EDGE('',*,*,#357,.T.);
#457=ORIENTED_EDGE('',*,*,#358,.T.);
#458=ORIENTED_EDGE('',*,*,#359,.T.);
#459=ORIENTED_EDGE('',*,*,#304,.F.);
#460=ORIENTED_EDGE('',*,*,#360,.F.);
#461=ORIENTED_EDGE('',*,*,#357,.F.);
#462=ORIENTED_EDGE('',*,*,#361,.F.);
#463=ORIENTED_EDGE('',*,*,#362,.T.);
#464=ORIENTED_EDGE('',*,*,#327,.T.);
#465=ORIENTED_EDGE('',*,*,#363,.T.);
#466=ORIENTED_EDGE('',*,*,#364,.T.);
#467=ORIENTED_EDGE('',*,*,#346,.F.);
#468=ORIENTED_EDGE('',*,*,#365,.F.);
#469=ORIENTED_EDGE('',*,*,#350,.F.);
#470=ORIENTED_EDGE('',*,*,#366,.F.);
#471=ORIENTED_EDGE('',*,*,#355,.F.);
#472=ORIENTED_EDGE('',*,*,#367,.F.);
#473=ORIENTED_EDGE('',*,*,#359,.F.);
#474=ORIENTED_EDGE('',*,*,#368,.F.);
#475=ORIENTED_EDGE('',*,*,#337,.F.);
#476=ORIENTED_EDGE('',*,*,#369,.F.);
#477=ORIENTED_EDGE('',*,*,#341,.F.);
#478=ORIENTED_EDGE('',*,*,#370,.F.);
#479=ORIENTED_EDGE('',*,*,#371,.F.);
#480=ORIENTED_EDGE('',*,*,#372,.T.);
#481=ORIENTED_EDGE('',*,*,#373,.T.);
#482=ORIENTED_EDGE('',*,*,#372,.F.);
#483=ORIENTED_EDGE('',*,*,#373,.F.);
#484=ORIENTED_EDGE('',*,*,#333,.T.);
#485=ORIENTED_EDGE('',*,*,#324,.F.);
#486=ORIENTED_EDGE('',*,*,#328,.T.);
#487=ORIENTED_EDGE('',*,*,#362,.F.);
#488=ORIENTED_EDGE('',*,*,#374,.T.);
#489=ORIENTED_EDGE('',*,*,#331,.F.);
#490=ORIENTED_EDGE('',*,*,#360,.T.);
#491=ORIENTED_EDGE('',*,*,#303,.F.);
#492=ORIENTED_EDGE('',*,*,#307,.T.);
#493=ORIENTED_EDGE('',*,*,#353,.F.);
#494=ORIENTED_EDGE('',*,*,#368,.T.);
#495=ORIENTED_EDGE('',*,*,#358,.F.);
#496=ORIENTED_EDGE('',*,*,#351,.T.);
#497=ORIENTED_EDGE('',*,*,#310,.F.);
#498=ORIENTED_EDGE('',*,*,#314,.T.);
#499=ORIENTED_EDGE('',*,*,#344,.F.);
#500=ORIENTED_EDGE('',*,*,#366,.T.);
#501=ORIENTED_EDGE('',*,*,#349,.F.);
#502=ORIENTED_EDGE('',*,*,#370,.T.);
#503=ORIENTED_EDGE('',*,*,#340,.F.);
#504=ORIENTED_EDGE('',*,*,#342,.T.);
#505=ORIENTED_EDGE('',*,*,#317,.F.);
#506=ORIENTED_EDGE('',*,*,#321,.T.);
#507=ORIENTED_EDGE('',*,*,#335,.F.);
#508=ORIENTED_EDGE('',*,*,#375,.F.);
#509=ORIENTED_EDGE('',*,*,#376,.T.);
#510=ORIENTED_EDGE('',*,*,#371,.T.);
#511=ORIENTED_EDGE('',*,*,#376,.F.);
#512=ORIENTED_EDGE('',*,*,#377,.T.);
#513=ORIENTED_EDGE('',*,*,#378,.T.);
#514=ORIENTED_EDGE('',*,*,#379,.T.);
#515=ORIENTED_EDGE('',*,*,#378,.F.);
#516=ORIENTED_EDGE('',*,*,#380,.T.);
#517=ORIENTED_EDGE('',*,*,#381,.T.);
#518=ORIENTED_EDGE('',*,*,#379,.F.);
#519=ORIENTED_EDGE('',*,*,#381,.F.);
#520=ORIENTED_EDGE('',*,*,#377,.F.);
#521=ORIENTED_EDGE('',*,*,#343,.T.);
#522=ORIENTED_EDGE('',*,*,#338,.F.);
#523=ORIENTED_EDGE('',*,*,#369,.T.);
#524=ORIENTED_EDGE('',*,*,#336,.F.);
#525=ORIENTED_EDGE('',*,*,#319,.F.);
#526=ORIENTED_EDGE('',*,*,#315,.F.);
#527=ORIENTED_EDGE('',*,*,#326,.T.);
#528=ORIENTED_EDGE('',*,*,#322,.F.);
#529=ORIENTED_EDGE('',*,*,#334,.F.);
#530=ORIENTED_EDGE('',*,*,#329,.F.);
#531=ORIENTED_EDGE('',*,*,#382,.T.);
#532=ORIENTED_EDGE('',*,*,#363,.F.);
#533=ORIENTED_EDGE('',*,*,#361,.T.);
#534=ORIENTED_EDGE('',*,*,#356,.F.);
#535=ORIENTED_EDGE('',*,*,#367,.T.);
#536=ORIENTED_EDGE('',*,*,#354,.F.);
#537=ORIENTED_EDGE('',*,*,#305,.F.);
#538=ORIENTED_EDGE('',*,*,#301,.F.);
#539=ORIENTED_EDGE('',*,*,#365,.T.);
#540=ORIENTED_EDGE('',*,*,#345,.F.);
#541=ORIENTED_EDGE('',*,*,#312,.T.);
#542=ORIENTED_EDGE('',*,*,#308,.F.);
#543=ORIENTED_EDGE('',*,*,#352,.F.);
#544=ORIENTED_EDGE('',*,*,#347,.F.);
#545=ORIENTED_EDGE('',*,*,#332,.F.);
#546=ORIENTED_EDGE('',*,*,#374,.F.);
#547=ORIENTED_EDGE('',*,*,#364,.F.);
#548=ORIENTED_EDGE('',*,*,#382,.F.);
#549=ORIENTED_EDGE('',*,*,#383,.T.);
#550=ORIENTED_EDGE('',*,*,#375,.T.);
#551=ORIENTED_EDGE('',*,*,#380,.F.);
#552=ORIENTED_EDGE('',*,*,#384,.T.);
#553=ORIENTED_EDGE('',*,*,#385,.T.);
#554=ORIENTED_EDGE('',*,*,#384,.F.);
#555=ORIENTED_EDGE('',*,*,#383,.F.);
#556=ORIENTED_EDGE('',*,*,#386,.T.);
#557=ORIENTED_EDGE('',*,*,#385,.F.);
#558=ORIENTED_EDGE('',*,*,#386,.F.);
#559=CYLINDRICAL_SURFACE('',#625,2.);
#560=CYLINDRICAL_SURFACE('',#629,2.);
#561=CYLINDRICAL_SURFACE('',#633,2.);
#562=CYLINDRICAL_SURFACE('',#637,2.);
#563=CYLINDRICAL_SURFACE('',#641,2.);
#564=CYLINDRICAL_SURFACE('',#645,2.);
#565=CYLINDRICAL_SURFACE('',#648,2.);
#566=CYLINDRICAL_SURFACE('',#652,2.);
#567=CYLINDRICAL_SURFACE('',#655,2.);
#568=CYLINDRICAL_SURFACE('',#659,2.);
#569=CYLINDRICAL_SURFACE('',#662,2.);
#570=CYLINDRICAL_SURFACE('',#666,2.);
#571=CYLINDRICAL_SURFACE('',#669,15.314519051052);
#572=CYLINDRICAL_SURFACE('',#672,15.314519051052);
#573=CYLINDRICAL_SURFACE('',#675,15.314519051052);
#574=CYLINDRICAL_SURFACE('',#678,15.9859273575944);
#575=CYLINDRICAL_SURFACE('',#688,18.0000002682209);
#576=CYLINDRICAL_SURFACE('',#692,15.314519051052);
#577=CYLINDRICAL_SURFACE('',#697,20.0000002980232);
#578=ADVANCED_FACE('',(#38),#559,.F.);
#579=ADVANCED_FACE('',(#39),#27,.T.);
#580=ADVANCED_FACE('',(#40),#560,.F.);
#581=ADVANCED_FACE('',(#41),#28,.T.);
#582=ADVANCED_FACE('',(#42),#561,.F.);
#583=ADVANCED_FACE('',(#43),#29,.T.);
#584=ADVANCED_FACE('',(#44),#562,.F.);
#585=ADVANCED_FACE('',(#45),#30,.T.);
#586=ADVANCED_FACE('',(#46),#563,.F.);
#587=ADVANCED_FACE('',(#47),#31,.T.);
#588=ADVANCED_FACE('',(#48),#564,.F.);
#589=ADVANCED_FACE('',(#49),#565,.F.);
#590=ADVANCED_FACE('',(#50),#32,.T.);
#591=ADVANCED_FACE('',(#51),#566,.F.);
#592=ADVANCED_FACE('',(#52),#567,.F.);
#593=ADVANCED_FACE('',(#53),#33,.T.);
#594=ADVANCED_FACE('',(#54),#568,.F.);
#595=ADVANCED_FACE('',(#55),#569,.F.);
#596=ADVANCED_FACE('',(#56),#34,.T.);
#597=ADVANCED_FACE('',(#57),#570,.F.);
#598=ADVANCED_FACE('',(#58),#571,.F.);
#599=ADVANCED_FACE('',(#59),#572,.F.);
#600=ADVANCED_FACE('',(#60),#573,.F.);
#601=ADVANCED_FACE('',(#61),#574,.F.);
#602=ADVANCED_FACE('',(#62,#18,#19,#20,#21),#35,.F.);
#603=ADVANCED_FACE('',(#63),#15,.F.);
#604=ADVANCED_FACE('',(#64),#16,.T.);
#605=ADVANCED_FACE('',(#65),#575,.T.);
#606=ADVANCED_FACE('',(#66,#22,#23,#24,#25),#36,.T.);
#607=ADVANCED_FACE('',(#67),#576,.F.);
#608=ADVANCED_FACE('',(#68,#26),#37,.F.);
#609=ADVANCED_FACE('',(#69),#17,.T.);
#610=ADVANCED_FACE('',(#70),#577,.T.);
#611=CLOSED_SHELL('',(#578,#579,#580,#581,#582,#583,#584,#585,#586,#587,
#588,#589,#590,#591,#592,#593,#594,#595,#596,#597,#598,#599,#600,#601,#602,
#603,#604,#605,#606,#607,#608,#609,#610));
#612=DERIVED_UNIT_ELEMENT(#614,1.);
#613=DERIVED_UNIT_ELEMENT(#1073,-3.);
#614=(
MASS_UNIT()
NAMED_UNIT(*)
SI_UNIT(.KILO.,.GRAM.)
);
#615=DERIVED_UNIT((#612,#613));
#616=MEASURE_REPRESENTATION_ITEM('density measure',
POSITIVE_RATIO_MEASURE(7850.),#615);
#617=PROPERTY_DEFINITION_REPRESENTATION(#622,#619);
#618=PROPERTY_DEFINITION_REPRESENTATION(#623,#620);
#619=REPRESENTATION('material name',(#621),#1070);
#620=REPRESENTATION('density',(#616),#1070);
#621=DESCRIPTIVE_REPRESENTATION_ITEM('Steel','Steel');
#622=PROPERTY_DEFINITION('material property','material name',#1080);
#623=PROPERTY_DEFINITION('material property','density of part',#1080);
#624=AXIS2_PLACEMENT_3D('',#892,#698,#699);
#625=AXIS2_PLACEMENT_3D('',#893,#700,#701);
#626=AXIS2_PLACEMENT_3D('',#896,#702,#703);
#627=AXIS2_PLACEMENT_3D('',#900,#705,#706);
#628=AXIS2_PLACEMENT_3D('',#902,#708,#709);
#629=AXIS2_PLACEMENT_3D('',#908,#713,#714);
#630=AXIS2_PLACEMENT_3D('',#911,#715,#716);
#631=AXIS2_PLACEMENT_3D('',#915,#718,#719);
#632=AXIS2_PLACEMENT_3D('',#917,#721,#722);
#633=AXIS2_PLACEMENT_3D('',#923,#726,#727);
#634=AXIS2_PLACEMENT_3D('',#926,#728,#729);
#635=AXIS2_PLACEMENT_3D('',#930,#731,#732);
#636=AXIS2_PLACEMENT_3D('',#932,#734,#735);
#637=AXIS2_PLACEMENT_3D('',#938,#739,#740);
#638=AXIS2_PLACEMENT_3D('',#941,#741,#742);
#639=AXIS2_PLACEMENT_3D('',#945,#744,#745);
#640=AXIS2_PLACEMENT_3D('',#947,#747,#748);
#641=AXIS2_PLACEMENT_3D('',#953,#752,#753);
#642=AXIS2_PLACEMENT_3D('',#956,#754,#755);
#643=AXIS2_PLACEMENT_3D('',#960,#757,#758);
#644=AXIS2_PLACEMENT_3D('',#962,#760,#761);
#645=AXIS2_PLACEMENT_3D('',#965,#764,#765);
#646=AXIS2_PLACEMENT_3D('',#967,#766,#767);
#647=AXIS2_PLACEMENT_3D('',#969,#768,#769);
#648=AXIS2_PLACEMENT_3D('',#971,#771,#772);
#649=AXIS2_PLACEMENT_3D('',#974,#773,#774);
#650=AXIS2_PLACEMENT_3D('',#978,#776,#777);
#651=AXIS2_PLACEMENT_3D('',#980,#779,#780);
#652=AXIS2_PLACEMENT_3D('',#983,#783,#784);
#653=AXIS2_PLACEMENT_3D('',#985,#785,#786);
#654=AXIS2_PLACEMENT_3D('',#987,#787,#788);
#655=AXIS2_PLACEMENT_3D('',#989,#790,#791);
#656=AXIS2_PLACEMENT_3D('',#992,#792,#793);
#657=AXIS2_PLACEMENT_3D('',#996,#795,#796);
#658=AXIS2_PLACEMENT_3D('',#998,#798,#799);
#659=AXIS2_PLACEMENT_3D('',#1001,#802,#803);
#660=AXIS2_PLACEMENT_3D('',#1003,#804,#805);
#661=AXIS2_PLACEMENT_3D('',#1005,#806,#807);
#662=AXIS2_PLACEMENT_3D('',#1007,#809,#810);
#663=AXIS2_PLACEMENT_3D('',#1010,#811,#812);
#664=AXIS2_PLACEMENT_3D('',#1014,#814,#815);
#665=AXIS2_PLACEMENT_3D('',#1016,#817,#818);
#666=AXIS2_PLACEMENT_3D('',#1019,#821,#822);
#667=AXIS2_PLACEMENT_3D('',#1021,#823,#824);
#668=AXIS2_PLACEMENT_3D('',#1023,#825,#826);
#669=AXIS2_PLACEMENT_3D('',#1025,#828,#829);
#670=AXIS2_PLACEMENT_3D('',#1026,#830,#831);
#671=AXIS2_PLACEMENT_3D('',#1027,#832,#833);
#672=AXIS2_PLACEMENT_3D('',#1028,#834,#835);
#673=AXIS2_PLACEMENT_3D('',#1029,#836,#837);
#674=AXIS2_PLACEMENT_3D('',#1030,#838,#839);
#675=AXIS2_PLACEMENT_3D('',#1031,#840,#841);
#676=AXIS2_PLACEMENT_3D('',#1032,#842,#843);
#677=AXIS2_PLACEMENT_3D('',#1033,#844,#845);
#678=AXIS2_PLACEMENT_3D('',#1034,#846,#847);
#679=AXIS2_PLACEMENT_3D('',#1036,#848,#849);
#680=AXIS2_PLACEMENT_3D('',#1039,#851,#852);
#681=AXIS2_PLACEMENT_3D('',#1040,#853,#854);
#682=AXIS2_PLACEMENT_3D('',#1041,#855,#856);
#683=AXIS2_PLACEMENT_3D('',#1042,#857,#858);
#684=AXIS2_PLACEMENT_3D('',#1044,#859,#860);
#685=AXIS2_PLACEMENT_3D('',#1046,#862,#863);
#686=AXIS2_PLACEMENT_3D('',#1048,#864,#865);
#687=AXIS2_PLACEMENT_3D('',#1051,#867,#868);
#688=AXIS2_PLACEMENT_3D('',#1052,#869,#870);
#689=AXIS2_PLACEMENT_3D('',#1054,#871,#872);
#690=AXIS2_PLACEMENT_3D('',#1056,#874,#875);
#691=AXIS2_PLACEMENT_3D('',#1057,#876,#877);
#692=AXIS2_PLACEMENT_3D('',#1058,#878,#879);
#693=AXIS2_PLACEMENT_3D('',#1059,#880,#881);
#694=AXIS2_PLACEMENT_3D('',#1061,#882,#883);
#695=AXIS2_PLACEMENT_3D('',#1062,#884,#885);
#696=AXIS2_PLACEMENT_3D('',#1065,#887,#888);
#697=AXIS2_PLACEMENT_3D('',#1066,#889,#890);
#698=DIRECTION('axis',(0.,0.,1.));
#699=DIRECTION('refdir',(1.,0.,0.));
#700=DIRECTION('center_axis',(0.,0.,-1.));
#701=DIRECTION('ref_axis',(0.707106781186548,0.707106781186547,0.));
#702=DIRECTION('center_axis',(0.,0.,1.));
#703=DIRECTION('ref_axis',(0.707106781186548,0.707106781186547,0.));
#704=DIRECTION('',(0.,0.,-1.));
#705=DIRECTION('center_axis',(0.,0.,-1.));
#706=DIRECTION('ref_axis',(0.707106781186548,0.707106781186547,0.));
#707=DIRECTION('',(0.,0.,1.));
#708=DIRECTION('center_axis',(0.,-1.,0.));
#709=DIRECTION('ref_axis',(-1.,0.,0.));
#710=DIRECTION('',(-1.,0.,0.));
#711=DIRECTION('',(0.,0.,1.));
#712=DIRECTION('',(-1.,0.,0.));
#713=DIRECTION('center_axis',(0.,0.,-1.));
#714=DIRECTION('ref_axis',(0.707106781186548,-0.707106781186547,0.));
#715=DIRECTION('center_axis',(0.,0.,1.));
#716=DIRECTION('ref_axis',(0.707106781186548,-0.707106781186547,0.));
#717=DIRECTION('',(0.,0.,-1.));
#718=DIRECTION('center_axis',(0.,0.,-1.));
#719=DIRECTION('ref_axis',(0.707106781186548,-0.707106781186547,0.));
#720=DIRECTION('',(0.,0.,1.));
#721=DIRECTION('center_axis',(-1.,-2.1053487550304E-17,0.));
#722=DIRECTION('ref_axis',(-2.1053487550304E-17,1.,0.));
#723=DIRECTION('',(2.1053487550304E-17,-1.,0.));
#724=DIRECTION('',(0.,0.,1.));
#725=DIRECTION('',(-2.1053487550304E-17,1.,0.));
#726=DIRECTION('center_axis',(0.,0.,-1.));
#727=DIRECTION('ref_axis',(-0.707106781186548,-0.707106781186548,0.));
#728=DIRECTION('center_axis',(0.,0.,1.));
#729=DIRECTION('ref_axis',(-0.707106781186548,-0.707106781186548,0.));
#730=DIRECTION('',(0.,0.,-1.));
#731=DIRECTION('center_axis',(0.,0.,-1.));
#732=DIRECTION('ref_axis',(-0.707106781186548,-0.707106781186548,0.));
#733=DIRECTION('',(0.,0.,1.));
#734=DIRECTION('center_axis',(-2.1053487550304E-17,1.,0.));
#735=DIRECTION('ref_axis',(1.,2.1053487550304E-17,0.));
#736=DIRECTION('',(1.,2.1053487550304E-17,0.));
#737=DIRECTION('',(0.,0.,1.));
#738=DIRECTION('',(1.,2.1053487550304E-17,0.));
#739=DIRECTION('center_axis',(0.,0.,-1.));
#740=DIRECTION('ref_axis',(-0.707106781186548,0.707106781186548,0.));
#741=DIRECTION('center_axis',(0.,0.,1.));
#742=DIRECTION('ref_axis',(-0.707106781186548,0.707106781186548,0.));
#743=DIRECTION('',(0.,0.,-1.));
#744=DIRECTION('center_axis',(0.,0.,-1.));
#745=DIRECTION('ref_axis',(-0.707106781186548,0.707106781186548,0.));
#746=DIRECTION('',(0.,0.,1.));
#747=DIRECTION('center_axis',(1.,1.47374412852128E-16,0.));
#748=DIRECTION('ref_axis',(1.47374412852128E-16,-1.,0.));
#749=DIRECTION('',(-1.47374412852128E-16,1.,0.));
#750=DIRECTION('',(0.,0.,1.));
#751=DIRECTION('',(1.47374412852128E-16,-1.,0.));
#752=DIRECTION('center_axis',(0.,0.,-1.));
#753=DIRECTION('ref_axis',(0.806357215981838,0.591428812482128,0.));
#754=DIRECTION('center_axis',(0.,0.,1.));
#755=DIRECTION('ref_axis',(0.806357215981838,0.591428812482128,0.));
#756=DIRECTION('',(0.,0.,-1.));
#757=DIRECTION('center_axis',(0.,0.,-1.));
#758=DIRECTION('ref_axis',(0.806357215981838,0.591428812482128,0.));
#759=DIRECTION('',(0.,0.,1.));
#760=DIRECTION('center_axis',(0.,-1.,0.));
#761=DIRECTION('ref_axis',(-1.,0.,0.));
#762=DIRECTION('',(-1.,0.,0.));
#763=DIRECTION('',(-1.,0.,0.));
#764=DIRECTION('center_axis',(0.,0.,1.));
#765=DIRECTION('ref_axis',(0.806357215981838,-0.591428812482128,0.));
#766=DIRECTION('center_axis',(0.,0.,-1.));
#767=DIRECTION('ref_axis',(0.806357215981838,-0.591428812482128,0.));
#768=DIRECTION('center_axis',(0.,0.,1.));
#769=DIRECTION('ref_axis',(0.806357215981838,-0.591428812482128,0.));
#770=DIRECTION('',(0.,0.,-1.));
#771=DIRECTION('center_axis',(0.,0.,-1.));
#772=DIRECTION('ref_axis',(-0.591428812482128,0.806357215981838,0.));
#773=DIRECTION('center_axis',(0.,0.,1.));
#774=DIRECTION('ref_axis',(-0.591428812482128,0.806357215981838,0.));
#775=DIRECTION('',(0.,0.,-1.));
#776=DIRECTION('center_axis',(0.,0.,-1.));
#777=DIRECTION('ref_axis',(-0.591428812482128,0.806357215981838,0.));
#778=DIRECTION('',(0.,0.,1.));
#779=DIRECTION('center_axis',(1.,2.10534875503041E-17,0.));
#780=DIRECTION('ref_axis',(2.10534875503041E-17,-1.,0.));
#781=DIRECTION('',(2.10534875503041E-17,-1.,0.));
#782=DIRECTION('',(-2.10534875503041E-17,1.,0.));
#783=DIRECTION('center_axis',(0.,0.,1.));
#784=DIRECTION('ref_axis',(0.591428812482128,0.806357215981838,0.));
#785=DIRECTION('center_axis',(0.,0.,-1.));
#786=DIRECTION('ref_axis',(0.591428812482128,0.806357215981838,0.));
#787=DIRECTION('center_axis',(0.,0.,1.));
#788=DIRECTION('ref_axis',(0.591428812482128,0.806357215981838,0.));
#789=DIRECTION('',(0.,0.,-1.));
#790=DIRECTION('center_axis',(0.,0.,-1.));
#791=DIRECTION('ref_axis',(-0.806357215981837,-0.591428812482129,0.));
#792=DIRECTION('center_axis',(0.,0.,1.));
#793=DIRECTION('ref_axis',(-0.806357215981837,-0.591428812482129,0.));
#794=DIRECTION('',(0.,0.,-1.));
#795=DIRECTION('center_axis',(0.,0.,-1.));
#796=DIRECTION('ref_axis',(-0.806357215981837,-0.591428812482129,0.));
#797=DIRECTION('',(0.,0.,1.));
#798=DIRECTION('center_axis',(0.,1.,0.));
#799=DIRECTION('ref_axis',(1.,0.,0.));
#800=DIRECTION('',(1.,0.,0.));
#801=DIRECTION('',(1.,0.,0.));
#802=DIRECTION('center_axis',(0.,0.,1.));
#803=DIRECTION('ref_axis',(-0.806357215981837,0.591428812482129,0.));
#804=DIRECTION('center_axis',(0.,0.,-1.));
#805=DIRECTION('ref_axis',(-0.806357215981837,0.591428812482129,0.));
#806=DIRECTION('center_axis',(0.,0.,1.));
#807=DIRECTION('ref_axis',(-0.806357215981837,0.591428812482129,0.));
#808=DIRECTION('',(0.,0.,-1.));
#809=DIRECTION('center_axis',(0.,0.,-1.));
#810=DIRECTION('ref_axis',(0.591428812482128,-0.806357215981838,0.));
#811=DIRECTION('center_axis',(0.,0.,1.));
#812=DIRECTION('ref_axis',(0.591428812482128,-0.806357215981838,0.));
#813=DIRECTION('',(0.,0.,-1.));
#814=DIRECTION('center_axis',(0.,0.,-1.));
#815=DIRECTION('ref_axis',(0.591428812482128,-0.806357215981838,0.));
#816=DIRECTION('',(0.,0.,1.));
#817=DIRECTION('center_axis',(-1.,2.1053487550304E-17,0.));
#818=DIRECTION('ref_axis',(2.1053487550304E-17,1.,0.));
#819=DIRECTION('',(2.1053487550304E-17,1.,0.));
#820=DIRECTION('',(-2.1053487550304E-17,-1.,0.));
#821=DIRECTION('center_axis',(0.,0.,1.));
#822=DIRECTION('ref_axis',(-0.591428812482128,-0.806357215981838,0.));
#823=DIRECTION('center_axis',(0.,0.,-1.));
#824=DIRECTION('ref_axis',(-0.591428812482128,-0.806357215981838,0.));
#825=DIRECTION('center_axis',(0.,0.,1.));
#826=DIRECTION('ref_axis',(-0.591428812482128,-0.806357215981838,0.));
#827=DIRECTION('',(0.,0.,-1.));
#828=DIRECTION('center_axis',(0.,0.,-1.));
#829=DIRECTION('ref_axis',(1.,0.,0.));
#830=DIRECTION('center_axis',(0.,0.,-1.));
#831=DIRECTION('ref_axis',(1.,0.,0.));
#832=DIRECTION('center_axis',(0.,0.,1.));
#833=DIRECTION('ref_axis',(1.,0.,0.));
#834=DIRECTION('center_axis',(0.,0.,-1.));
#835=DIRECTION('ref_axis',(1.,0.,0.));
#836=DIRECTION('center_axis',(0.,0.,-1.));
#837=DIRECTION('ref_axis',(1.,0.,0.));
#838=DIRECTION('center_axis',(0.,0.,1.));
#839=DIRECTION('ref_axis',(1.,0.,0.));
#840=DIRECTION('center_axis',(0.,0.,-1.));
#841=DIRECTION('ref_axis',(1.,0.,0.));
#842=DIRECTION('center_axis',(0.,0.,-1.));
#843=DIRECTION('ref_axis',(1.,0.,0.));
#844=DIRECTION('center_axis',(0.,0.,1.));
#845=DIRECTION('ref_axis',(1.,0.,0.));
#846=DIRECTION('center_axis',(0.,0.,1.));
#847=DIRECTION('ref_axis',(1.,0.,0.));
#848=DIRECTION('center_axis',(0.,0.,1.));
#849=DIRECTION('ref_axis',(1.,0.,0.));
#850=DIRECTION('',(0.,0.,1.));
#851=DIRECTION('center_axis',(0.,0.,1.));
#852=DIRECTION('ref_axis',(1.,0.,0.));
#853=DIRECTION('center_axis',(0.,0.,1.));
#854=DIRECTION('ref_axis',(1.,0.,0.));
#855=DIRECTION('center_axis',(0.,0.,1.));
#856=DIRECTION('ref_axis',(1.,0.,0.));
#857=DIRECTION('center_axis',(0.,0.,-1.));
#858=DIRECTION('ref_axis',(1.,0.,0.));
#859=DIRECTION('center_axis',(0.,0.,1.));
#860=DIRECTION('ref_axis',(1.,0.,0.));
#861=DIRECTION('',(0.0774366813208005,9.48325839161119E-18,0.996997272005305));
#862=DIRECTION('center_axis',(0.,0.,-1.));
#863=DIRECTION('ref_axis',(1.,0.,0.));
#864=DIRECTION('center_axis',(0.,0.,-1.));
#865=DIRECTION('ref_axis',(1.,0.,0.));
#866=DIRECTION('',(-0.707106781186548,-8.65956056235493E-17,-0.707106781186548));
#867=DIRECTION('center_axis',(0.,0.,1.));
#868=DIRECTION('ref_axis',(1.,0.,0.));
#869=DIRECTION('center_axis',(0.,0.,-1.));
#870=DIRECTION('ref_axis',(1.,0.,0.));
#871=DIRECTION('center_axis',(0.,0.,1.));
#872=DIRECTION('ref_axis',(1.,0.,0.));
#873=DIRECTION('',(0.,0.,1.));
#874=DIRECTION('center_axis',(0.,0.,1.));
#875=DIRECTION('ref_axis',(1.,0.,0.));
#876=DIRECTION('center_axis',(0.,0.,-1.));
#877=DIRECTION('ref_axis',(1.,0.,0.));
#878=DIRECTION('center_axis',(0.,0.,-1.));
#879=DIRECTION('ref_axis',(1.,0.,0.));
#880=DIRECTION('center_axis',(0.,0.,1.));
#881=DIRECTION('ref_axis',(1.,0.,0.));
#882=DIRECTION('center_axis',(0.,0.,-1.));
#883=DIRECTION('ref_axis',(1.,0.,0.));
#884=DIRECTION('center_axis',(0.,0.,-1.));
#885=DIRECTION('ref_axis',(1.,0.,0.));
#886=DIRECTION('',(-0.707106781186548,-8.65956056235493E-17,-0.707106781186548));
#887=DIRECTION('center_axis',(0.,0.,1.));
#888=DIRECTION('ref_axis',(1.,0.,0.));
#889=DIRECTION('center_axis',(0.,0.,-1.));
#890=DIRECTION('ref_axis',(1.,0.,0.));
#891=DIRECTION('',(0.,0.,1.));
#892=CARTESIAN_POINT('',(0.,0.,0.));
#893=CARTESIAN_POINT('Origin',(-4.,-4.,26.1));
#894=CARTESIAN_POINT('',(-2.,-4.,26.1));
#895=CARTESIAN_POINT('',(-4.,-2.,26.1));
#896=CARTESIAN_POINT('Origin',(-4.,-4.,26.1));
#897=CARTESIAN_POINT('',(-4.,-2.,25.5));
#898=CARTESIAN_POINT('',(-4.,-2.,26.1));
#899=CARTESIAN_POINT('',(-2.,-4.,25.5));
#900=CARTESIAN_POINT('Origin',(-4.,-4.,25.5));
#901=CARTESIAN_POINT('',(-2.,-4.,26.1));
#902=CARTESIAN_POINT('Origin',(-2.,-2.,26.1));
#903=CARTESIAN_POINT('',(-12.699465247042,-2.,26.1));
#904=CARTESIAN_POINT('',(-2.,-2.,26.1));
#905=CARTESIAN_POINT('',(-12.699465247042,-2.,25.5));
#906=CARTESIAN_POINT('',(-12.699465247042,-2.,26.1));
#907=CARTESIAN_POINT('',(-2.,-2.,25.5));
#908=CARTESIAN_POINT('Origin',(-4.,4.,26.1));
#909=CARTESIAN_POINT('',(-4.,2.,26.1));
#910=CARTESIAN_POINT('',(-2.,4.,26.1));
#911=CARTESIAN_POINT('Origin',(-4.,4.,26.1));
#912=CARTESIAN_POINT('',(-2.,4.,25.5));
#913=CARTESIAN_POINT('',(-2.,4.,26.1));
#914=CARTESIAN_POINT('',(-4.,2.,25.5));
#915=CARTESIAN_POINT('Origin',(-4.,4.,25.5));
#916=CARTESIAN_POINT('',(-4.,2.,26.1));
#917=CARTESIAN_POINT('Origin',(-2.,2.,26.1));
#918=CARTESIAN_POINT('',(-2.,12.699465247042,26.1));
#919=CARTESIAN_POINT('',(-2.,15.1833623998453,26.1));
#920=CARTESIAN_POINT('',(-2.,12.699465247042,25.5));
#921=CARTESIAN_POINT('',(-2.,12.699465247042,26.1));
#922=CARTESIAN_POINT('',(-2.,15.1833623998453,25.5));
#923=CARTESIAN_POINT('Origin',(4.,4.,26.1));
#924=CARTESIAN_POINT('',(2.,4.,26.1));
#925=CARTESIAN_POINT('',(4.,2.,26.1));
#926=CARTESIAN_POINT('Origin',(4.,4.,26.1));
#927=CARTESIAN_POINT('',(4.,2.,25.5));
#928=CARTESIAN_POINT('',(4.,2.,26.1));
#929=CARTESIAN_POINT('',(2.,4.,25.5));
#930=CARTESIAN_POINT('Origin',(4.,4.,25.5));
#931=CARTESIAN_POINT('',(2.,4.,26.1));
#932=CARTESIAN_POINT('Origin',(2.,2.,26.1));
#933=CARTESIAN_POINT('',(12.699465247042,2.,26.1));
#934=CARTESIAN_POINT('',(2.,2.,26.1));
#935=CARTESIAN_POINT('',(12.699465247042,2.,25.5));
#936=CARTESIAN_POINT('',(12.699465247042,2.,26.1));
#937=CARTESIAN_POINT('',(2.,2.,25.5));
#938=CARTESIAN_POINT('Origin',(4.,-4.,26.1));
#939=CARTESIAN_POINT('',(4.,-2.,26.1));
#940=CARTESIAN_POINT('',(2.,-4.,26.1));
#941=CARTESIAN_POINT('Origin',(4.,-4.,26.1));
#942=CARTESIAN_POINT('',(2.,-4.,25.5));
#943=CARTESIAN_POINT('',(2.,-4.,26.1));
#944=CARTESIAN_POINT('',(4.,-2.,25.5));
#945=CARTESIAN_POINT('Origin',(4.,-4.,25.5));
#946=CARTESIAN_POINT('',(4.,-2.,26.1));
#947=CARTESIAN_POINT('Origin',(2.,-2.,26.1));
#948=CARTESIAN_POINT('',(2.,-12.699465247042,26.1));
#949=CARTESIAN_POINT('',(2.,-15.1833623998453,26.1));
#950=CARTESIAN_POINT('',(2.,-12.699465247042,25.5));
#951=CARTESIAN_POINT('',(2.,-12.699465247042,26.1));
#952=CARTESIAN_POINT('',(2.,-15.1833623998453,25.5));
#953=CARTESIAN_POINT('Origin',(12.699465247042,-4.,26.1));
#954=CARTESIAN_POINT('',(14.6070768097801,-4.60084783906392,26.1));
#955=CARTESIAN_POINT('',(12.699465247042,-2.,26.1));
#956=CARTESIAN_POINT('Origin',(12.699465247042,-4.,26.1));
#957=CARTESIAN_POINT('',(12.699465247042,-2.,25.5));
#958=CARTESIAN_POINT('',(12.699465247042,-2.,26.1));
#959=CARTESIAN_POINT('',(14.6070768097801,-4.60084783906392,25.5));
#960=CARTESIAN_POINT('Origin',(12.699465247042,-4.,25.5));
#961=CARTESIAN_POINT('',(14.6070768097801,-4.60084783906392,26.1));
#962=CARTESIAN_POINT('Origin',(15.1833623998453,-2.,26.1));
#963=CARTESIAN_POINT('',(15.1833623998453,-2.,25.5));
#964=CARTESIAN_POINT('',(15.1833623998453,-2.,26.1));
#965=CARTESIAN_POINT('Origin',(12.699465247042,4.,26.1));
#966=CARTESIAN_POINT('',(14.6070768097801,4.60084783906392,25.5));
#967=CARTESIAN_POINT('Origin',(12.699465247042,4.,25.5));
#968=CARTESIAN_POINT('',(14.6070768097801,4.60084783906392,26.1));
#969=CARTESIAN_POINT('Origin',(12.699465247042,4.,26.1));
#970=CARTESIAN_POINT('',(14.6070768097801,4.60084783906392,26.1));
#971=CARTESIAN_POINT('Origin',(4.,12.699465247042,26.1));
#972=CARTESIAN_POINT('',(4.60084783906392,14.6070768097801,26.1));
#973=CARTESIAN_POINT('',(2.,12.699465247042,26.1));
#974=CARTESIAN_POINT('Origin',(4.,12.699465247042,26.1));
#975=CARTESIAN_POINT('',(2.,12.699465247042,25.5));
#976=CARTESIAN_POINT('',(2.,12.699465247042,26.1));
#977=CARTESIAN_POINT('',(4.60084783906392,14.6070768097801,25.5));
#978=CARTESIAN_POINT('Origin',(4.,12.699465247042,25.5));
#979=CARTESIAN_POINT('',(4.60084783906392,14.6070768097801,26.1));
#980=CARTESIAN_POINT('Origin',(2.,15.1833623998453,26.1));
#981=CARTESIAN_POINT('',(2.,2.,25.5));
#982=CARTESIAN_POINT('',(2.,2.,26.1));
#983=CARTESIAN_POINT('Origin',(-4.,12.699465247042,26.1));
#984=CARTESIAN_POINT('',(-4.60084783906392,14.6070768097801,25.5));
#985=CARTESIAN_POINT('Origin',(-4.,12.699465247042,25.5));
#986=CARTESIAN_POINT('',(-4.60084783906392,14.6070768097801,26.1));
#987=CARTESIAN_POINT('Origin',(-4.,12.699465247042,26.1));
#988=CARTESIAN_POINT('',(-4.60084783906392,14.6070768097801,26.1));
#989=CARTESIAN_POINT('Origin',(-12.699465247042,4.,26.1));
#990=CARTESIAN_POINT('',(-14.6070768097801,4.60084783906392,26.1));
#991=CARTESIAN_POINT('',(-12.699465247042,2.,26.1));
#992=CARTESIAN_POINT('Origin',(-12.699465247042,4.,26.1));
#993=CARTESIAN_POINT('',(-12.699465247042,2.,25.5));
#994=CARTESIAN_POINT('',(-12.699465247042,2.,26.1));
#995=CARTESIAN_POINT('',(-14.6070768097801,4.60084783906392,25.5));
#996=CARTESIAN_POINT('Origin',(-12.699465247042,4.,25.5));
#997=CARTESIAN_POINT('',(-14.6070768097801,4.60084783906392,26.1));
#998=CARTESIAN_POINT('Origin',(-15.1833623998453,2.,26.1));
#999=CARTESIAN_POINT('',(-15.1833623998453,2.,25.5));
#1000=CARTESIAN_POINT('',(-15.1833623998453,2.,26.1));
#1001=CARTESIAN_POINT('Origin',(-12.699465247042,-4.,26.1));
#1002=CARTESIAN_POINT('',(-14.6070768097801,-4.60084783906392,25.5));
#1003=CARTESIAN_POINT('Origin',(-12.699465247042,-4.,25.5));
#1004=CARTESIAN_POINT('',(-14.6070768097801,-4.60084783906392,26.1));
#1005=CARTESIAN_POINT('Origin',(-12.699465247042,-4.,26.1));
#1006=CARTESIAN_POINT('',(-14.6070768097801,-4.60084783906392,26.1));
#1007=CARTESIAN_POINT('Origin',(-4.,-12.699465247042,26.1));
#1008=CARTESIAN_POINT('',(-4.60084783906392,-14.6070768097801,26.1));
#1009=CARTESIAN_POINT('',(-2.,-12.699465247042,26.1));
#1010=CARTESIAN_POINT('Origin',(-4.,-12.699465247042,26.1));
#1011=CARTESIAN_POINT('',(-2.,-12.699465247042,25.5));
#1012=CARTESIAN_POINT('',(-2.,-12.699465247042,26.1));
#1013=CARTESIAN_POINT('',(-4.60084783906392,-14.6070768097801,25.5));
#1014=CARTESIAN_POINT('Origin',(-4.,-12.699465247042,25.5));
#1015=CARTESIAN_POINT('',(-4.60084783906392,-14.6070768097801,26.1));
#1016=CARTESIAN_POINT('Origin',(-2.,-15.1833623998453,26.1));
#1017=CARTESIAN_POINT('',(-2.,-2.,25.5));
#1018=CARTESIAN_POINT('',(-2.,-2.,26.1));
#1019=CARTESIAN_POINT('Origin',(4.,-12.699465247042,26.1));
#1020=CARTESIAN_POINT('',(4.60084783906392,-14.6070768097801,25.5));
#1021=CARTESIAN_POINT('Origin',(4.,-12.699465247042,25.5));
#1022=CARTESIAN_POINT('',(4.60084783906392,-14.6070768097801,26.1));
#1023=CARTESIAN_POINT('Origin',(4.,-12.699465247042,26.1));
#1024=CARTESIAN_POINT('',(4.60084783906392,-14.6070768097801,26.1));
#1025=CARTESIAN_POINT('Origin',(0.,0.,26.1));
#1026=CARTESIAN_POINT('Origin',(0.,0.,26.1));
#1027=CARTESIAN_POINT('Origin',(0.,0.,25.5));
#1028=CARTESIAN_POINT('Origin',(0.,0.,26.1));
#1029=CARTESIAN_POINT('Origin',(0.,0.,26.1));
#1030=CARTESIAN_POINT('Origin',(0.,0.,25.5));
#1031=CARTESIAN_POINT('Origin',(0.,0.,26.1));
#1032=CARTESIAN_POINT('Origin',(0.,0.,26.1));
#1033=CARTESIAN_POINT('Origin',(0.,0.,25.5));
#1034=CARTESIAN_POINT('Origin',(0.,0.,24.));
#1035=CARTESIAN_POINT('',(-15.9859273575944,-1.957711476988E-15,24.));
#1036=CARTESIAN_POINT('Origin',(0.,0.,24.));
#1037=CARTESIAN_POINT('',(-15.9859273575944,-1.957711476988E-15,25.5));
#1038=CARTESIAN_POINT('',(-15.9859273575944,-1.957711476988E-15,24.));
#1039=CARTESIAN_POINT('Origin',(0.,0.,25.5));
#1040=CARTESIAN_POINT('Origin',(0.,0.,25.5));
#1041=CARTESIAN_POINT('Origin',(0.,0.,25.5));
#1042=CARTESIAN_POINT('Origin',(0.,0.,18.85));
#1043=CARTESIAN_POINT('',(-16.5296166779827,-2.02429421558242E-15,17.));
#1044=CARTESIAN_POINT('Origin',(0.,0.,17.));
#1045=CARTESIAN_POINT('',(-16.3859273575944,-2.0066973489539E-15,18.85));
#1046=CARTESIAN_POINT('Origin',(0.,0.,26.));
#1047=CARTESIAN_POINT('',(-17.8000002682209,2.17987133532988E-15,26.1));
#1048=CARTESIAN_POINT('Origin',(0.,0.,26.1));
#1049=CARTESIAN_POINT('',(-18.0000002682209,-2.20436427131282E-15,25.9));
#1050=CARTESIAN_POINT('',(-17.9000002682209,-2.19211780332135E-15,26.));
#1051=CARTESIAN_POINT('Origin',(0.,0.,25.9));
#1052=CARTESIAN_POINT('Origin',(0.,0.,26.1));
#1053=CARTESIAN_POINT('',(-18.0000002682209,-2.20436427131282E-15,21.1));
#1054=CARTESIAN_POINT('Origin',(0.,0.,21.1));
#1055=CARTESIAN_POINT('',(-18.0000002682209,2.20436427131282E-15,26.1));
#1056=CARTESIAN_POINT('Origin',(0.,0.,26.1));
#1057=CARTESIAN_POINT('Origin',(0.,0.,26.1));
#1058=CARTESIAN_POINT('Origin',(0.,0.,26.1));
#1059=CARTESIAN_POINT('Origin',(0.,0.,17.));
#1060=CARTESIAN_POINT('',(-20.0000002980232,-2.44929363479203E-15,17.));
#1061=CARTESIAN_POINT('Origin',(0.,0.,17.));
#1062=CARTESIAN_POINT('Origin',(0.,0.,20.1));
#1063=CARTESIAN_POINT('',(-20.0000002980232,-2.44929363479203E-15,19.1));
#1064=CARTESIAN_POINT('',(-19.0000002980232,-2.32682895487729E-15,20.1));
#1065=CARTESIAN_POINT('Origin',(0.,0.,19.1));
#1066=CARTESIAN_POINT('Origin',(0.,0.,21.1));
#1067=CARTESIAN_POINT('',(-20.0000002980232,2.44929363479203E-15,21.1));
#1068=UNCERTAINTY_MEASURE_WITH_UNIT(LENGTH_MEASURE(0.01),#1072,
'DISTANCE_ACCURACY_VALUE',
'Maximum model space distance between geometric entities at asserted c
onnectivities');
#1069=UNCERTAINTY_MEASURE_WITH_UNIT(LENGTH_MEASURE(0.01),#1072,
'DISTANCE_ACCURACY_VALUE',
'Maximum model space distance between geometric entities at asserted c
onnectivities');
#1070=(
GEOMETRIC_REPRESENTATION_CONTEXT(3)
GLOBAL_UNCERTAINTY_ASSIGNED_CONTEXT((#1068))
GLOBAL_UNIT_ASSIGNED_CONTEXT((#1072,#1074,#1075))
REPRESENTATION_CONTEXT('','3D')
);
#1071=(
GEOMETRIC_REPRESENTATION_CONTEXT(3)
GLOBAL_UNCERTAINTY_ASSIGNED_CONTEXT((#1069))
GLOBAL_UNIT_ASSIGNED_CONTEXT((#1072,#1074,#1075))
REPRESENTATION_CONTEXT('','3D')
);
#1072=(
LENGTH_UNIT()
NAMED_UNIT(*)
SI_UNIT(.MILLI.,.METRE.)
);
#1073=(
LENGTH_UNIT()
NAMED_UNIT(*)
SI_UNIT($,.METRE.)
);
#1074=(
NAMED_UNIT(*)
PLANE_ANGLE_UNIT()
SI_UNIT($,.RADIAN.)
);
#1075=(
NAMED_UNIT(*)
SI_UNIT($,.STERADIAN.)
SOLID_ANGLE_UNIT()
);
#1076=SHAPE_DEFINITION_REPRESENTATION(#1077,#1078);
#1077=PRODUCT_DEFINITION_SHAPE('',$,#1080);
#1078=SHAPE_REPRESENTATION('',(#624),#1070);
#1079=PRODUCT_DEFINITION_CONTEXT('part definition',#1084,'design');
#1080=PRODUCT_DEFINITION('2026-09-30-16-13-53-106',
'\X2\043C043A043C043104400430043D044804420443043A0438\X0\',#1081,#1079);
#1081=PRODUCT_DEFINITION_FORMATION('',$,#1086);
#1082=PRODUCT_RELATED_PRODUCT_CATEGORY('\X2\043C043A043C043104400430043D044804420443043A0438\X0\',
'\X2\043C043A043C043104400430043D044804420443043A0438\X0\',(#1086));
#1083=APPLICATION_PROTOCOL_DEFINITION('international standard',
'automotive_design',2009,#1084);
#1084=APPLICATION_CONTEXT(
'Core Data for Automotive Mechanical Design Process');
#1085=PRODUCT_CONTEXT('part definition',#1084,'mechanical');
#1086=PRODUCT('2026-09-30-16-13-53-106','\X2\043C043A043C043104400430043D044804420443043A0438\X0\',
$,(#1085));
#1087=PRESENTATION_STYLE_ASSIGNMENT((#1088));
#1088=SURFACE_STYLE_USAGE(.BOTH.,#1089);
#1089=SURFACE_SIDE_STYLE('',(#1090));
#1090=SURFACE_STYLE_FILL_AREA(#1091);
#1091=FILL_AREA_STYLE('Steel - Satin',(#1092));
#1092=FILL_AREA_STYLE_COLOUR('Steel - Satin',#1093);
#1093=COLOUR_RGB('Steel - Satin',0.627450980392157,0.627450980392157,0.627450980392157);
ENDSEC;
END-ISO-10303-21;
